AnivaSans.glyphspackage
{
glyphname = numbersign;
kernLeft = KO_numbersign;
kernRight = KO_numbersign;
layers = (
{
hints = (
{
horizontal = 1;
place = (0,21);
target = up;
type = BottomGhost;
},
{
horizontal = 1;
place = (138,65);
type = Stem;
},
{
horizontal = 1;
place = (298,65);
type = Stem;
},
{
place = (70,454);
type = Stem;
}
);
layerId = m01;
shapes = (
{
closed = 1;
nodes = (
(89,0,l),
(164,0,l),
(342,667,l),
(267,667,l)
);
},
{
closed = 1;
nodes = (
(347,0,l),
(422,0,l),
(600,667,l),
(525,667,l)
);
},
{
closed = 1;
nodes = (
(140,500,l),
(120,425,l),
(620,425,l),
(640,500,l)
);
},
{
closed = 1;
nodes = (
(70,242,l),
(50,167,l),
(550,167,l),
(570,242,l)
);
}
);
width = 690;
},
{
layerId = "481D16E4-1E98-4559-AE79-559AF135D401";
shapes = (
{
closed = 1;
nodes = (
(126,0,l),
(166,0,l),
(345,667,l),
(305,667,l)
);
},
{
closed = 1;
nodes = (
(384,0,l),
(424,0,l),
(603,667,l),
(563,667,l)
);
},
{
closed = 1;
nodes = (
(155,483,l),
(144,443,l),
(644,443,l),
(655,483,l)
);
},
{
closed = 1;
nodes = (
(86,225,l),
(75,185,l),
(575,185,l),
(586,225,l)
);
}
);
width = 730;
},
{
layerId = "05E54F0F-8425-4B5B-B0EB-B578BBC85A7B";
shapes = (
{
closed = 1;
nodes = (
(54,0,l),
(179,0,l),
(357,667,l),
(232,667,l)
);
},
{
closed = 1;
nodes = (
(262,0,l),
(387,0,l),
(565,667,l),
(440,667,l)
);
},
{
closed = 1;
nodes = (
(105,500,l),
(71,375,l),
(571,375,l),
(605,500,l)
);
},
{
closed = 1;
nodes = (
(49,292,l),
(15,167,l),
(515,167,l),
(549,292,l)
);
}
);
width = 620;
},
{
layerId = m004;
shapes = (
{
closed = 1;
nodes = (
(118,0,l),
(143,0,l),
(321,667,l),
(296,667,l)
);
},
{
closed = 1;
nodes = (
(426,0,l),
(451,0,l),
(629,667,l),
(604,667,l)
);
},
{
closed = 1;
nodes = (
(165,500,l),
(158,475,l),
(658,475,l),
(665,500,l)
);
},
{
closed = 1;
nodes = (
(82,192,l),
(75,167,l),
(575,167,l),
(582,192,l)
);
}
);
width = 740;
},
{
hints = (
{
horizontal = 1;
place = (0,21);
target = up;
type = BottomGhost;
},
{
horizontal = 1;
place = (138,65);
type = Stem;
},
{
horizontal = 1;
place = (298,65);
type = Stem;
},
{
place = (70,454);
type = Stem;
}
);
layerId = m005;
shapes = (
{
closed = 1;
nodes = (
(89,0,l),
(139,0,l),
(317,667,l),
(267,667,l)
);
},
{
closed = 1;
nodes = (
(372,0,l),
(422,0,l),
(600,667,l),
(550,667,l)
);
},
{
closed = 1;
nodes = (
(140,500,l),
(126,450,l),
(626,450,l),
(640,500,l)
);
},
{
closed = 1;
nodes = (
(64,217,l),
(50,167,l),
(550,167,l),
(564,217,l)
);
}
);
width = 690;
},
{
layerId = m006;
shapes = (
{
closed = 1;
nodes = (
(54,0,l),
(129,0,l),
(307,667,l),
(232,667,l)
);
},
{
closed = 1;
nodes = (
(312,0,l),
(387,0,l),
(565,667,l),
(490,667,l)
);
},
{
closed = 1;
nodes = (
(105,500,l),
(85,425,l),
(585,425,l),
(605,500,l)
);
},
{
closed = 1;
nodes = (
(35,242,l),
(15,167,l),
(515,167,l),
(535,242,l)
);
}
);
width = 620;
}
);
metricLeft = "=period";
metricRight = "=period";
note = numbersign;
unicode = 35;
}
{
glyphname = dollar;
layers = (
{
hints = (
{
horizontal = 1;
place = (-10,77);
type = Stem;
},
{
horizontal = 1;
place = (538,142);
type = Stem;
},
{
place = (35,90);
type = Stem;
},
{
place = (183,50);
type = Stem;
},
{
place = (305,109);
type = Stem;
},
{
horizontal = 1;
place = (-85,152);
type = Stem;
}
);
layerId = m01;
shapes = (
{
closed = 1;
nodes = (
(248,-70,l),
(248,737,l),
(173,737,l),
(173,-70,l)
);
},
{
ref = S;
}
);
width = 456;
},
{
layerId = "481D16E4-1E98-4559-AE79-559AF135D401";
shapes = (
{
closed = 1;
nodes = (
(241,-70,l),
(241,737,l),
(201,737,l),
(201,-70,l)
);
},
{
ref = S;
}
);
width = 448;
},
{
layerId = "05E54F0F-8425-4B5B-B0EB-B578BBC85A7B";
shapes = (
{
closed = 1;
nodes = (
(296,-70,l),
(296,737,l),
(171,737,l),
(171,-70,l)
);
},
{
ref = S;
}
);
width = 524;
},
{
layerId = m004;
shapes = (
{
closed = 1;
nodes = (
(230,-70,l),
(230,737,l),
(205,737,l),
(205,-70,l)
);
},
{
ref = S;
}
);
width = 440;
},
{
hints = (
{
horizontal = 1;
place = (-10,77);
type = Stem;
},
{
horizontal = 1;
place = (538,142);
type = Stem;
},
{
place = (35,90);
type = Stem;
},
{
place = (183,50);
type = Stem;
},
{
place = (305,109);
type = Stem;
},
{
horizontal = 1;
place = (-85,152);
type = Stem;
}
);
layerId = m005;
shapes = (
{
closed = 1;
nodes = (
(235,-70,l),
(235,737,l),
(185,737,l),
(185,-70,l)
);
},
{
ref = S;
}
);
width = 456;
},
{
layerId = m006;
shapes = (
{
closed = 1;
nodes = (
(279,-70,l),
(279,737,l),
(189,737,l),
(189,-70,l)
);
},
{
ref = S;
}
);
width = 520;
},
{
associatedMasterId = "481D16E4-1E98-4559-AE79-559AF135D401";
attr = {
axisRules = (
{
min = 500;
},
{
}
);
};
layerId = "6D646DC7-CA55-4EE7-A824-D6616C317F6F";
name = "13. Jan. 24, 13:55";
shapes = (
{
closed = 1;
nodes = (
(241,653,l),
(241,737,l),
(201,737,l),
(201,655,l)
);
},
{
ref = S;
},
{
closed = 1;
nodes = (
(201,4,l),
(201,-70,l),
(241,-70,l),
(241,4,l)
);
}
);
width = 448;
},
{
associatedMasterId = m01;
attr = {
axisRules = (
{
min = 500;
},
{
}
);
};
hints = (
{
horizontal = 1;
place = (-10,77);
type = Stem;
},
{
horizontal = 1;
place = (538,142);
type = Stem;
},
{
place = (35,90);
type = Stem;
},
{
place = (183,50);
type = Stem;
},
{
place = (305,109);
type = Stem;
},
{
horizontal = 1;
place = (-85,152);
type = Stem;
}
);
layerId = "92DFC36A-7AEB-4520-9328-CCDF789B87D5";
name = "13. Jan. 24, 13:56";
shapes = (
{
closed = 1;
nodes = (
(248,633,l),
(248,737,l),
(173,737,l),
(173,633,l)
);
},
{
ref = S;
},
{
closed = 1;
nodes = (
(173,33,l),
(173,-70,l),
(248,-70,l),
(248,33,l)
);
}
);
width = 456;
},
{
associatedMasterId = "05E54F0F-8425-4B5B-B0EB-B578BBC85A7B";
attr = {
axisRules = (
{
min = 500;
},
{
}
);
};
layerId = "3D384C78-2DBB-42C7-9063-C9B988952C8E";
name = "13. Jan. 24, 13:57";
shapes = (
{
closed = 1;
nodes = (
(296,605,l),
(296,737,l),
(171,737,l),
(171,605,l)
);
},
{
ref = S;
},
{
closed = 1;
nodes = (
(171,71,l),
(171,-70,l),
(296,-70,l),
(296,71,l)
);
}
);
width = 524;
},
{
associatedMasterId = m004;
attr = {
axisRules = (
{
min = 500;
},
{
}
);
};
layerId = "B34D2F73-3C47-4B54-B6C0-1EB4AD43E025";
name = "13. Jan. 24, 13:57";
shapes = (
{
closed = 1;
nodes = (
(230,659,l),
(230,737,l),
(205,737,l),
(205,659,l)
);
},
{
ref = S;
},
{
closed = 1;
nodes = (
(205,2,l),
(205,-70,l),
(230,-70,l),
(230,2,l)
);
}
);
width = 440;
},
{
associatedMasterId = m005;
attr = {
axisRules = (
{
min = 500;
},
{
}
);
};
hints = (
{
horizontal = 1;
place = (-10,77);
type = Stem;
},
{
horizontal = 1;
place = (538,142);
type = Stem;
},
{
place = (35,90);
type = Stem;
},
{
place = (183,50);
type = Stem;
},
{
place = (305,109);
type = Stem;
},
{
horizontal = 1;
place = (-85,152);
type = Stem;
}
);
layerId = "557EE530-0CBB-424E-A9B3-D753BCA21EE9";
name = "13. Jan. 24, 13:58";
shapes = (
{
closed = 1;
nodes = (
(235,647,l),
(235,737,l),
(185,737,l),
(185,647,l)
);
},
{
ref = S;
},
{
closed = 1;
nodes = (
(185,21,l),
(185,-70,l),
(235,-70,l),
(235,21,l)
);
}
);
width = 456;
},
{
associatedMasterId = m006;
attr = {
axisRules = (
{
min = 500;
},
{
}
);
};
layerId = "6332984C-E030-4FCF-9E11-66CE17FB7428";
name = "13. Jan. 24, 13:58";
shapes = (
{
closed = 1;
nodes = (
(279,627,l),
(279,737,l),
(189,737,l),
(189,627,l)
);
},
{
ref = S;
},
{
closed = 1;
nodes = (
(189,38,l),
(189,-70,l),
(279,-70,l),
(279,38,l)
);
}
);
width = 520;
}
);
note = dollar;
unicode = 36;
userData = {
KernOnSpecialSpacing = {
L = symbols;
R = symbols;
};
};
}
{
export = 0;
glyphname = percent;
kernLeft = KO_percent;
layers = (
{
hints = (
{
horizontal = 1;
place = (-10,41);
type = Stem;
},
{
horizontal = 1;
place = (325,41);
type = Stem;
},
{
horizontal = 1;
place = (644,41);
type = Stem;
},
{
place = (55,110);
type = Stem;
},
{
place = (297,110);
type = Stem;
},
{
place = (472,98);
type = Stem;
},
{
place = (702,98);
type = Stem;
},
{
horizontal = 1;
place = (0,21);
target = up;
type = BottomGhost;
},
{
horizontal = 1;
place = (309,41);
type = Stem;
}
);
layerId = m01;
shapes = (
{
closed = 1;
nodes = (
(674,662,l),
(609,705,l),
(193,0,l),
(258,-43,l)
);
},
{
closed = 1;
nodes = (
(55,422,o),
(103,325,o),
(231,325,cs),
(359,325,o),
(407,422,o),
(407,507,cs),
(407,592,o),
(359,685,o),
(231,685,cs),
(103,685,o),
(55,592,o),
(55,507,cs)
);
},
{
closed = 1;
nodes = (
(165,522,ls),
(165,610,o),
(190,644,o),
(231,644,cs),
(272,644,o),
(297,610,o),
(297,522,cs),
(297,488,ls),
(297,400,o),
(272,366,o),
(231,366,cs),
(190,366,o),
(165,400,o),
(165,488,cs)
);
},
{
closed = 1;
nodes = (
(800,187,ls),
(800,290,o),
(742,350,o),
(636,350,cs),
(530,350,o),
(472,290,o),
(472,187,cs),
(472,153,ls),
(472,50,o),
(530,-10,o),
(636,-10,cs),
(742,-10,o),
(800,50,o),
(800,153,cs)
);
},
{
closed = 1;
nodes = (
(570,187,ls),
(570,275,o),
(595,309,o),
(636,309,cs),
(677,309,o),
(702,275,o),
(702,187,cs),
(702,153,ls),
(702,65,o),
(677,31,o),
(636,31,cs),
(595,31,o),
(570,65,o),
(570,153,cs)
);
}
);
width = 870;
},
{
layerId = "481D16E4-1E98-4559-AE79-559AF135D401";
width = 600;
},
{
layerId = "05E54F0F-8425-4B5B-B0EB-B578BBC85A7B";
width = 600;
},
{
layerId = m004;
width = 600;
},
{
hints = (
{
horizontal = 1;
place = (-10,41);
type = Stem;
},
{
horizontal = 1;
place = (325,41);
type = Stem;
},
{
horizontal = 1;
place = (644,41);
type = Stem;
},
{
place = (55,110);
type = Stem;
},
{
place = (297,110);
type = Stem;
},
{
place = (472,98);
type = Stem;
},
{
place = (702,98);
type = Stem;
},
{
horizontal = 1;
place = (0,21);
target = up;
type = BottomGhost;
},
{
horizontal = 1;
place = (309,41);
type = Stem;
}
);
layerId = m005;
shapes = (
{
closed = 1;
nodes = (
(674,662,l),
(609,705,l),
(193,0,l),
(258,-43,l)
);
},
{
closed = 1;
nodes = (
(55,422,o),
(103,325,o),
(231,325,cs),
(359,325,o),
(407,422,o),
(407,507,cs),
(407,592,o),
(359,685,o),
(231,685,cs),
(103,685,o),
(55,592,o),
(55,507,cs)
);
},
{
closed = 1;
nodes = (
(165,522,ls),
(165,610,o),
(190,644,o),
(231,644,cs),
(272,644,o),
(297,610,o),
(297,522,cs),
(297,488,ls),
(297,400,o),
(272,366,o),
(231,366,cs),
(190,366,o),
(165,400,o),
(165,488,cs)
);
},
{
closed = 1;
nodes = (
(800,187,ls),
(800,290,o),
(742,350,o),
(636,350,cs),
(530,350,o),
(472,290,o),
(472,187,cs),
(472,153,ls),
(472,50,o),
(530,-10,o),
(636,-10,cs),
(742,-10,o),
(800,50,o),
(800,153,cs)
);
},
{
closed = 1;
nodes = (
(570,187,ls),
(570,275,o),
(595,309,o),
(636,309,cs),
(677,309,o),
(702,275,o),
(702,187,cs),
(702,153,ls),
(702,65,o),
(677,31,o),
(636,31,cs),
(595,31,o),
(570,65,o),
(570,153,cs)
);
}
);
width = 870;
},
{
layerId = m006;
width = 600;
},
{
associatedMasterId = "481D16E4-1E98-4559-AE79-559AF135D401";
layerId = "3EF2FCCD-CB93-4CD0-83B9-CF96778F0091";
width = 589.7445;
}
);
note = percent;
unicode = 37;
userData = {
KernOnSpecialSpacing = {
L = "spaced-off";
};
};
}
{
glyphname = ampersand;
layers = (
{
hints = (
{
horizontal = 1;
place = (-10,64);
type = Stem;
},
{
horizontal = 1;
place = (248,65);
type = Stem;
},
{
horizontal = 1;
place = (560,70);
type = Stem;
},
{
place = (98,90);
type = Stem;
},
{
place = (424,95);
type = Stem;
},
{
place = (70,95);
type = Stem;
}
);
layerId = m01;
shapes = (
{
closed = 1;
nodes = (
(441,-10,o),
(539,71,o),
(539,340,c),
(464,340,l),
(464,114,o),
(393,65,o),
(289,65,cs),
(200,65,o),
(138,114,o),
(138,194,cs),
(138,277,o),
(206,302,o),
(289,348,cs),
(346,379,o),
(451,417,o),
(451,525,cs),
(451,607,o),
(398,677,o),
(289,677,cs),
(179,677,o),
(116,607,o),
(116,525,cs),
(116,405,o),
(248,265,o),
(354,159,cs),
(425,88,o),
(558,-10,o),
(558,-10,c),
(581,13,o),
(605,37,o),
(628,60,c),
(628,60,o),
(495,158,o),
(424,229,cs),
(353,300,o),
(216,435,o),
(216,525,cs),
(216,564,o),
(234,602,o),
(289,602,cs),
(344,602,o),
(361,564,o),
(361,525,cs),
(361,472,o),
(289,446,o),
(216,413,cs),
(102,362,o),
(38,300,o),
(38,194,cs),
(38,64,o),
(139,-10,o),
(289,-10,cs)
);
}
);
width = 628;
},
{
layerId = "481D16E4-1E98-4559-AE79-559AF135D401";
shapes = (
{
closed = 1;
nodes = (
(415,-10,o),
(497,56,o),
(501,340,c),
(461,340,l),
(457,68,o),
(378,30,o),
(276,30,cs),
(174,30,o),
(100,75,o),
(100,194,cs),
(100,287,o),
(179,321,o),
(264,364,cs),
(320,392,o),
(419,430,o),
(419,525,cs),
(419,613,o),
(370,677,o),
(276,677,cs),
(179,677,o),
(128,612,o),
(128,525,cs),
(128,410,o),
(255,275,o),
(362,175,cs),
(412,128,o),
(507,47,o),
(568,1,c),
(580,13,o),
(591,24,o),
(603,36,c),
(536,87,o),
(438,168,o),
(390,213,cs),
(314,285,o),
(178,429,o),
(178,525,cs),
(178,580,o),
(202,637,o),
(276,637,cs),
(349,637,o),
(374,580,o),
(374,525,cs),
(374,451,o),
(286,422,o),
(213,387,cs),
(107,336,o),
(50,287,o),
(50,194,cs),
(50,59,o),
(137,-10,o),
(276,-10,cs)
);
}
);
width = 603;
},
{
layerId = "05E54F0F-8425-4B5B-B0EB-B578BBC85A7B";
shapes = (
{
closed = 1;
nodes = (
(514,-10,o),
(658,75,o),
(651,340,c),
(476,340,l),
(479,135,o),
(411,115,o),
(326,115,cs),
(261,115,o),
(225,132,o),
(225,207,cs),
(225,269,o),
(268,285,o),
(350,326,cs),
(412,357,o),
(538,405,o),
(538,525,cs),
(538,611,o),
(459,677,o),
(326,677,cs),
(191,677,o),
(103,609,o),
(103,525,cs),
(103,401,o),
(240,270,o),
(356,154,cs),
(406,104,o),
(473,51,o),
(556,-10,c),
(596,30,o),
(635,69,o),
(675,109,c),
(607,159,o),
(568,188,o),
(496,260,cs),
(434,322,o),
(293,438,o),
(293,512,cs),
(293,536,o),
(304,552,o),
(326,552,cs),
(347,552,o),
(358,537,o),
(358,525,cs),
(358,480,o),
(299,466,o),
(232,436,cs),
(98,375,o),
(25,307,o),
(25,207,cs),
(25,64,o),
(151,-10,o),
(326,-10,cs)
);
}
);
width = 675;
},
{
layerId = m004;
shapes = (
{
closed = 1;
nodes = (
(410,-10,o),
(492,56,o),
(496,340,c),
(461,340,l),
(457,64,o),
(383,15,o),
(271,15,cs),
(169,15,o),
(95,64,o),
(95,194,cs),
(95,292,o),
(174,331,o),
(259,374,cs),
(316,403,o),
(414,440,o),
(414,525,cs),
(414,613,o),
(365,677,o),
(271,677,cs),
(174,677,o),
(123,612,o),
(123,525,cs),
(123,410,o),
(248,278,o),
(352,175,cs),
(399,128,o),
(540,0,o),
(565,0,cs),
(590,0,o),
(600,35,o),
(600,35,c),
(575,35,o),
(425,168,o),
(380,213,cs),
(306,287,o),
(168,429,o),
(168,525,cs),
(168,595,o),
(197,652,o),
(271,652,cs),
(344,652,o),
(374,595,o),
(374,525,cs),
(374,451,o),
(281,415,o),
(208,377,cs),
(104,323,o),
(45,282,o),
(45,194,cs),
(45,59,o),
(132,-10,o),
(271,-10,cs)
);
}
);
width = 600;
},
{
hints = (
{
horizontal = 1;
place = (-10,64);
type = Stem;
},
{
horizontal = 1;
place = (248,65);
type = Stem;
},
{
horizontal = 1;
place = (560,70);
type = Stem;
},
{
place = (98,90);
type = Stem;
},
{
place = (424,95);
type = Stem;
},
{
place = (70,95);
type = Stem;
},
{
horizontal = 1;
place = (200,85);
type = Stem;
},
{
horizontal = 1;
place = (200,80);
type = Stem;
},
{
place = (23,90);
type = Stem;
},
{
place = (23,110);
type = Stem;
},
{
horizontal = 1;
place = (-10,70);
type = Stem;
},
{
horizontal = 1;
place = (326,70);
type = Stem;
},
{
horizontal = 1;
place = (608,69);
type = Stem;
},
{
place = (49,105);
type = Stem;
},
{
place = (364,112);
type = Stem;
},
{
place = (24,112);
type = Stem;
},
{
place = (345,105);
type = Stem;
}
);
layerId = m005;
shapes = (
{
closed = 1;
nodes = (
(433,-10,o),
(531,71,o),
(531,340,c),
(481,340,l),
(481,101,o),
(398,40,o),
(281,40,cs),
(192,40,o),
(130,101,o),
(130,194,cs),
(130,294,o),
(198,315,o),
(281,361,cs),
(338,392,o),
(443,430,o),
(443,525,cs),
(443,607,o),
(390,677,o),
(281,677,cs),
(171,677,o),
(108,607,o),
(108,525,cs),
(108,405,o),
(240,265,o),
(346,159,cs),
(426,79,o),
(500,-10,o),
(550,-10,cs),
(600,-10,o),
(620,60,o),
(620,60,c),
(570,60,o),
(482,163,o),
(416,229,cs),
(345,300,o),
(208,435,o),
(208,525,cs),
(208,577,o),
(226,627,o),
(281,627,cs),
(336,627,o),
(353,577,o),
(353,525,cs),
(353,460,o),
(281,433,o),
(208,400,cs),
(94,349,o),
(30,305,o),
(30,194,cs),
(30,64,o),
(131,-10,o),
(281,-10,cs)
);
}
);
width = 620;
},
{
layerId = m006;
shapes = (
{
closed = 1;
nodes = (
(504,-10,o),
(648,75,o),
(641,340,c),
(516,340,l),
(519,110,o),
(426,65,o),
(316,65,cs),
(251,65,o),
(215,107,o),
(215,194,cs),
(215,284,o),
(252,324,o),
(340,356,cs),
(402,379,o),
(528,415,o),
(528,525,cs),
(528,611,o),
(449,677,o),
(316,677,cs),
(181,677,o),
(93,609,o),
(93,525,cs),
(93,411,o),
(232,272,o),
(346,154,cs),
(394,104,o),
(496,-10,o),
(546,-10,cs),
(646,-10,o),
(665,109,o),
(665,109,c),
(597,159,o),
(558,188,o),
(486,260,cs),
(424,322,o),
(283,438,o),
(283,525,cs),
(283,574,o),
(294,602,o),
(316,602,cs),
(337,602,o),
(348,575,o),
(348,525,cs),
(348,470,o),
(289,446,o),
(222,416,cs),
(88,355,o),
(15,297,o),
(15,194,cs),
(15,64,o),
(141,-10,o),
(316,-10,cs)
);
}
);
width = 665;
}
);
metricLeft = "=|B";
metricRight = "=L";
note = ampersand;
unicode = 38;
userData = {
KernOnSpecialSpacing = {
L = symbols;
R = symbols;
};
};
}
{
glyphname = plus;
kernLeft = KO_plus;
kernRight = KO_plus;
layers = (
{
hints = (
{
horizontal = 1;
place = (218,65);
type = Stem;
},
{
place = (248,65);
type = Stem;
}
);
layerId = m01;
shapes = (
{
closed = 1;
nodes = (
(310,55,l),
(310,455,l),
(230,455,l),
(230,55,l)
);
},
{
closed = 1;
nodes = (
(470,215,l),
(470,295,l),
(70,295,l),
(70,215,l)
);
}
);
width = 525;
},
{
layerId = "481D16E4-1E98-4559-AE79-559AF135D401";
shapes = (
{
closed = 1;
nodes = (
(320,55,l),
(320,455,l),
(280,455,l),
(280,55,l)
);
},
{
closed = 1;
nodes = (
(500,235,l),
(500,275,l),
(100,275,l),
(100,235,l)
);
}
);
width = 600;
},
{
layerId = "05E54F0F-8425-4B5B-B0EB-B578BBC85A7B";
shapes = (
{
closed = 1;
nodes = (
(313,55,l),
(313,455,l),
(188,455,l),
(188,55,l)
);
},
{
closed = 1;
nodes = (
(450,193,l),
(450,318,l),
(50,318,l),
(50,193,l)
);
}
);
width = 500;
},
{
layerId = m004;
shapes = (
{
closed = 1;
nodes = (
(310,55,l),
(310,455,l),
(270,455,l),
(270,55,l)
);
},
{
closed = 1;
nodes = (
(490,235,l),
(490,275,l),
(90,275,l),
(90,235,l)
);
}
);
width = 580;
},
{
hints = (
{
horizontal = 1;
place = (218,65);
type = Stem;
},
{
place = (248,65);
type = Stem;
}
);
layerId = m005;
shapes = (
{
closed = 1;
nodes = (
(300,55,l),
(300,455,l),
(220,455,l),
(220,55,l)
);
},
{
closed = 1;
nodes = (
(460,215,l),
(460,295,l),
(60,295,l),
(60,215,l)
);
}
);
width = 520;
},
{
layerId = m006;
shapes = (
{
closed = 1;
nodes = (
(293,55,l),
(293,455,l),
(168,455,l),
(168,55,l)
);
},
{
closed = 1;
nodes = (
(430,193,l),
(430,318,l),
(30,318,l),
(30,193,l)
);
}
);
width = 460;
},
{
associatedMasterId = "481D16E4-1E98-4559-AE79-559AF135D401";
layerId = "3EF2FCCD-CB93-4CD0-83B9-CF96778F0091";
width = 601.51933;
}
);
metricLeft = "=n";
metricRight = "=n";
note = plus;
unicode = 43;
userData = {
KernOnSpecialSpacing = {
L = math;
R = math;
};
};
}
{
glyphname = comma;
kernLeft = KO_comma;
kernRight = KO_comma;
layers = (
{
hints = (
{
horizontal = 1;
place = (-150,35);
type = Stem;
},
{
horizontal = 1;
place = (-5,120);
type = Stem;
},
{
place = (125,51);
type = Stem;
}
);
layerId = m01;
shapes = (
{
ref = period;
},
{
closed = 1;
nodes = (
(110,-10,l),
(123,-10,o),
(130,-21,o),
(130,-40,cs),
(130,-72,o),
(105,-90,o),
(60,-90,c),
(60,-150,l),
(147,-150,o),
(195,-96,o),
(195,0,cs),
(195,63,o),
(159,110,o),
(110,110,c)
);
}
);
width = 245;
},
{
layerId = "481D16E4-1E98-4559-AE79-559AF135D401";
shapes = (
{
pos = (15,0);
ref = period;
},
{
closed = 1;
nodes = (
(125,-10,l),
(138,-10,o),
(145,-21,o),
(145,-40,cs),
(145,-76,o),
(118,-100,o),
(75,-100,c),
(75,-140,l),
(145,-140,o),
(190,-89,o),
(190,-10,cs),
(190,30,o),
(162,60,o),
(125,60,c)
);
}
);
width = 260;
},
{
layerId = "05E54F0F-8425-4B5B-B0EB-B578BBC85A7B";
shapes = (
{
ref = period;
},
{
closed = 1;
nodes = (
(125,-10,l),
(138,-10,o),
(145,-17,o),
(145,-30,cs),
(145,-53,o),
(102,-70,o),
(45,-70,c),
(45,-170,l),
(183,-170,o),
(260,-106,o),
(260,10,cs),
(260,126,o),
(212,190,o),
(125,190,c)
);
}
);
width = 275;
},
{
layerId = m004;
shapes = (
{
pos = (15,0);
ref = period;
},
{
closed = 1;
nodes = (
(125,-10,l),
(144,-10,o),
(155,-21,o),
(155,-40,cs),
(155,-81,o),
(121,-115,o),
(75,-115,c),
(75,-140,l),
(141,-140,o),
(190,-84,o),
(190,-10,cs),
(190,30,o),
(162,60,o),
(125,60,c)
);
}
);
width = 265;
},
{
hints = (
{
horizontal = 1;
place = (-150,35);
type = Stem;
},
{
horizontal = 1;
place = (-5,120);
type = Stem;
},
{
place = (125,51);
type = Stem;
}
);
layerId = m005;
shapes = (
{
ref = period;
},
{
closed = 1;
nodes = (
(110,-10,l),
(127,-10,o),
(140,-23,o),
(140,-40,cs),
(140,-80,o),
(106,-110,o),
(60,-110,c),
(60,-150,l),
(137,-150,o),
(195,-86,o),
(195,0,cs),
(195,63,o),
(159,110,o),
(110,110,c)
);
}
);
width = 245;
},
{
layerId = m006;
shapes = (
{
ref = period;
},
{
closed = 1;
nodes = (
(125,-10,l),
(138,-10,o),
(145,-17,o),
(145,-30,cs),
(145,-59,o),
(102,-90,o),
(45,-90,c),
(45,-170,l),
(168,-170,o),
(260,-93,o),
(260,17,cs),
(260,127,o),
(212,190,o),
(125,190,c)
);
}
);
width = 275;
}
);
note = comma;
unicode = 44;
userData = {
KernOnName = comma;
KernOnSpecialSpacing = {
L = period;
R = period;
};
};
}
{
glyphname = hyphen;
kernLeft = KO_hyphen;
kernRight = KO_hyphen;
layers = (
{
hints = (
{
horizontal = 1;
place = (-75,64);
type = Stem;
},
{
place = (80,400);
type = Stem;
}
);
layerId = m01;
shapes = (
{
closed = 1;
nodes = (
(370,295,l),
(70,295,l),
(70,215,l),
(370,215,l)
);
}
);
width = 440;
},
{
layerId = "481D16E4-1E98-4559-AE79-559AF135D401";
shapes = (
{
closed = 1;
nodes = (
(400,275,l),
(100,275,l),
(100,235,l),
(400,235,l)
);
}
);
width = 500;
},
{
layerId = "05E54F0F-8425-4B5B-B0EB-B578BBC85A7B";
shapes = (
{
closed = 1;
nodes = (
(350,318,l),
(50,318,l),
(50,193,l),
(350,193,l)
);
}
);
width = 400;
},
{
layerId = m004;
shapes = (
{
closed = 1;
nodes = (
(390,275,l),
(90,275,l),
(90,235,l),
(390,235,l)
);
}
);
width = 480;
},
{
hints = (
{
horizontal = 1;
place = (-75,64);
type = Stem;
},
{
place = (80,400);
type = Stem;
}
);
layerId = m005;
shapes = (
{
closed = 1;
nodes = (
(360,280,l),
(60,280,l),
(60,230,l),
(360,230,l)
);
}
);
width = 420;
},
{
layerId = m006;
shapes = (
{
closed = 1;
nodes = (
(330,293,l),
(30,293,l),
(30,218,l),
(330,218,l)
);
}
);
width = 360;
}
);
metricLeft = "=n";
metricRight = "=|n";
note = underscore;
unicode = 45;
userData = {
KernOnName = hyphen;
KernOnSpecialSpacing = {
L = hyphen;
R = hyphen;
};
};
}
{
glyphname = slash;
kernLeft = KO_slash;
kernRight = KO_slash;
layers = (
{
hints = (
{
horizontal = 1;
place = (0,21);
target = up;
type = BottomGhost;
},
{
place = (10,405);
type = Stem;
}
);
layerId = m01;
shapes = (
{
closed = 1;
nodes = (
(125,-100,l),
(340,700,l),
(240,700,l),
(25,-100,l)
);
}
);
width = 365;
},
{
layerId = "481D16E4-1E98-4559-AE79-559AF135D401";
shapes = (
{
closed = 1;
nodes = (
(125,-100,l),
(340,700,l),
(290,700,l),
(75,-100,l)
);
}
);
width = 415;
},
{
layerId = "05E54F0F-8425-4B5B-B0EB-B578BBC85A7B";
shapes = (
{
closed = 1;
nodes = (
(200,-100,l),
(415,700,l),
(215,700,l),
(0,-100,l)
);
}
);
width = 415;
},
{
layerId = m004;
shapes = (
{
closed = 1;
nodes = (
(125,-100,l),
(340,700,l),
(290,700,l),
(75,-100,l)
);
}
);
width = 415;
},
{
hints = (
{
horizontal = 1;
place = (0,21);
target = up;
type = BottomGhost;
},
{
place = (10,405);
type = Stem;
}
);
layerId = m005;
shapes = (
{
closed = 1;
nodes = (
(125,-100,l),
(340,700,l),
(240,700,l),
(25,-100,l)
);
}
);
width = 365;
},
{
layerId = m006;
shapes = (
{
closed = 1;
nodes = (
(200,-100,l),
(415,700,l),
(215,700,l),
(0,-100,l)
);
}
);
width = 415;
}
);
note = slash;
unicode = 47;
userData = {
KernOnName = slash;
KernOnSpecialSpacing = {
L = slash;
R = slash;
};
};
}
{
glyphname = two;
layers = (
{
hints = (
{
horizontal = 1;
place = (0,70);
type = Stem;
},
{
horizontal = 1;
place = (535,75);
type = Stem;
},
{
place = (14,118);
type = Stem;
},
{
place = (342,122);
type = Stem;
}
);
layerId = m01;
shapes = (
{
closed = 1;
nodes = (
(487,0,l),
(487,75,l),
(371,75,o),
(254,75,o),
(138,75,c),
(138,125,o),
(166,177,o),
(256,220,cs),
(331,256,o),
(488,314,o),
(488,430,cs),
(488,546,o),
(405,610,o),
(256,610,cs),
(183,610,o),
(106,591,o),
(42,557,c),
(53,534,o),
(63,510,o),
(74,487,c),
(129,512,o),
(183,535,o),
(256,535,cs),
(317,535,o),
(388,511,o),
(388,430,cs),
(388,349,o),
(298,325,o),
(213,282,cs),
(101,226,o),
(38,150,o),
(38,0,c)
);
}
);
width = 538;
},
{
layerId = "481D16E4-1E98-4559-AE79-559AF135D401";
shapes = (
{
closed = 1;
nodes = (
(449,0,l),
(449,40,l),
(334,40,o),
(217,40,o),
(102,40,c),
(102,135,o),
(146,201,o),
(232,241,cs),
(358,302,o),
(450,348,o),
(450,448,cs),
(450,548,o),
(382,610,o),
(243,610,cs),
(180,610,o),
(117,596,o),
(58,568,c),
(64,555,o),
(70,542,o),
(75,531,c),
(131,556,o),
(191,570,o),
(243,570,cs),
(350,570,o),
(400,531,o),
(400,448,cs),
(400,365,o),
(319,326,o),
(211,274,cs),
(127,234,o),
(50,169,o),
(50,0,c)
);
}
);
width = 517;
},
{
layerId = "05E54F0F-8425-4B5B-B0EB-B578BBC85A7B";
shapes = (
{
closed = 1;
nodes = (
(574,0,l),
(574,150,l),
(459,150,o),
(341,150,o),
(225,150,c),
(225,183,o),
(274,203,o),
(314,219,cs),
(397,252,o),
(575,301,o),
(575,430,cs),
(575,559,o),
(474,630,o),
(293,630,cs),
(227,630,o),
(116,608,o),
(29,558,c),
(44,528,o),
(66,482,o),
(96,424,c),
(162,460,o),
(237,480,o),
(293,480,cs),
(349,480,o),
(375,464,o),
(375,430,cs),
(375,376,o),
(312,357,o),
(227,317,cs),
(90,252,o),
(25,200,o),
(25,0,c)
);
}
);
width = 608;
},
{
layerId = m004;
shapes = (
{
closed = 1;
nodes = (
(444,0,l),
(444,25,ls),
(444,50,o),
(328,25,o),
(97,25,c),
(97,135,o),
(141,211,o),
(227,251,cs),
(301,287,o),
(445,348,o),
(445,448,cs),
(445,548,o),
(377,610,o),
(238,610,cs),
(175,610,o),
(112,596,o),
(53,568,c),
(53,555,o),
(53,531,o),
(70,531,c),
(95,531,o),
(141,585,o),
(238,585,cs),
(345,585,o),
(395,546,o),
(395,448,cs),
(395,365,o),
(291,325,o),
(206,284,cs),
(122,244,o),
(45,169,o),
(45,0,c)
);
}
);
width = 505;
},
{
hints = (
{
horizontal = 1;
place = (0,70);
type = Stem;
},
{
horizontal = 1;
place = (535,75);
type = Stem;
},
{
place = (14,118);
type = Stem;
},
{
place = (342,122);
type = Stem;
}
);
layerId = m005;
shapes = (
{
closed = 1;
nodes = (
(479,0,l),
(479,50,ls),
(479,100,o),
(363,50,o),
(130,50,c),
(130,125,o),
(180,188,o),
(248,220,cs),
(323,256,o),
(480,314,o),
(480,430,cs),
(480,546,o),
(397,610,o),
(248,610,cs),
(175,610,o),
(98,591,o),
(34,557,c),
(34,532,o),
(41,487,o),
(66,487,cs),
(91,487,o),
(148,560,o),
(248,560,cs),
(309,560,o),
(380,536,o),
(380,430,cs),
(380,349,o),
(290,325,o),
(205,282,cs),
(116,237,o),
(30,150,o),
(30,0,c)
);
}
);
width = 525;
},
{
layerId = m006;
shapes = (
{
closed = 1;
nodes = (
(564,0,l),
(564,75,ls),
(564,265,o),
(448,75,o),
(215,75,c),
(215,183,o),
(264,203,o),
(304,219,cs),
(387,252,o),
(565,301,o),
(565,430,cs),
(565,559,o),
(464,630,o),
(283,630,cs),
(217,630,o),
(106,608,o),
(19,558,c),
(19,528,o),
(21,424,o),
(86,424,cs),
(152,424,o),
(183,555,o),
(283,555,cs),
(339,555,o),
(365,515,o),
(365,445,cs),
(365,376,o),
(302,357,o),
(217,317,cs),
(80,252,o),
(15,200,o),
(15,0,c)
);
}
);
width = 585;
}
);
metricLeft = "=H/2";
metricRight = "=O";
note = two;
unicode = 50;
userData = {
KernOnSpecialSpacing = {
L = NoKerning;
R = NoKerning;
};
};
}
{
glyphname = three;
layers = (
{
hints = (
{
horizontal = 1;
place = (-78,70);
type = Stem;
},
{
horizontal = 1;
place = (282,64);
type = Stem;
},
{
horizontal = 1;
place = (531,69);
type = Stem;
},
{
place = (340,116);
type = Stem;
}
);
layerId = m01;
shapes = (
{
closed = 1;
nodes = (
(370,-77,o),
(463,11,o),
(463,146,cs),
(463,279,o),
(373,362,o),
(225,337,c),
(415,534,ls),
(446,566,o),
(433,600,o),
(389,600,cs),
(37,600,l),
(37,520,l),
(125,520,o),
(212,520,o),
(300,520,c),
(138,335,ls),
(122,316,o),
(113,298,o),
(113,273,cs),
(113,249,l),
(142,257,o),
(181,265,o),
(212,267,cs),
(309,274,o),
(363,242,o),
(363,146,cs),
(363,54,o),
(314,3,o),
(227,3,cs),
(161,3,o),
(100,14,o),
(58,33,c),
(47,10,o),
(36,-17,o),
(25,-40,c),
(80,-65,o),
(152,-77,o),
(227,-77,cs)
);
}
);
width = 488;
},
{
layerId = "481D16E4-1E98-4559-AE79-559AF135D401";
shapes = (
{
closed = 1;
nodes = (
(335,-77,o),
(417,-1,o),
(417,146,cs),
(417,293,o),
(317,352,o),
(176,322,c),
(396,569,ls),
(417,592,o),
(414,600,o),
(388,600,cs),
(41,600,l),
(41,560,l),
(135,560,o),
(239,560,o),
(333,560,c),
(126,323,ls),
(113,309,o),
(107,295,o),
(107,273,cs),
(107,271,l),
(130,278,o),
(167,283,o),
(189,285,cs),
(297,293,o),
(367,255,o),
(367,146,cs),
(367,19,o),
(302,-37,o),
(201,-37,cs),
(134,-37,o),
(85,-25,o),
(51,-10,c),
(45,-21,o),
(40,-37,o),
(34,-49,c),
(77,-65,o),
(132,-77,o),
(201,-77,cs)
);
}
);
width = 451;
},
{
layerId = "05E54F0F-8425-4B5B-B0EB-B578BBC85A7B";
shapes = (
{
closed = 1;
nodes = (
(442,-77,o),
(556,16,o),
(556,159,cs),
(556,274,o),
(474,355,o),
(348,366,c),
(494,497,ls),
(559,556,o),
(530,600,o),
(432,600,cs),
(30,600,l),
(30,475,l),
(111,475,o),
(190,475,o),
(270,475,c),
(143,351,ls),
(117,325,o),
(106,305,o),
(106,273,cs),
(106,211,l),
(162,230,o),
(221,242,o),
(258,242,cs),
(321,242,o),
(356,212,o),
(356,159,cs),
(356,92,o),
(320,48,o),
(240,48,cs),
(182,48,o),
(135,70,o),
(73,100,c),
(42,34,o),
(24,-1,o),
(17,-17,c),
(76,-53,o),
(174,-77,o),
(265,-77,cs)
);
}
);
width = 573;
},
{
layerId = m004;
shapes = (
{
closed = 1;
nodes = (
(331,-77,o),
(413,-1,o),
(413,146,cs),
(413,288,o),
(314,347,o),
(168,317,c),
(392,569,ls),
(412,592,o),
(410,600,o),
(384,600,cs),
(37,600,l),
(37,575,ls),
(37,550,o),
(49,575,o),
(342,575,c),
(122,323,ls),
(109,308,o),
(103,295,o),
(103,283,cs),
(103,281,l),
(126,288,o),
(163,293,o),
(185,295,cs),
(293,303,o),
(363,265,o),
(363,146,cs),
(363,5,o),
(298,-52,o),
(197,-52,cs),
(130,-52,o),
(81,-10,o),
(47,-10,c),
(30,-10,o),
(30,-37,o),
(30,-49,c),
(73,-65,o),
(128,-77,o),
(197,-77,cs)
);
}
);
width = 443;
},
{
hints = (
{
horizontal = 1;
place = (-78,70);
type = Stem;
},
{
horizontal = 1;
place = (282,64);
type = Stem;
},
{
horizontal = 1;
place = (531,69);
type = Stem;
},
{
place = (340,116);
type = Stem;
}
);
layerId = m005;
shapes = (
{
closed = 1;
nodes = (
(368,-77,o),
(461,11,o),
(461,146,cs),
(461,279,o),
(371,362,o),
(223,337,c),
(413,539,ls),
(444,571,o),
(431,600,o),
(387,600,cs),
(35,600,l),
(35,550,ls),
(35,500,o),
(155,550,o),
(345,550,c),
(148,335,ls),
(130,316,o),
(111,298,o),
(111,273,cs),
(111,249,l),
(140,257,o),
(179,265,o),
(210,267,cs),
(307,274,o),
(361,242,o),
(361,146,cs),
(361,35,o),
(312,-27,o),
(225,-27,cs),
(140,-27,o),
(89,28,o),
(56,28,cs),
(23,28,o),
(23,-17,o),
(23,-40,c),
(79,-65,o),
(153,-77,o),
(225,-77,cs)
);
}
);
width = 484;
},
{
layerId = m006;
shapes = (
{
closed = 1;
nodes = (
(435,-77,o),
(549,16,o),
(549,159,cs),
(549,274,o),
(467,355,o),
(331,341,c),
(487,497,ls),
(549,559,o),
(523,600,o),
(425,600,cs),
(23,600,l),
(23,525,ls),
(23,450,o),
(128,525,o),
(339,525,c),
(136,326,ls),
(110,300,o),
(99,280,o),
(99,248,cs),
(99,236,l),
(155,255,o),
(214,267,o),
(251,267,cs),
(314,267,o),
(349,237,o),
(349,159,cs),
(349,42,o),
(313,-2,o),
(233,-2,cs),
(155,-2,o),
(128,100,o),
(66,100,cs),
(23,100,o),
(10,22,o),
(10,-17,c),
(69,-53,o),
(167,-77,o),
(258,-77,cs)
);
}
);
width = 559;
}
);
metricLeft = "=T";
metricRight = "=S";
note = three;
unicode = 51;
userData = {
KernOnSpecialSpacing = {
L = NoKerning;
R = NoKerning;
};
};
}
{
glyphname = four;
layers = (
{
hints = (
{
horizontal = 1;
place = (110,70);
type = Stem;
},
{
place = (315,102);
type = Stem;
}
);
layerId = m01;
shapes = (
{
closed = 1;
nodes = (
(432,-67,l),
(432,95,l),
(519,95,l),
(519,175,l),
(432,175,l),
(432,600,l),
(357,600,l),
(210,472,o),
(95,334,o),
(31,204,cs),
(20,183,o),
(17,166,o),
(17,143,cs),
(17,95,l),
(332,95,l),
(332,-67,l)
);
},
{
closed = 1;
nodes = (
(164,267,o),
(255,375,o),
(332,456,c),
(332,175,l),
(127,175,l)
);
}
);
width = 519;
},
{
layerId = "481D16E4-1E98-4559-AE79-559AF135D401";
shapes = (
{
closed = 1;
nodes = (
(403,-67,l),
(403,112,l),
(489,112,l),
(489,152,l),
(403,152,l),
(403,600,l),
(363,600,l),
(210,466,o),
(107,326,o),
(44,167,cs),
(40,156,o),
(37,147,o),
(37,136,cs),
(37,112,l),
(352,112,l),
(352,-67,l)
);
},
{
closed = 1;
nodes = (
(147,313,o),
(259,448,o),
(352,530,c),
(352,152,l),
(90,152,l)
);
}
);
width = 539;
},
{
layerId = "05E54F0F-8425-4B5B-B0EB-B578BBC85A7B";
shapes = (
{
closed = 1;
nodes = (
(515,-67,l),
(515,70,l),
(602,70,l),
(602,195,l),
(515,195,l),
(515,600,l),
(364,600,l),
(200,483,o),
(82,337,o),
(19,210,cs),
(4,180,o),
(0,166,o),
(0,138,cs),
(0,70,l),
(315,70,l),
(315,-67,l)
);
},
{
closed = 1;
nodes = (
(212,239,o),
(253,298,o),
(315,360,c),
(315,195,l),
(200,195,l)
);
}
);
width = 627;
},
{
layerId = m004;
shapes = (
{
closed = 1;
nodes = (
(403,-67,l),
(403,122,l),
(489,122,l),
(489,147,l),
(403,147,l),
(403,600,l),
(363,600,l),
(210,466,o),
(107,326,o),
(44,167,cs),
(40,156,o),
(37,147,o),
(37,136,cs),
(37,122,l),
(352,122,l),
(352,-67,l)
);
},
{
closed = 1;
nodes = (
(147,313,o),
(259,463,o),
(352,545,c),
(352,147,l),
(90,147,l)
);
}
);
width = 534;
},
{
hints = (
{
horizontal = 1;
place = (110,70);
type = Stem;
},
{
place = (315,102);
type = Stem;
}
);
layerId = m005;
shapes = (
{
closed = 1;
nodes = (
(432,-67,l),
(432,108,l),
(519,108,l),
(519,158,l),
(432,158,l),
(432,600,l),
(357,600,l),
(210,472,o),
(85,329,o),
(31,199,cs),
(22,177,o),
(17,161,o),
(17,138,cs),
(17,108,l),
(332,108,l),
(332,-67,l)
);
},
{
closed = 1;
nodes = (
(164,287,o),
(255,400,o),
(332,481,c),
(332,158,l),
(127,158,l)
);
}
);
width = 549;
},
{
layerId = m006;
shapes = (
{
closed = 1;
nodes = (
(515,-67,l),
(515,100,l),
(602,100,l),
(602,175,l),
(515,175,l),
(515,600,l),
(364,600,l),
(200,483,o),
(82,337,o),
(19,210,cs),
(4,180,o),
(0,166,o),
(0,138,cs),
(0,100,l),
(315,100,l),
(315,-67,l)
);
},
{
closed = 1;
nodes = (
(224,254,o),
(265,329,o),
(315,385,c),
(315,175,l),
(200,175,l)
);
}
);
width = 617;
}
);
metricLeft = "=A";
metricRight = "=F";
note = four;
unicode = 52;
userData = {
KernOnSpecialSpacing = {
L = NoKerning;
R = NoKerning;
};
};
}
{
glyphname = six;
layers = (
{
hints = (
{
horizontal = 1;
place = (-10,70);
type = Stem;
},
{
horizontal = 1;
place = (340,70);
type = Stem;
},
{
horizontal = 1;
place = (612,65);
type = Stem;
},
{
place = (24,117);
type = Stem;
},
{
place = (369,112);
type = Stem;
}
);
layerId = m01;
shapes = (
{
closed = 1;
nodes = (
(50,83,o),
(133,-10,o),
(281,-10,cs),
(418,-10,o),
(507,73,o),
(507,200,cs),
(507,328,o),
(418,410,o),
(281,410,cs),
(246,410,o),
(200,397,o),
(164,375,c),
(195,521,o),
(289,602,o),
(427,602,c),
(427,677,l),
(198,677,o),
(50,509,o),
(50,250,cs)
);
},
{
closed = 1;
nodes = (
(155,282,o),
(205,335,o),
(281,335,cs),
(358,335,o),
(407,282,o),
(407,200,cs),
(407,118,o),
(358,65,o),
(281,65,cs),
(205,65,o),
(155,118,o),
(155,200,cs)
);
}
);
width = 547;
},
{
layerId = "481D16E4-1E98-4559-AE79-559AF135D401";
shapes = (
{
closed = 1;
nodes = (
(67,83,o),
(141,-10,o),
(273,-10,cs),
(395,-10,o),
(474,69,o),
(474,191,cs),
(474,313,o),
(395,392,o),
(273,392,cs),
(223,392,o),
(154,365,o),
(123,323,c),
(141,515,o),
(238,627,o),
(394,637,c),
(394,677,l),
(195,666,o),
(67,498,o),
(67,250,cs)
);
},
{
closed = 1;
nodes = (
(122,289,o),
(181,352,o),
(273,352,cs),
(365,352,o),
(424,289,o),
(424,191,cs),
(424,93,o),
(365,30,o),
(273,30,cs),
(181,30,o),
(122,93,o),
(122,191,cs)
);
}
);
width = 541;
},
{
layerId = "05E54F0F-8425-4B5B-B0EB-B578BBC85A7B";
shapes = (
{
closed = 1;
nodes = (
(33,83,o),
(133,-10,o),
(314,-10,cs),
(491,-10,o),
(590,70,o),
(590,213,cs),
(590,356,o),
(491,435,o),
(314,435,cs),
(299,435,o),
(279,432,o),
(262,427,c),
(290,506,o),
(379,552,o),
(510,552,c),
(510,677,l),
(203,677,o),
(33,525,o),
(33,250,cs)
);
},
{
closed = 1;
nodes = (
(238,275,o),
(265,310,o),
(314,310,cs),
(363,310,o),
(390,275,o),
(390,213,cs),
(390,150,o),
(363,115,o),
(314,115,cs),
(265,115,o),
(238,150,o),
(238,213,cs)
);
}
);
width = 623;
},
{
layerId = m004;
shapes = (
{
closed = 1;
nodes = (
(60,83,o),
(134,-10,o),
(266,-10,cs),
(388,-10,o),
(467,69,o),
(467,191,cs),
(467,313,o),
(388,392,o),
(266,392,cs),
(216,392,o),
(147,365,o),
(116,323,c),
(135,525,o),
(232,642,o),
(387,652,c),
(387,677,l),
(188,666,o),
(60,498,o),
(60,250,cs)
);
},
{
closed = 1;
nodes = (
(115,298,o),
(174,367,o),
(266,367,cs),
(358,367,o),
(417,298,o),
(417,191,cs),
(417,84,o),
(358,15,o),
(266,15,cs),
(174,15,o),
(115,84,o),
(115,191,cs)
);
}
);
width = 527;
},
{
hints = (
{
horizontal = 1;
place = (-10,70);
type = Stem;
},
{
horizontal = 1;
place = (340,70);
type = Stem;
},
{
horizontal = 1;
place = (612,65);
type = Stem;
},
{
place = (24,117);
type = Stem;
},
{
place = (369,112);
type = Stem;
}
);
layerId = m005;
shapes = (
{
closed = 1;
nodes = (
(45,83,o),
(128,-10,o),
(276,-10,cs),
(413,-10,o),
(502,73,o),
(502,200,cs),
(502,328,o),
(413,410,o),
(276,410,cs),
(241,410,o),
(195,397,o),
(159,375,c),
(193,537,o),
(287,627,o),
(422,627,c),
(422,677,l),
(193,677,o),
(45,509,o),
(45,250,cs)
);
},
{
closed = 1;
nodes = (
(150,297,o),
(200,360,o),
(276,360,cs),
(353,360,o),
(402,297,o),
(402,200,cs),
(402,103,o),
(353,40,o),
(276,40,cs),
(200,40,o),
(150,103,o),
(150,200,cs)
);
}
);
width = 542;
},
{
layerId = m006;
shapes = (
{
closed = 1;
nodes = (
(20,83,o),
(120,-10,o),
(301,-10,cs),
(478,-10,o),
(577,70,o),
(577,213,cs),
(577,356,o),
(478,435,o),
(301,435,cs),
(286,435,o),
(266,432,o),
(249,427,c),
(289,540,o),
(377,602,o),
(497,602,c),
(497,677,l),
(190,677,o),
(20,525,o),
(20,250,cs)
);
},
{
closed = 1;
nodes = (
(225,325,o),
(252,360,o),
(301,360,cs),
(350,360,o),
(377,325,o),
(377,213,cs),
(377,100,o),
(350,65,o),
(301,65,cs),
(252,65,o),
(225,100,o),
(225,213,cs)
);
}
);
width = 597;
},
{
associatedMasterId = "481D16E4-1E98-4559-AE79-559AF135D401";
layerId = "3EF2FCCD-CB93-4CD0-83B9-CF96778F0091";
width = 603.60842;
}
);
metricLeft = "=O";
metricRight = "=o";
note = six;
unicode = 54;
userData = {
KernOnSpecialSpacing = {
L = NoKerning;
R = NoKerning;
};
};
}
{
glyphname = eight;
layers = (
{
hints = (
{
horizontal = 1;
place = (-10,70);
type = Stem;
},
{
horizontal = 1;
place = (326,70);
type = Stem;
},
{
horizontal = 1;
place = (608,69);
type = Stem;
},
{
place = (49,105);
type = Stem;
},
{
place = (364,112);
type = Stem;
},
{
place = (24,112);
type = Stem;
},
{
place = (345,105);
type = Stem;
}
);
layerId = m01;
shapes = (
{
closed = 1;
nodes = (
(63,440,o),
(103,387,o),
(166,364,c),
(88,334,o),
(38,267,o),
(38,194,cs),
(38,70,o),
(127,-10,o),
(264,-10,cs),
(401,-10,o),
(490,70,o),
(490,194,cs),
(490,268,o),
(439,335,o),
(361,365,c),
(424,390,o),
(464,443,o),
(464,500,cs),
(464,607,o),
(385,677,o),
(264,677,cs),
(142,677,o),
(63,607,o),
(63,500,cs)
);
},
{
closed = 1;
nodes = (
(153,562,o),
(197,602,o),
(264,602,cs),
(331,602,o),
(374,562,o),
(374,500,cs),
(374,438,o),
(331,398,o),
(264,398,cs),
(197,398,o),
(153,438,o),
(153,500,cs)
);
},
{
closed = 1;
nodes = (
(138,272,o),
(188,323,o),
(264,323,cs),
(341,323,o),
(390,272,o),
(390,194,cs),
(390,116,o),
(341,65,o),
(264,65,cs),
(188,65,o),
(138,116,o),
(138,194,cs)
);
}
);
width = 528;
},
{
layerId = "481D16E4-1E98-4559-AE79-559AF135D401";
shapes = (
{
closed = 1;
nodes = (
(75,438,o),
(119,381,o),
(187,363,c),
(104,342,o),
(50,272,o),
(50,185,cs),
(50,67,o),
(129,-10,o),
(251,-10,cs),
(373,-10,o),
(452,67,o),
(452,185,cs),
(452,272,o),
(399,342,o),
(316,363,c),
(383,385,o),
(426,442,o),
(426,509,cs),
(426,611,o),
(357,677,o),
(251,677,cs),
(144,677,o),
(75,611,o),
(75,509,cs)
);
},
{
closed = 1;
nodes = (
(115,589,o),
(168,641,o),
(251,641,cs),
(333,641,o),
(386,589,o),
(386,509,cs),
(386,431,o),
(333,381,o),
(251,381,cs),
(168,381,o),
(115,431,o),
(115,509,cs)
);
},
{
closed = 1;
nodes = (
(100,280,o),
(159,341,o),
(251,341,cs),
(343,341,o),
(402,280,o),
(402,185,cs),
(402,91,o),
(343,30,o),
(251,30,cs),
(159,30,o),
(100,91,o),
(100,185,cs)
);
}
);
width = 502;
},
{
layerId = "05E54F0F-8425-4B5B-B0EB-B578BBC85A7B";
shapes = (
{
closed = 1;
nodes = (
(50,432,o),
(81,388,o),
(136,364,c),
(65,332,o),
(25,276,o),
(25,207,cs),
(25,68,o),
(124,-10,o),
(301,-10,cs),
(478,-10,o),
(577,68,o),
(577,207,cs),
(577,279,o),
(537,335,o),
(464,365,c),
(520,390,o),
(551,434,o),
(551,487,cs),
(551,609,o),
(462,677,o),
(301,677,cs),
(140,677,o),
(50,609,o),
(50,487,cs)
);
},
{
closed = 1;
nodes = (
(240,526,o),
(264,552,o),
(301,552,cs),
(337,552,o),
(361,526,o),
(361,487,cs),
(361,448,o),
(337,423,o),
(301,423,cs),
(264,423,o),
(240,448,o),
(240,487,cs)
);
},
{
closed = 1;
nodes = (
(225,262,o),
(255,298,o),
(301,298,cs),
(347,298,o),
(377,262,o),
(377,207,cs),
(377,151,o),
(347,115,o),
(301,115,cs),
(255,115,o),
(225,151,o),
(225,207,cs)
);
}
);
width = 602;
},
{
layerId = m004;
shapes = (
{
closed = 1;
nodes = (
(70,438,o),
(114,381,o),
(182,363,c),
(99,342,o),
(45,272,o),
(45,185,cs),
(45,67,o),
(124,-10,o),
(246,-10,cs),
(368,-10,o),
(447,67,o),
(447,185,cs),
(447,272,o),
(394,342,o),
(311,363,c),
(378,385,o),
(421,442,o),
(421,509,cs),
(421,611,o),
(352,677,o),
(246,677,cs),
(139,677,o),
(70,611,o),
(70,509,cs)
);
},
{
closed = 1;
nodes = (
(110,596,o),
(163,653,o),
(246,653,cs),
(328,653,o),
(381,596,o),
(381,509,cs),
(381,428,o),
(328,376,o),
(246,376,cs),
(163,376,o),
(110,428,o),
(110,509,cs)
);
},
{
closed = 1;
nodes = (
(95,280,o),
(160,351,o),
(246,351,cs),
(332,351,o),
(397,280,o),
(397,185,cs),
(397,88,o),
(332,15,o),
(246,15,cs),
(160,15,o),
(95,88,o),
(95,185,cs)
);
}
);
width = 492;
},
{
hints = (
{
horizontal = 1;
place = (-10,70);
type = Stem;
},
{
horizontal = 1;
place = (326,70);
type = Stem;
},
{
horizontal = 1;
place = (608,69);
type = Stem;
},
{
place = (49,105);
type = Stem;
},
{
place = (364,112);
type = Stem;
},
{
place = (24,112);
type = Stem;
},
{
place = (345,105);
type = Stem;
}
);
layerId = m005;
shapes = (
{
closed = 1;
nodes = (
(55,440,o),
(95,387,o),
(158,364,c),
(80,334,o),
(30,267,o),
(30,194,cs),
(30,70,o),
(119,-10,o),
(256,-10,cs),
(393,-10,o),
(482,70,o),
(482,194,cs),
(482,268,o),
(431,335,o),
(353,365,c),
(416,390,o),
(456,443,o),
(456,500,cs),
(456,607,o),
(377,677,o),
(256,677,cs),
(134,677,o),
(55,607,o),
(55,500,cs)
);
},
{
closed = 1;
nodes = (
(145,577,o),
(189,627,o),
(256,627,cs),
(323,627,o),
(366,577,o),
(366,500,cs),
(366,431,o),
(323,386,o),
(256,386,cs),
(189,386,o),
(145,431,o),
(145,500,cs)
);
},
{
closed = 1;
nodes = (
(130,280,o),
(180,336,o),
(256,336,cs),
(333,336,o),
(382,280,o),
(382,194,cs),
(382,101,o),
(333,40,o),
(256,40,cs),
(180,40,o),
(130,101,o),
(130,194,cs)
);
}
);
width = 512;
},
{
layerId = m006;
shapes = (
{
closed = 1;
nodes = (
(40,432,o),
(71,388,o),
(126,364,c),
(55,332,o),
(15,276,o),
(15,207,cs),
(15,68,o),
(114,-10,o),
(291,-10,cs),
(468,-10,o),
(567,68,o),
(567,207,cs),
(567,279,o),
(527,335,o),
(454,365,c),
(510,390,o),
(541,434,o),
(541,487,cs),
(541,609,o),
(452,677,o),
(291,677,cs),
(130,677,o),
(40,609,o),
(40,487,cs)
);
},
{
closed = 1;
nodes = (
(230,565,o),
(252,602,o),
(291,602,cs),
(330,602,o),
(351,565,o),
(351,498,cs),
(351,431,o),
(330,394,o),
(291,394,cs),
(252,394,o),
(230,431,o),
(230,498,cs)
);
},
{
closed = 1;
nodes = (
(215,274,o),
(242,319,o),
(291,319,cs),
(340,319,o),
(367,274,o),
(367,192,cs),
(367,110,o),
(340,65,o),
(291,65,cs),
(242,65,o),
(215,110,o),
(215,192,cs)
);
}
);
width = 582;
}
);
metricLeft = "=|B";
metricRight = "=B";
note = eight;
unicode = 56;
userData = {
KernOnSpecialSpacing = {
L = NoKerning;
R = NoKerning;
};
};
}
{
export = 0;
glyphname = less;
layers = (
{
hints = (
{
horizontal = 1;
place = (30,440);
type = Stem;
},
{
place = (80,90);
type = Stem;
}
);
layerId = m01;
shapes = (
{
closed = 1;
nodes = (
(170,250,l),
(580,385,l),
(580,470,l),
(80,293,l),
(80,207,l),
(580,30,l),
(580,115,l)
);
}
);
width = 660;
},
{
layerId = "481D16E4-1E98-4559-AE79-559AF135D401";
width = 600;
},
{
layerId = "05E54F0F-8425-4B5B-B0EB-B578BBC85A7B";
width = 600;
},
{
layerId = m004;
width = 600;
},
{
hints = (
{
horizontal = 1;
place = (30,440);
type = Stem;
},
{
place = (80,90);
type = Stem;
}
);
layerId = m005;
shapes = (
{
closed = 1;
nodes = (
(170,250,l),
(580,385,l),
(580,470,l),
(80,293,l),
(80,207,l),
(580,30,l),
(580,115,l)
);
}
);
width = 660;
},
{
layerId = m006;
width = 600;
},
{
associatedMasterId = "481D16E4-1E98-4559-AE79-559AF135D401";
layerId = "3EF2FCCD-CB93-4CD0-83B9-CF96778F0091";
width = 597.721;
}
);
note = less;
unicode = 60;
userData = {
KernOnSpecialSpacing = {
L = math;
R = math;
};
};
}
{
glyphname = equal;
kernLeft = KO_equal;
kernRight = KO_equal;
layers = (
{
hints = (
{
horizontal = 1;
place = (218,65);
type = Stem;
},
{
place = (248,65);
type = Stem;
}
);
layerId = m01;
shapes = (
{
closed = 1;
nodes = (
(470,315,l),
(470,395,l),
(70,395,l),
(70,315,l)
);
},
{
closed = 1;
nodes = (
(470,115,l),
(470,195,l),
(70,195,l),
(70,115,l)
);
}
);
width = 525;
},
{
layerId = "481D16E4-1E98-4559-AE79-559AF135D401";
shapes = (
{
closed = 1;
nodes = (
(500,335,l),
(500,375,l),
(100,375,l),
(100,335,l)
);
},
{
closed = 1;
nodes = (
(500,135,l),
(500,175,l),
(100,175,l),
(100,135,l)
);
}
);
width = 600;
},
{
layerId = "05E54F0F-8425-4B5B-B0EB-B578BBC85A7B";
shapes = (
{
closed = 1;
nodes = (
(450,293,l),
(450,418,l),
(50,418,l),
(50,293,l)
);
},
{
closed = 1;
nodes = (
(450,93,l),
(450,218,l),
(50,218,l),
(50,93,l)
);
}
);
width = 500;
},
{
layerId = m004;
shapes = (
{
closed = 1;
nodes = (
(490,335,l),
(490,375,l),
(90,375,l),
(90,335,l)
);
},
{
closed = 1;
nodes = (
(490,135,l),
(490,175,l),
(90,175,l),
(90,135,l)
);
}
);
width = 580;
},
{
hints = (
{
horizontal = 1;
place = (218,65);
type = Stem;
},
{
place = (248,65);
type = Stem;
}
);
layerId = m005;
shapes = (
{
closed = 1;
nodes = (
(460,315,l),
(460,395,l),
(60,395,l),
(60,315,l)
);
},
{
closed = 1;
nodes = (
(460,115,l),
(460,195,l),
(60,195,l),
(60,115,l)
);
}
);
width = 520;
},
{
layerId = m006;
shapes = (
{
closed = 1;
nodes = (
(430,293,l),
(430,418,l),
(30,418,l),
(30,293,l)
);
},
{
closed = 1;
nodes = (
(430,93,l),
(430,218,l),
(30,218,l),
(30,93,l)
);
}
);
width = 460;
},
{
associatedMasterId = "481D16E4-1E98-4559-AE79-559AF135D401";
layerId = "3EF2FCCD-CB93-4CD0-83B9-CF96778F0091";
width = 601.51933;
}
);
metricLeft = "=n";
metricRight = "=n";
note = plus;
unicode = 61;
userData = {
KernOnSpecialSpacing = {
L = math;
R = math;
};
};
}
{
glyphname = greater;
layers = (
{
hints = (
{
horizontal = 1;
place = (30,440);
type = Stem;
},
{
place = (490,90);
type = Stem;
}
);
layerId = m01;
shapes = (
{
closed = 1;
nodes = (
(463,207,l),
(463,293,l),
(63,470,l),
(63,385,l),
(373,250,l),
(63,115,l),
(63,30,l)
);
}
);
width = 525;
},
{
layerId = "481D16E4-1E98-4559-AE79-559AF135D401";
shapes = (
{
closed = 1;
nodes = (
(500,225,l),
(500,275,l),
(100,452,l),
(100,403,l),
(452,250,l),
(100,97,l),
(100,48,l)
);
}
);
width = 600;
},
{
layerId = "05E54F0F-8425-4B5B-B0EB-B578BBC85A7B";
shapes = (
{
closed = 1;
nodes = (
(450,186,l),
(450,314,l),
(50,491,l),
(50,364,l),
(312,250,l),
(50,136,l),
(50,9,l)
);
}
);
width = 500;
},
{
layerId = m004;
shapes = (
{
closed = 1;
nodes = (
(490,225,l),
(490,275,l),
(90,452,l),
(90,403,l),
(442,250,l),
(90,97,l),
(90,48,l)
);
}
);
width = 580;
},
{
hints = (
{
horizontal = 1;
place = (30,440);
type = Stem;
},
{
place = (490,90);
type = Stem;
}
);
layerId = m005;
shapes = (
{
closed = 1;
nodes = (
(460,207,l),
(460,293,l),
(60,470,l),
(60,385,l),
(370,250,l),
(60,115,l),
(60,30,l)
);
}
);
width = 520;
},
{
layerId = m006;
shapes = (
{
closed = 1;
nodes = (
(430,186,l),
(430,314,l),
(30,491,l),
(30,364,l),
(292,250,l),
(30,136,l),
(30,9,l)
);
}
);
width = 460;
},
{
associatedMasterId = "481D16E4-1E98-4559-AE79-559AF135D401";
layerId = "3EF2FCCD-CB93-4CD0-83B9-CF96778F0091";
width = 597.721;
}
);
note = greater;
unicode = 62;
userData = {
KernOnSpecialSpacing = {
L = math;
R = math;
};
};
}
{
glyphname = B;
kernLeft = KO_H;
kernRight = KO_B;
layers = (
{
anchors = (
{
name = bottom;
pos = (282,0);
},
{
name = center;
pos = (141,167);
},
{
name = top;
pos = (282,667);
}
);
hints = (
{
horizontal = 1;
place = (0,21);
target = up;
type = BottomGhost;
},
{
horizontal = 1;
place = (282,67);
type = Stem;
},
{
horizontal = 1;
place = (598,69);
type = Stem;
},
{
place = (70,100);
type = Stem;
},
{
place = (406,99);
type = Stem;
}
);
layerId = m01;
shapes = (
{
closed = 1;
nodes = (
(75,667,l),
(75,0,l),
(175,0,l),
(175,315,l),
(270,315,ls),
(424,315,o),
(510,375,o),
(510,484,cs),
(510,602,o),
(424,667,o),
(270,667,cs)
);
},
{
closed = 1;
nodes = (
(176,380,l),
(176,587,l),
(271,587,ls),
(366,587,o),
(411,554,o),
(411,484,cs),
(411,413,o),
(366,380,o),
(271,380,cs)
);
},
{
closed = 1;
nodes = (
(175,300,l),
(271,300,ls),
(376,300,o),
(426,265,o),
(426,190,cs),
(426,115,o),
(376,80,o),
(271,80,cs),
(175,80,l),
(75,0,l),
(270,0,ls),
(434,0,o),
(525,68,o),
(525,190,cs),
(525,303,o),
(434,365,o),
(270,365,cs),
(175,365,l)
);
}
);
width = 563;
},
{
anchors = (
{
name = bottom;
pos = (275,0);
},
{
name = center;
pos = (138,167);
},
{
name = top;
pos = (275,667);
}
);
layerId = "481D16E4-1E98-4559-AE79-559AF135D401";
shapes = (
{
closed = 1;
nodes = (
(100,667,l),
(100,0,l),
(150,0,l),
(150,327,l),
(270,327,ls),
(416,327,o),
(485,381,o),
(485,495,cs),
(485,612,o),
(416,667,o),
(270,667,cs)
);
},
{
closed = 1;
nodes = (
(151,360,l),
(151,627,l),
(271,627,ls),
(383,627,o),
(436,584,o),
(436,494,cs),
(436,403,o),
(383,360,o),
(271,360,cs)
);
},
{
closed = 1;
nodes = (
(150,320,l),
(271,320,ls),
(393,320,o),
(451,275,o),
(451,179,cs),
(451,85,o),
(393,40,o),
(271,40,cs),
(150,40,l),
(100,0,l),
(270,0,ls),
(418,0,o),
(500,64,o),
(500,178,cs),
(500,291,o),
(418,353,o),
(270,353,cs),
(150,353,l)
);
}
);
width = 550;
},
{
anchors = (
{
name = bottom;
pos = (313,0);
},
{
name = center;
pos = (156,167);
},
{
name = top;
pos = (313,667);
}
);
layerId = "05E54F0F-8425-4B5B-B0EB-B578BBC85A7B";
shapes = (
{
closed = 1;
nodes = (
(50,667,l),
(50,0,l),
(250,0,l),
(250,310,l),
(295,310,ls),
(481,310,o),
(585,369,o),
(585,475,cs),
(585,598,o),
(481,667,o),
(295,667,cs)
);
},
{
closed = 1;
nodes = (
(251,430,l),
(251,517,l),
(296,517,ls),
(357,517,o),
(386,503,o),
(386,474,cs),
(386,444,o),
(357,430,o),
(296,430,cs)
);
},
{
closed = 1;
nodes = (
(250,280,l),
(296,280,ls),
(367,280,o),
(401,259,o),
(401,215,cs),
(401,171,o),
(367,150,o),
(296,150,cs),
(250,150,l),
(50,0,l),
(295,0,ls),
(491,0,o),
(600,77,o),
(600,215,cs),
(600,334,o),
(491,400,o),
(295,400,cs),
(250,400,l)
);
}
);
width = 625;
},
{
anchors = (
{
name = bottom;
pos = (268,0);
},
{
name = center;
pos = (134,167);
},
{
name = top;
pos = (268,667);
}
);
layerId = m004;
shapes = (
{
closed = 1;
nodes = (
(90,667,l),
(90,0,l),
(140,0,l),
(140,327,l),
(260,327,ls),
(406,327,o),
(475,381,o),
(475,495,cs),
(475,612,o),
(406,667,o),
(260,667,cs)
);
},
{
closed = 1;
nodes = (
(141,350,l),
(141,637,l),
(261,637,ls),
(373,637,o),
(426,591,o),
(426,494,cs),
(426,396,o),
(373,350,o),
(261,350,cs)
);
},
{
closed = 1;
nodes = (
(140,320,l),
(261,320,ls),
(383,320,o),
(441,273,o),
(441,175,cs),
(441,77,o),
(383,30,o),
(261,30,cs),
(140,30,l),
(90,0,l),
(260,0,ls),
(408,0,o),
(490,62,o),
(490,174,cs),
(490,283,o),
(408,343,o),
(260,343,cs),
(140,343,l)
);
}
);
width = 535;
},
{
anchors = (
{
name = bottom;
pos = (270,0);
},
{
name = center;
pos = (135,167);
},
{
name = top;
pos = (270,667);
}
);
hints = (
{
horizontal = 1;
place = (0,21);
target = up;
type = BottomGhost;
},
{
horizontal = 1;
place = (282,67);
type = Stem;
},
{
horizontal = 1;
place = (598,69);
type = Stem;
},
{
place = (70,100);
type = Stem;
},
{
place = (406,99);
type = Stem;
}
);
layerId = m005;
shapes = (
{
closed = 1;
nodes = (
(60,667,l),
(60,0,l),
(160,0,l),
(160,330,l),
(255,330,ls),
(409,330,o),
(495,388,o),
(495,491,cs),
(495,604,o),
(409,667,o),
(255,667,cs)
);
},
{
closed = 1;
nodes = (
(161,365,l),
(161,617,l),
(256,617,ls),
(351,617,o),
(396,577,o),
(396,491,cs),
(396,406,o),
(351,365,o),
(256,365,cs)
);
},
{
closed = 1;
nodes = (
(160,315,l),
(256,315,ls),
(361,315,o),
(411,273,o),
(411,183,cs),
(411,93,o),
(361,50,o),
(256,50,cs),
(160,50,l),
(60,0,l),
(255,0,ls),
(419,0,o),
(510,65,o),
(510,183,cs),
(510,290,o),
(419,350,o),
(255,350,cs),
(160,350,l)
);
}
);
width = 540;
},
{
anchors = (
{
name = bottom;
pos = (298,0);
},
{
name = center;
pos = (149,167);
},
{
name = top;
pos = (298,667);
}
);
layerId = m006;
shapes = (
{
closed = 1;
nodes = (
(30,667,l),
(30,0,l),
(230,0,l),
(230,325,l),
(275,325,ls),
(461,325,o),
(565,381,o),
(565,481,cs),
(565,601,o),
(461,667,o),
(275,667,cs)
);
},
{
closed = 1;
nodes = (
(231,385,l),
(231,577,l),
(276,577,ls),
(337,577,o),
(366,546,o),
(366,481,cs),
(366,416,o),
(337,385,o),
(276,385,cs)
);
},
{
closed = 1;
nodes = (
(230,295,l),
(276,295,ls),
(347,295,o),
(381,262,o),
(381,193,cs),
(381,123,o),
(347,90,o),
(276,90,cs),
(230,90,l),
(30,0,l),
(275,0,ls),
(471,0,o),
(580,69,o),
(580,193,cs),
(580,297,o),
(471,355,o),
(275,355,cs),
(230,355,l)
);
}
);
width = 595;
}
);
metricLeft = "=H";
metricRight = "=H/2";
note = P;
unicode = 66;
userData = {
KernOnName = B;
};
}
{
glyphname = F;
kernLeft = KO_H;
kernRight = KO_F;
layers = (
{
anchors = (
{
name = bottom;
pos = (235,0);
},
{
name = top;
pos = (235,667);
}
);
hints = (
{
horizontal = 1;
place = (0,75);
type = Stem;
},
{
horizontal = 1;
place = (305,74);
type = Stem;
},
{
horizontal = 1;
place = (592,75);
type = Stem;
},
{
place = (70,100);
type = Stem;
}
);
layerId = m01;
shapes = (
{
closed = 1;
nodes = (
(470,667,l),
(75,667,l),
(75,0,l),
(175,0,l),
(175,300,l),
(258,300,o),
(342,300,o),
(425,300,c),
(425,380,l),
(342,380,o),
(258,380,o),
(175,380,c),
(175,587,l),
(273,587,o),
(372,587,o),
(470,587,c)
);
}
);
width = 470;
},
{
anchors = (
{
name = bottom;
pos = (248,0);
},
{
name = top;
pos = (248,667);
}
);
layerId = "481D16E4-1E98-4559-AE79-559AF135D401";
shapes = (
{
closed = 1;
nodes = (
(445,667,l),
(100,667,l),
(100,0,l),
(150,0,l),
(150,320,l),
(233,320,o),
(317,320,o),
(400,320,c),
(400,360,l),
(317,360,o),
(233,360,o),
(150,360,c),
(150,627,l),
(248,627,o),
(347,627,o),
(445,627,c)
);
}
);
width = 495;
},
{
anchors = (
{
name = bottom;
pos = (285,0);
},
{
name = top;
pos = (285,667);
}
);
layerId = "05E54F0F-8425-4B5B-B0EB-B578BBC85A7B";
shapes = (
{
closed = 1;
nodes = (
(545,667,l),
(50,667,l),
(50,0,l),
(250,0,l),
(250,265,l),
(333,265,o),
(417,265,o),
(500,265,c),
(500,415,l),
(417,415,o),
(333,415,o),
(250,415,c),
(250,517,l),
(348,517,o),
(447,517,o),
(545,517,c)
);
}
);
width = 570;
},
{
anchors = (
{
name = bottom;
pos = (240,0);
},
{
name = top;
pos = (240,667);
}
);
layerId = m004;
shapes = (
{
closed = 1;
nodes = (
(435,667,l),
(90,667,l),
(90,0,l),
(140,0,l),
(140,328,l),
(328,328,o),
(390,315,o),
(390,340,cs),
(390,341,ls),
(390,366,o),
(328,353,o),
(140,353,c),
(140,642,l),
(365,642,o),
(435,617,o),
(435,642,cs)
);
}
);
width = 480;
},
{
anchors = (
{
name = bottom;
pos = (243,0);
},
{
name = top;
pos = (243,667);
}
);
hints = (
{
horizontal = 1;
place = (0,75);
type = Stem;
},
{
horizontal = 1;
place = (305,74);
type = Stem;
},
{
horizontal = 1;
place = (592,75);
type = Stem;
},
{
place = (70,100);
type = Stem;
}
);
layerId = m005;
shapes = (
{
closed = 1;
nodes = (
(455,667,l),
(60,667,l),
(60,0,l),
(160,0,l),
(160,315,l),
(348,315,o),
(410,290,o),
(410,340,cs),
(410,341,ls),
(410,391,o),
(348,365,o),
(160,365,c),
(160,617,l),
(385,617,o),
(455,567,o),
(455,617,cs)
);
}
);
width = 485;
},
{
anchors = (
{
name = bottom;
pos = (270,0);
},
{
name = top;
pos = (270,667);
}
);
layerId = m006;
shapes = (
{
closed = 1;
nodes = (
(525,667,l),
(30,667,l),
(30,0,l),
(230,0,l),
(230,295,l),
(418,295,o),
(480,235,o),
(480,340,cs),
(480,341,ls),
(480,446,o),
(418,385,o),
(230,385,c),
(230,577,l),
(455,577,o),
(525,457,o),
(525,577,cs)
);
}
);
width = 540;
},
{
associatedMasterId = "481D16E4-1E98-4559-AE79-559AF135D401";
layerId = "3EF2FCCD-CB93-4CD0-83B9-CF96778F0091";
width = 604.17817;
}
);
metricLeft = "=H";
note = E;
unicode = 70;
userData = {
KernOnName = F;
};
}
{
glyphname = I;
kernLeft = KO_I;
kernRight = KO_I;
layers = (
{
anchors = (
{
name = bottom;
pos = (180,0);
},
{
name = ogonek;
pos = (310,0);
},
{
name = top;
pos = (180,667);
},
{
name = topleft;
pos = (20,667);
}
);
hints = (
{
horizontal = 1;
place = (0,21);
target = up;
type = BottomGhost;
},
{
place = (70,100);
type = Stem;
}
);
layerId = m01;
shapes = (
{
closed = 1;
nodes = (
(230,667,l),
(130,667,l),
(130,0,l),
(230,0,l)
);
},
{
closed = 1;
nodes = (
(50,587,l),
(310,587,l),
(310,667,l),
(50,667,l)
);
},
{
closed = 1;
nodes = (
(50,0,l),
(310,0,l),
(310,80,l),
(50,80,l)
);
}
);
width = 360;
},
{
anchors = (
{
name = bottom;
pos = (172,0);
},
{
name = ogonek;
pos = (277,0);
},
{
name = top;
pos = (172,667);
},
{
name = topleft;
pos = (20,667);
}
);
layerId = "481D16E4-1E98-4559-AE79-559AF135D401";
shapes = (
{
closed = 1;
nodes = (
(197,667,l),
(147,667,l),
(147,0,l),
(197,0,l)
);
},
{
closed = 1;
nodes = (
(67,627,l),
(277,627,l),
(277,667,l),
(67,667,l)
);
},
{
closed = 1;
nodes = (
(67,0,l),
(277,0,l),
(277,40,l),
(67,40,l)
);
}
);
width = 344;
},
{
anchors = (
{
name = bottom;
pos = (223,0);
},
{
name = ogonek;
pos = (413,0);
},
{
name = top;
pos = (223,667);
},
{
name = topleft;
pos = (20,667);
}
);
layerId = "05E54F0F-8425-4B5B-B0EB-B578BBC85A7B";
shapes = (
{
closed = 1;
nodes = (
(323,667,l),
(123,667,l),
(123,0,l),
(323,0,l)
);
},
{
closed = 1;
nodes = (
(33,547,l),
(413,547,l),
(413,667,l),
(33,667,l)
);
},
{
closed = 1;
nodes = (
(33,0,l),
(413,0,l),
(413,120,l),
(33,120,l)
);
}
);
width = 446;
},
{
anchors = (
{
name = bottom;
pos = (165,0);
},
{
name = ogonek;
pos = (270,0);
},
{
name = top;
pos = (165,667);
},
{
name = topleft;
pos = (20,667);
}
);
layerId = m004;
shapes = (
{
closed = 1;
nodes = (
(190,667,l),
(140,667,l),
(140,0,l),
(190,0,l)
);
},
{
closed = 1;
nodes = (
(60,642,l),
(270,642,l),
(270,667,l),
(60,667,l)
);
},
{
closed = 1;
nodes = (
(60,0,l),
(270,0,l),
(270,25,l),
(60,25,l)
);
}
);
width = 330;
},
{
anchors = (
{
name = bottom;
pos = (175,0);
},
{
name = ogonek;
pos = (305,0);
},
{
name = top;
pos = (175,667);
},
{
name = topleft;
pos = (20,667);
}
);
hints = (
{
horizontal = 1;
place = (0,21);
target = up;
type = BottomGhost;
},
{
place = (70,100);
type = Stem;
}
);
layerId = m005;
shapes = (
{
closed = 1;
nodes = (
(225,667,l),
(125,667,l),
(125,0,l),
(225,0,l)
);
},
{
closed = 1;
nodes = (
(45,617,l),
(305,617,l),
(305,667,l),
(45,667,l)
);
},
{
closed = 1;
nodes = (
(45,0,l),
(305,0,l),
(305,50,l),
(45,50,l)
);
}
);
width = 350;
},
{
anchors = (
{
name = bottom;
pos = (210,0);
},
{
name = ogonek;
pos = (400,0);
},
{
name = top;
pos = (210,667);
},
{
name = topleft;
pos = (20,667);
}
);
layerId = m006;
shapes = (
{
closed = 1;
nodes = (
(310,667,l),
(110,667,l),
(110,0,l),
(310,0,l)
);
},
{
closed = 1;
nodes = (
(20,577,l),
(400,577,l),
(400,667,l),
(20,667,l)
);
},
{
closed = 1;
nodes = (
(20,0,l),
(400,0,l),
(400,90,l),
(20,90,l)
);
}
);
width = 420;
},
{
associatedMasterId = "481D16E4-1E98-4559-AE79-559AF135D401";
layerId = "3EF2FCCD-CB93-4CD0-83B9-CF96778F0091";
width = 613.674;
}
);
metricLeft = "=O";
metricRight = "=O";
note = I;
unicode = 73;
userData = {
KernOnName = I;
};
}
{
glyphname = J;
kernLeft = KO_J;
kernRight = KO_U;
layers = (
{
anchors = (
{
name = bottom;
pos = (253,0);
},
{
name = top;
pos = (253,667);
}
);
hints = (
{
horizontal = 1;
place = (-10,85);
type = Stem;
},
{
horizontal = 1;
place = (597,80);
type = Stem;
},
{
place = (35,110);
type = Stem;
}
);
layerId = m01;
shapes = (
{
closed = 1;
nodes = (
(344,-10,o),
(430,90,o),
(430,270,cs),
(430,667,l),
(330,667,l),
(330,270,ls),
(330,134,o),
(285,70,o),
(190,70,c),
(190,-10,l)
);
},
{
closed = 1;
nodes = (
(190,70,l),
(139,70,o),
(89,81,o),
(50,100,c),
(38,78,o),
(25,55,o),
(13,33,c),
(66,5,o),
(130,-10,o),
(190,-10,c)
);
},
{
closed = 1;
nodes = (
(430,587,l),
(430,667,l),
(170,667,l),
(170,587,l)
);
}
);
width = 505;
},
{
anchors = (
{
name = bottom;
pos = (255,0);
},
{
name = top;
pos = (255,667);
}
);
layerId = "481D16E4-1E98-4559-AE79-559AF135D401";
shapes = (
{
closed = 1;
nodes = (
(340,-10,o),
(409,80,o),
(409,270,cs),
(409,667,l),
(359,667,l),
(359,270,ls),
(359,107,o),
(306,30,o),
(194,30,c),
(194,-10,l)
);
},
{
closed = 1;
nodes = (
(194,30,l),
(141,30,o),
(89,43,o),
(34,70,c),
(28,58,o),
(23,45,o),
(17,33,c),
(70,5,o),
(134,-10,o),
(194,-10,c)
);
},
{
closed = 1;
nodes = (
(409,627,l),
(409,667,l),
(199,667,l),
(199,627,l)
);
}
);
width = 509;
},
{
anchors = (
{
name = bottom;
pos = (278,0);
},
{
name = top;
pos = (278,667);
}
);
layerId = "05E54F0F-8425-4B5B-B0EB-B578BBC85A7B";
shapes = (
{
closed = 1;
nodes = (
(412,-10,o),
(505,86,o),
(505,290,cs),
(505,667,l),
(305,667,l),
(305,290,ls),
(305,188,o),
(276,140,o),
(215,140,c),
(215,-10,l)
);
},
{
closed = 1;
nodes = (
(215,140,l),
(174,140,o),
(117,151,o),
(55,170,c),
(39,127,o),
(24,74,o),
(8,31,c),
(54,5,o),
(128,-10,o),
(215,-10,c)
);
},
{
closed = 1;
nodes = (
(505,547,l),
(505,667,l),
(125,667,l),
(125,547,l)
);
}
);
width = 555;
},
{
anchors = (
{
name = bottom;
pos = (249,0);
},
{
name = top;
pos = (249,667);
}
);
layerId = m004;
shapes = (
{
closed = 1;
nodes = (
(338,-10,o),
(407,80,o),
(407,270,cs),
(407,667,l),
(357,667,l),
(357,270,ls),
(357,107,o),
(304,15,o),
(192,15,c),
(192,-10,l)
);
},
{
closed = 1;
nodes = (
(192,15,l),
(80,15,o),
(49,70,o),
(32,70,cs),
(15,70,o),
(15,45,o),
(15,33,c),
(68,5,o),
(132,-10,o),
(192,-10,c)
);
},
{
closed = 1;
nodes = (
(407,642,l),
(407,667,l),
(197,667,l),
(197,642,l)
);
}
);
width = 497;
},
{
anchors = (
{
name = bottom;
pos = (244,0);
},
{
name = top;
pos = (244,667);
}
);
hints = (
{
horizontal = 1;
place = (-10,85);
type = Stem;
},
{
horizontal = 1;
place = (597,80);
type = Stem;
},
{
place = (35,110);
type = Stem;
}
);
layerId = m005;
shapes = (
{
closed = 1;
nodes = (
(342,-10,o),
(428,90,o),
(428,270,cs),
(428,667,l),
(328,667,l),
(328,270,ls),
(328,114,o),
(283,40,o),
(188,40,c),
(188,-10,l)
);
},
{
closed = 1;
nodes = (
(188,40,l),
(93,40,o),
(73,100,o),
(48,100,cs),
(23,100,o),
(9,58,o),
(11,33,c),
(64,5,o),
(128,-10,o),
(188,-10,c)
);
},
{
closed = 1;
nodes = (
(428,617,l),
(428,667,l),
(168,667,l),
(168,617,l)
);
}
);
width = 488;
},
{
anchors = (
{
name = bottom;
pos = (271,0);
},
{
name = top;
pos = (271,667);
}
);
layerId = m006;
shapes = (
{
closed = 1;
nodes = (
(419,-10,o),
(512,86,o),
(512,290,cs),
(512,667,l),
(312,667,l),
(312,290,ls),
(312,131,o),
(286,80,o),
(222,80,c),
(222,-10,l)
);
},
{
closed = 1;
nodes = (
(222,80,l),
(158,80,o),
(98,170,o),
(62,170,cs),
(26,170,o),
(-14,100,o),
(15,31,c),
(68,0,o),
(162,-10,o),
(222,-10,c)
);
},
{
closed = 1;
nodes = (
(512,577,l),
(512,667,l),
(132,667,l),
(132,577,l)
);
}
);
width = 542;
}
);
metricLeft = "=O/4";
metricRight = "=U";
note = C;
unicode = 74;
userData = {
KernOnName = J;
};
}
{
glyphname = K;
kernLeft = KO_H;
kernRight = KO_K;
layers = (
{
anchors = (
{
name = bottom;
pos = (272,0);
},
{
name = top;
pos = (272,667);
}
);
hints = (
{
horizontal = 1;
place = (0,21);
target = up;
type = BottomGhost;
},
{
horizontal = 1;
place = (282,67);
type = Stem;
},
{
horizontal = 1;
place = (598,69);
type = Stem;
},
{
place = (70,100);
type = Stem;
},
{
place = (406,99);
type = Stem;
}
);
layerId = m01;
shapes = (
{
closed = 1;
nodes = (
(513,667,l),
(407,667,l),
(175,360,l),
(175,225,l)
);
},
{
closed = 1;
nodes = (
(175,0,l),
(176,667,l),
(75,667,l),
(75,0,l)
);
},
{
closed = 1;
nodes = (
(525,0,l),
(495,260,o),
(281,370,o),
(281,370,c),
(237,310,l),
(237,310,o),
(395,230,o),
(425,0,c)
);
}
);
width = 544;
},
{
anchors = (
{
name = bottom;
pos = (260,0);
},
{
name = top;
pos = (260,667);
}
);
layerId = "481D16E4-1E98-4559-AE79-559AF135D401";
shapes = (
{
closed = 1;
nodes = (
(465,667,l),
(405,667,l),
(150,305,l),
(150,225,l)
);
},
{
closed = 1;
nodes = (
(150,0,l),
(150,667,l),
(100,667,l),
(100,0,l)
);
},
{
closed = 1;
nodes = (
(495,0,l),
(465,260,o),
(245,360,o),
(245,360,c),
(218,325,l),
(218,325,o),
(415,230,o),
(445,0,c)
);
}
);
width = 520;
},
{
anchors = (
{
name = bottom;
pos = (326,0);
},
{
name = top;
pos = (326,667);
}
);
layerId = "05E54F0F-8425-4B5B-B0EB-B578BBC85A7B";
shapes = (
{
closed = 1;
nodes = (
(638,667,l),
(432,667,l),
(200,403,l),
(250,225,l)
);
},
{
closed = 1;
nodes = (
(250,0,l),
(250,667,l),
(50,667,l),
(50,0,l)
);
},
{
closed = 1;
nodes = (
(630,0,l),
(600,340,o),
(413,415,o),
(413,415,c),
(280,265,l),
(280,265,o),
(400,230,o),
(430,0,c)
);
}
);
width = 651;
},
{
anchors = (
{
name = bottom;
pos = (254,0);
},
{
name = top;
pos = (254,667);
}
);
layerId = m004;
shapes = (
{
closed = 1;
nodes = (
(455,667,l),
(405,667,l),
(140,292,l),
(140,225,l)
);
},
{
closed = 1;
nodes = (
(140,0,l),
(140,667,l),
(90,667,l),
(90,0,l)
);
},
{
closed = 1;
nodes = (
(485,0,l),
(455,260,o),
(237,363,o),
(237,363,c),
(213,330,l),
(213,330,o),
(405,230,o),
(435,0,c)
);
}
);
width = 508;
},
{
anchors = (
{
name = bottom;
pos = (270,0);
},
{
name = top;
pos = (270,667);
}
);
hints = (
{
horizontal = 1;
place = (0,21);
target = up;
type = BottomGhost;
},
{
horizontal = 1;
place = (282,67);
type = Stem;
},
{
horizontal = 1;
place = (598,69);
type = Stem;
},
{
place = (70,100);
type = Stem;
},
{
place = (406,99);
type = Stem;
}
);
layerId = m005;
shapes = (
{
closed = 1;
nodes = (
(498,667,l),
(422,667,l),
(160,323,l),
(160,225,l)
);
},
{
closed = 1;
nodes = (
(160,0,l),
(161,667,l),
(60,667,l),
(60,0,l)
);
},
{
closed = 1;
nodes = (
(525,0,l),
(495,260,o),
(284,395,o),
(284,395,c),
(225,315,l),
(225,315,o),
(380,240,o),
(410,0,c)
);
}
);
width = 540;
},
{
anchors = (
{
name = bottom;
pos = (313,0);
},
{
name = top;
pos = (313,667);
}
);
layerId = m006;
shapes = (
{
closed = 1;
nodes = (
(618,667,l),
(412,667,l),
(180,363,l),
(230,225,l)
);
},
{
closed = 1;
nodes = (
(230,0,l),
(231,667,l),
(30,667,l),
(30,0,l)
);
},
{
closed = 1;
nodes = (
(610,0,l),
(580,340,o),
(364,385,o),
(364,385,c),
(260,265,l),
(260,265,o),
(380,230,o),
(410,0,c)
);
}
);
width = 626;
}
);
metricLeft = "=H";
metricRight = "=H/4";
note = P;
unicode = 75;
userData = {
KernOnName = K;
};
}
{
glyphname = L;
kernLeft = KO_H;
kernRight = KO_L;
layers = (
{
anchors = (
{
name = bottom;
pos = (213,0);
},
{
name = center;
pos = (213,334);
},
{
name = top;
pos = (213,667);
},
{
name = topright;
pos = (405,667);
}
);
hints = (
{
horizontal = 1;
place = (0,75);
type = Stem;
},
{
horizontal = 1;
place = (305,74);
type = Stem;
},
{
horizontal = 1;
place = (592,75);
type = Stem;
},
{
place = (70,100);
type = Stem;
}
);
layerId = m01;
shapes = (
{
closed = 1;
nodes = (
(75,667,l),
(75,0,l),
(425,0,l),
(425,80,l),
(325,80,o),
(275,80,o),
(175,80,c),
(175,667,l)
);
}
);
width = 425;
},
{
anchors = (
{
name = bottom;
pos = (200,0);
},
{
name = center;
pos = (200,334);
},
{
name = top;
pos = (200,667);
},
{
name = topright;
pos = (380,667);
}
);
layerId = "481D16E4-1E98-4559-AE79-559AF135D401";
shapes = (
{
closed = 1;
nodes = (
(100,667,l),
(100,0,l),
(400,0,l),
(400,40,l),
(300,40,o),
(250,40,o),
(150,40,c),
(150,667,l)
);
}
);
width = 400;
},
{
anchors = (
{
name = bottom;
pos = (250,0);
},
{
name = center;
pos = (250,334);
},
{
name = top;
pos = (250,667);
},
{
name = topright;
pos = (480,667);
}
);
layerId = "05E54F0F-8425-4B5B-B0EB-B578BBC85A7B";
shapes = (
{
closed = 1;
nodes = (
(50,667,l),
(50,0,l),
(500,0,l),
(500,120,l),
(400,120,o),
(350,120,o),
(250,120,c),
(250,667,l)
);
}
);
width = 500;
},
{
anchors = (
{
name = bottom;
pos = (195,0);
},
{
name = center;
pos = (195,334);
},
{
name = top;
pos = (195,667);
},
{
name = topright;
pos = (370,667);
}
);
layerId = m004;
shapes = (
{
closed = 1;
nodes = (
(90,667,l),
(90,0,l),
(390,0,l),
(390,25,ls),
(390,50,o),
(315,25,o),
(140,25,c),
(140,667,l)
);
}
);
width = 390;
},
{
anchors = (
{
name = bottom;
pos = (205,0);
},
{
name = center;
pos = (205,334);
},
{
name = top;
pos = (205,667);
},
{
name = topright;
pos = (390,667);
}
);
hints = (
{
horizontal = 1;
place = (0,75);
type = Stem;
},
{
horizontal = 1;
place = (305,74);
type = Stem;
},
{
horizontal = 1;
place = (592,75);
type = Stem;
},
{
place = (70,100);
type = Stem;
}
);
layerId = m005;
shapes = (
{
closed = 1;
nodes = (
(60,667,l),
(60,0,l),
(410,0,l),
(410,50,ls),
(410,100,o),
(335,50,o),
(160,50,c),
(160,667,l)
);
}
);
width = 410;
},
{
anchors = (
{
name = bottom;
pos = (240,0);
},
{
name = center;
pos = (240,334);
},
{
name = top;
pos = (240,667);
},
{
name = topright;
pos = (460,667);
}
);
layerId = m006;
shapes = (
{
closed = 1;
nodes = (
(30,667,l),
(30,0,l),
(480,0,l),
(480,90,ls),
(480,180,o),
(405,90,o),
(230,90,c),
(230,667,l)
);
}
);
width = 480;
},
{
associatedMasterId = "481D16E4-1E98-4559-AE79-559AF135D401";
layerId = "3EF2FCCD-CB93-4CD0-83B9-CF96778F0091";
width = 604.17817;
}
);
metricLeft = "=H";
note = E;
unicode = 76;
userData = {
KernOnName = L;
};
}
{
glyphname = M;
kernLeft = KO_M;
kernRight = KO_M;
layers = (
{
anchors = (
{
name = bottom;
pos = (358,0);
},
{
name = top;
pos = (358,667);
}
);
hints = (
{
horizontal = 1;
place = (0,21);
target = up;
type = BottomGhost;
},
{
place = (35,724);
type = Stem;
},
{
horizontal = 1;
place = (0,150);
type = Stem;
}
);
layerId = m01;
shapes = (
{
closed = 1;
nodes = (
(254,265,o),
(301,66,o),
(308,0,c),
(388,0,l),
(378,90,o),
(313,352,o),
(223,667,c),
(127,667,l),
(93,555,o),
(50,293,o),
(17,0,c),
(117,0,l),
(128,260,o),
(149,459,o),
(175,557,c)
);
},
{
closed = 1;
nodes = (
(567,459,o),
(588,260,o),
(599,0,c),
(699,0,l),
(666,293,o),
(623,555,o),
(589,667,c),
(493,667,l),
(403,352,o),
(338,90,o),
(328,0,c),
(408,0,l),
(415,66,o),
(462,265,o),
(541,557,c)
);
}
);
width = 716;
},
{
anchors = (
{
name = bottom;
pos = (348,0);
},
{
name = top;
pos = (348,667);
}
);
layerId = "481D16E4-1E98-4559-AE79-559AF135D401";
shapes = (
{
closed = 1;
nodes = (
(231,386,o),
(304,169,o),
(320,0,c),
(362,0,l),
(348,211,o),
(244,473,o),
(187,667,c),
(137,667,l),
(83,489,o),
(44,227,o),
(37,0,c),
(87,0,l),
(87,217,o),
(120,455,o),
(162,607,c)
);
},
{
closed = 1;
nodes = (
(576,455,o),
(608,217,o),
(608,0,c),
(658,0,l),
(651,227,o),
(612,489,o),
(558,667,c),
(508,667,l),
(451,473,o),
(347,211,o),
(333,0,c),
(375,0,l),
(391,169,o),
(464,386,o),
(533,607,c)
);
}
);
width = 695;
},
{
anchors = (
{
name = bottom;
pos = (399,0);
},
{
name = top;
pos = (399,667);
}
);
layerId = "05E54F0F-8425-4B5B-B0EB-B578BBC85A7B";
shapes = (
{
closed = 1;
nodes = (
(279,235,o),
(316,85,o),
(324,0,c),
(449,0,l),
(411,256,o),
(353,518,o),
(301,667,c),
(123,667,l),
(75,518,o),
(27,256,o),
(0,0,c),
(200,0,l),
(202,203,o),
(210,354,o),
(222,422,c)
);
},
{
closed = 1;
nodes = (
(588,354,o),
(596,203,o),
(598,0,c),
(798,0,l),
(771,256,o),
(723,518,o),
(675,667,c),
(497,667,l),
(445,518,o),
(387,256,o),
(349,0,c),
(474,0,l),
(482,85,o),
(519,235,o),
(576,422,c)
);
}
);
width = 798;
},
{
anchors = (
{
name = bottom;
pos = (348,0);
},
{
name = top;
pos = (348,667);
}
);
layerId = m004;
shapes = (
{
closed = 1;
nodes = (
(245,379,o),
(307,129,o),
(320,0,c),
(357,0,l),
(336,197,o),
(259,459,o),
(187,667,c),
(137,667,l),
(82,484,o),
(43,222,o),
(37,0,c),
(87,0,l),
(90,248,o),
(123,498,o),
(162,637,c)
);
},
{
closed = 1;
nodes = (
(572,498,o),
(605,248,o),
(608,0,c),
(658,0,l),
(652,222,o),
(613,484,o),
(558,667,c),
(508,667,l),
(436,459,o),
(359,197,o),
(338,0,c),
(375,0,l),
(388,129,o),
(450,379,o),
(533,637,c)
);
}
);
width = 695;
},
{
anchors = (
{
name = bottom;
pos = (358,0);
},
{
name = top;
pos = (358,667);
}
);
hints = (
{
horizontal = 1;
place = (0,21);
target = up;
type = BottomGhost;
},
{
place = (35,724);
type = Stem;
},
{
horizontal = 1;
place = (0,150);
type = Stem;
}
);
layerId = m005;
shapes = (
{
closed = 1;
nodes = (
(252,301,o),
(299,92,o),
(308,0,c),
(388,0,l),
(369,120,o),
(304,382,o),
(223,667,c),
(127,667,l),
(93,555,o),
(50,293,o),
(17,0,c),
(117,0,l),
(129,283,o),
(150,492,o),
(175,587,c)
);
},
{
closed = 1;
nodes = (
(566,492,o),
(587,283,o),
(599,0,c),
(699,0,l),
(666,293,o),
(623,555,o),
(589,667,c),
(493,667,l),
(412,382,o),
(347,120,o),
(328,0,c),
(408,0,l),
(417,92,o),
(464,301,o),
(541,587,c)
);
}
);
width = 716;
},
{
anchors = (
{
name = bottom;
pos = (399,0);
},
{
name = top;
pos = (399,667);
}
);
layerId = m006;
shapes = (
{
closed = 1;
nodes = (
(279,308,o),
(315,132,o),
(324,0,c),
(449,0,l),
(411,256,o),
(353,518,o),
(301,667,c),
(123,667,l),
(75,518,o),
(27,256,o),
(0,0,c),
(200,0,l),
(200,242,o),
(208,418,o),
(222,492,c)
);
},
{
closed = 1;
nodes = (
(590,418,o),
(598,242,o),
(598,0,c),
(798,0,l),
(771,256,o),
(723,518,o),
(675,667,c),
(497,667,l),
(445,518,o),
(387,256,o),
(349,0,c),
(474,0,l),
(483,132,o),
(519,308,o),
(576,492,c)
);
}
);
width = 798;
}
);
metricLeft = "=V";
metricRight = "=V";
note = W;
unicode = 77;
userData = {
KernOnName = M;
};
}
{
glyphname = Q;
kernLeft = KO_O;
kernRight = KO_O;
layers = (
{
anchors = (
{
name = bottom;
pos = (290,0);
},
{
name = top;
pos = (290,667);
}
);
hints = (
{
horizontal = 1;
place = (-200,70);
type = Stem;
},
{
horizontal = 1;
place = (-7,21);
target = up;
type = BottomGhost;
},
{
horizontal = 1;
place = (597,80);
type = Stem;
},
{
place = (35,110);
type = Stem;
},
{
place = (425,110);
type = Stem;
},
{
horizontal = 1;
place = (-7,77);
type = Stem;
}
);
layerId = m01;
shapes = (
{
ref = O;
},
{
closed = 1;
nodes = (
(240,0,l),
(240,-121,o),
(324,-200,o),
(454,-200,c),
(454,-177,o),
(454,-153,o),
(454,-130,c),
(374,-130,o),
(330,-84,o),
(330,0,c)
);
}
);
width = 580;
},
{
anchors = (
{
name = bottom;
pos = (282,0);
},
{
name = top;
pos = (282,667);
}
);
layerId = "481D16E4-1E98-4559-AE79-559AF135D401";
shapes = (
{
ref = O;
},
{
closed = 1;
nodes = (
(250,0,l),
(250,-121,o),
(322,-200,o),
(434,-200,c),
(434,-187,o),
(434,-173,o),
(434,-160,c),
(348,-160,o),
(300,-103,o),
(300,0,c)
);
}
);
width = 564;
},
{
anchors = (
{
name = bottom;
pos = (323,0);
},
{
name = top;
pos = (323,667);
}
);
layerId = "05E54F0F-8425-4B5B-B0EB-B578BBC85A7B";
shapes = (
{
ref = O;
},
{
closed = 1;
nodes = (
(235,0,l),
(235,-121,o),
(339,-200,o),
(499,-200,c),
(499,-158,o),
(499,-117,o),
(499,-75,c),
(426,-75,o),
(385,-48,o),
(385,0,c)
);
}
);
width = 646;
},
{
anchors = (
{
name = bottom;
pos = (275,0);
},
{
name = top;
pos = (275,667);
}
);
layerId = m004;
shapes = (
{
ref = O;
},
{
closed = 1;
nodes = (
(250,0,l),
(250,-121,o),
(322,-200,o),
(434,-200,c),
(459,-200,o),
(459,-175,o),
(434,-175,c),
(348,-175,o),
(300,-112,o),
(300,0,c)
);
}
);
width = 550;
},
{
anchors = (
{
name = bottom;
pos = (285,0);
},
{
name = top;
pos = (285,667);
}
);
hints = (
{
horizontal = 1;
place = (-200,70);
type = Stem;
},
{
horizontal = 1;
place = (-7,21);
target = up;
type = BottomGhost;
},
{
horizontal = 1;
place = (597,80);
type = Stem;
},
{
place = (35,110);
type = Stem;
},
{
place = (425,110);
type = Stem;
},
{
horizontal = 1;
place = (-7,77);
type = Stem;
}
);
layerId = m005;
shapes = (
{
ref = O;
},
{
closed = 1;
nodes = (
(240,0,l),
(240,-121,o),
(324,-200,o),
(454,-200,cs),
(504,-200,o),
(504,-150,o),
(454,-150,cs),
(374,-150,o),
(330,-96,o),
(330,0,c)
);
}
);
width = 570;
},
{
anchors = (
{
name = bottom;
pos = (310,0);
},
{
name = top;
pos = (310,667);
}
);
layerId = m006;
shapes = (
{
ref = O;
},
{
closed = 1;
nodes = (
(235,0,l),
(235,-121,o),
(339,-200,o),
(499,-200,cs),
(574,-200,o),
(574,-110,o),
(499,-110,cs),
(426,-110,o),
(385,-71,o),
(385,0,c)
);
}
);
width = 620;
}
);
metricLeft = "=O";
metricRight = "=O";
note = Q;
unicode = 81;
}
{
glyphname = R;
kernLeft = KO_H;
kernRight = KO_R;
layers = (
{
anchors = (
{
name = bottom;
pos = (282,0);
},
{
name = top;
pos = (282,667);
}
);
hints = (
{
horizontal = 1;
place = (0,21);
target = up;
type = BottomGhost;
},
{
horizontal = 1;
place = (282,67);
type = Stem;
},
{
horizontal = 1;
place = (598,69);
type = Stem;
},
{
place = (70,100);
type = Stem;
},
{
place = (406,99);
type = Stem;
}
);
layerId = m01;
shapes = (
{
closed = 1;
nodes = (
(175,0,l),
(175,300,l),
(270,300,ls),
(424,300,o),
(510,366,o),
(510,484,cs),
(510,602,o),
(424,667,o),
(270,667,cs),
(75,667,l),
(75,0,l)
);
},
{
closed = 1;
nodes = (
(525,0,l),
(495,230,o),
(362,309,o),
(362,309,c),
(265,302,l),
(265,302,o),
(395,210,o),
(425,0,c)
);
},
{
closed = 1;
nodes = (
(176,587,l),
(271,587,ls),
(366,587,o),
(411,554,o),
(411,484,cs),
(411,413,o),
(366,380,o),
(271,380,cs),
(176,380,l)
);
}
);
width = 563;
},
{
anchors = (
{
name = bottom;
pos = (273,0);
},
{
name = top;
pos = (273,667);
}
);
layerId = "481D16E4-1E98-4559-AE79-559AF135D401";
shapes = (
{
closed = 1;
nodes = (
(150,0,l),
(150,320,l),
(270,320,ls),
(416,320,o),
(485,376,o),
(485,495,cs),
(485,612,o),
(416,667,o),
(270,667,cs),
(100,667,l),
(100,0,l)
);
},
{
closed = 1;
nodes = (
(495,0,l),
(465,245,o),
(332,327,o),
(332,327,c),
(285,320,l),
(285,320,o),
(415,235,o),
(445,0,c)
);
},
{
closed = 1;
nodes = (
(151,627,l),
(271,627,ls),
(383,627,o),
(436,584,o),
(436,494,cs),
(436,403,o),
(383,360,o),
(271,360,cs),
(151,360,l)
);
}
);
width = 545;
},
{
anchors = (
{
name = bottom;
pos = (328,0);
},
{
name = top;
pos = (328,667);
}
);
layerId = "05E54F0F-8425-4B5B-B0EB-B578BBC85A7B";
shapes = (
{
closed = 1;
nodes = (
(250,0,l),
(250,260,l),
(295,260,ls),
(481,260,o),
(585,334,o),
(585,467,cs),
(585,596,o),
(481,667,o),
(295,667,cs),
(50,667,l),
(50,0,l)
);
},
{
closed = 1;
nodes = (
(630,0,l),
(600,230,o),
(467,291,o),
(467,291,c),
(270,260,l),
(270,260,o),
(400,210,o),
(430,0,c)
);
},
{
closed = 1;
nodes = (
(251,527,l),
(296,527,ls),
(357,527,o),
(386,508,o),
(386,467,cs),
(386,428,o),
(357,410,o),
(296,410,cs),
(251,410,l)
);
}
);
width = 655;
},
{
anchors = (
{
name = bottom;
pos = (265,0);
},
{
name = top;
pos = (265,667);
}
);
layerId = m004;
shapes = (
{
closed = 1;
nodes = (
(140,0,l),
(140,320,l),
(260,320,ls),
(406,320,o),
(475,376,o),
(475,495,cs),
(475,612,o),
(406,667,o),
(260,667,cs),
(90,667,l),
(90,0,l)
);
},
{
closed = 1;
nodes = (
(485,0,l),
(455,245,o),
(322,327,o),
(322,327,c),
(275,320,l),
(275,320,o),
(405,235,o),
(435,0,c)
);
},
{
closed = 1;
nodes = (
(141,637,l),
(261,637,ls),
(373,637,o),
(426,591,o),
(426,494,cs),
(426,396,o),
(373,350,o),
(261,350,cs),
(141,350,l)
);
}
);
width = 530;
},
{
anchors = (
{
name = bottom;
pos = (270,0);
},
{
name = top;
pos = (270,667);
}
);
hints = (
{
horizontal = 1;
place = (0,21);
target = up;
type = BottomGhost;
},
{
horizontal = 1;
place = (282,67);
type = Stem;
},
{
horizontal = 1;
place = (598,69);
type = Stem;
},
{
place = (70,100);
type = Stem;
},
{
place = (406,99);
type = Stem;
}
);
layerId = m005;
shapes = (
{
closed = 1;
nodes = (
(160,0,l),
(160,315,l),
(255,315,ls),
(409,315,o),
(495,378,o),
(495,491,cs),
(495,604,o),
(409,667,o),
(255,667,cs),
(60,667,l),
(60,0,l)
);
},
{
closed = 1;
nodes = (
(510,0,l),
(480,230,o),
(347,325,o),
(347,325,c),
(250,315,l),
(250,318,o),
(380,210,o),
(410,0,c)
);
},
{
closed = 1;
nodes = (
(161,617,l),
(256,617,ls),
(351,617,o),
(396,577,o),
(396,491,cs),
(396,406,o),
(351,365,o),
(256,365,cs),
(161,365,l)
);
}
);
width = 540;
},
{
anchors = (
{
name = bottom;
pos = (313,0);
},
{
name = top;
pos = (313,667);
}
);
layerId = m006;
shapes = (
{
closed = 1;
nodes = (
(230,0,l),
(230,295,l),
(275,295,ls),
(461,295,o),
(565,361,o),
(565,481,cs),
(565,601,o),
(461,667,o),
(275,667,cs),
(30,667,l),
(30,0,l)
);
},
{
closed = 1;
nodes = (
(610,0,l),
(580,230,o),
(447,328,o),
(447,328,c),
(250,300,l),
(250,300,o),
(380,210,o),
(410,0,c)
);
},
{
closed = 1;
nodes = (
(231,577,l),
(276,577,ls),
(337,577,o),
(366,546,o),
(366,481,cs),
(366,416,o),
(337,385,o),
(276,385,cs),
(231,385,l)
);
}
);
width = 625;
}
);
metricLeft = "=H";
metricRight = "=H/2";
note = P;
unicode = 82;
userData = {
KernOnName = R;
};
}
{
glyphname = T;
kernLeft = KO_T;
kernRight = KO_T;
layers = (
{
anchors = (
{
name = bottom;
pos = (250,0);
},
{
name = center;
pos = (250,334);
},
{
name = top;
pos = (250,667);
}
);
hints = (
{
horizontal = 1;
place = (0,21);
target = up;
type = BottomGhost;
},
{
place = (70,100);
type = Stem;
}
);
layerId = m01;
shapes = (
{
closed = 1;
nodes = (
(300,667,l),
(200,667,l),
(200,0,l),
(300,0,l)
);
},
{
closed = 1;
nodes = (
(25,587,l),
(83,587,o),
(141,587,o),
(200,587,c),
(300,587,l),
(358,587,o),
(416,587,o),
(475,587,c),
(475,667,l),
(25,667,l)
);
}
);
width = 500;
},
{
anchors = (
{
name = bottom;
pos = (234,0);
},
{
name = center;
pos = (234,334);
},
{
name = top;
pos = (234,667);
}
);
layerId = "481D16E4-1E98-4559-AE79-559AF135D401";
shapes = (
{
closed = 1;
nodes = (
(259,667,l),
(209,667,l),
(209,0,l),
(259,0,l)
);
},
{
closed = 1;
nodes = (
(34,627,l),
(92,627,o),
(151,627,o),
(209,627,c),
(259,627,l),
(317,627,o),
(376,627,o),
(434,627,c),
(434,667,l),
(34,667,l)
);
}
);
width = 468;
},
{
anchors = (
{
name = bottom;
pos = (292,0);
},
{
name = center;
pos = (292,334);
},
{
name = top;
pos = (292,667);
}
);
layerId = "05E54F0F-8425-4B5B-B0EB-B578BBC85A7B";
shapes = (
{
closed = 1;
nodes = (
(392,667,l),
(192,667,l),
(192,0,l),
(392,0,l)
);
},
{
closed = 1;
nodes = (
(17,517,l),
(75,517,o),
(134,517,o),
(192,517,c),
(392,517,l),
(450,517,o),
(509,517,o),
(567,517,c),
(567,667,l),
(17,667,l)
);
}
);
width = 584;
},
{
anchors = (
{
name = bottom;
pos = (230,0);
},
{
name = center;
pos = (230,334);
},
{
name = top;
pos = (230,667);
}
);
layerId = m004;
shapes = (
{
closed = 1;
nodes = (
(255,667,l),
(205,667,l),
(205,0,l),
(255,0,l)
);
},
{
closed = 1;
nodes = (
(30,642,l),
(30,617,o),
(74,642,o),
(205,642,c),
(255,642,l),
(386,642,o),
(430,617,o),
(430,642,c),
(430,667,l),
(30,667,l)
);
}
);
width = 460;
},
{
anchors = (
{
name = bottom;
pos = (248,0);
},
{
name = center;
pos = (248,334);
},
{
name = top;
pos = (248,667);
}
);
hints = (
{
horizontal = 1;
place = (0,21);
target = up;
type = BottomGhost;
},
{
place = (70,100);
type = Stem;
}
);
layerId = m005;
shapes = (
{
closed = 1;
nodes = (
(298,667,l),
(198,667,l),
(198,0,l),
(298,0,l)
);
},
{
closed = 1;
nodes = (
(23,617,l),
(23,567,o),
(67,617,o),
(198,617,c),
(298,617,l),
(429,617,o),
(473,567,o),
(473,617,c),
(473,667,l),
(23,667,l)
);
}
);
width = 496;
},
{
anchors = (
{
name = bottom;
pos = (285,0);
},
{
name = center;
pos = (285,334);
},
{
name = top;
pos = (285,667);
}
);
layerId = m006;
shapes = (
{
closed = 1;
nodes = (
(385,667,l),
(185,667,l),
(185,0,l),
(385,0,l)
);
},
{
closed = 1;
nodes = (
(10,577,l),
(10,457,o),
(54,577,o),
(185,577,c),
(385,577,l),
(516,577,o),
(560,457,o),
(560,577,c),
(560,667,l),
(10,667,l)
);
}
);
width = 570;
},
{
associatedMasterId = "481D16E4-1E98-4559-AE79-559AF135D401";
layerId = "3EF2FCCD-CB93-4CD0-83B9-CF96778F0091";
width = 613.674;
}
);
metricLeft = "=O/2";
metricRight = "=O/2";
note = I;
unicode = 84;
userData = {
KernOnName = T;
};
}
{
glyphname = V;
kernLeft = KO_V;
kernRight = KO_V;
layers = (
{
anchors = (
{
name = bottom;
pos = (275,0);
},
{
name = top;
pos = (275,667);
}
);
hints = (
{
horizontal = 1;
place = (0,21);
target = up;
type = BottomGhost;
},
{
horizontal = 1;
place = (150,75);
type = Stem;
},
{
horizontal = 1;
place = (557,110);
type = Stem;
},
{
place = (12,516);
type = Stem;
}
);
layerId = m01;
shapes = (
{
closed = 1;
nodes = (
(217,259,o),
(164,458,o),
(127,667,c),
(17,667,l),
(63,463,o),
(143,201,o),
(225,0,c),
(325,0,l),
(407,201,o),
(487,463,o),
(533,667,c),
(423,667,l),
(386,458,o),
(333,259,o),
(275,110,c)
);
}
);
width = 550;
},
{
anchors = (
{
name = bottom;
pos = (275,0);
},
{
name = top;
pos = (275,667);
}
);
layerId = "481D16E4-1E98-4559-AE79-559AF135D401";
shapes = (
{
closed = 1;
nodes = (
(187,285,o),
(121,502,o),
(92,667,c),
(37,667,l),
(81,474,o),
(164,212,o),
(250,0,c),
(300,0,l),
(386,212,o),
(469,474,o),
(513,667,c),
(458,667,l),
(429,502,o),
(363,285,o),
(275,60,c)
);
}
);
width = 550;
},
{
anchors = (
{
name = bottom;
pos = (312,0);
},
{
name = top;
pos = (312,667);
}
);
layerId = "05E54F0F-8425-4B5B-B0EB-B578BBC85A7B";
shapes = (
{
closed = 1;
nodes = (
(262,393,o),
(226,544,o),
(210,667,c),
(0,667,l),
(35,507,o),
(121,245,o),
(222,0,c),
(402,0,l),
(503,245,o),
(589,507,o),
(624,667,c),
(414,667,l),
(398,544,o),
(362,393,o),
(312,245,c)
);
}
);
width = 624;
},
{
anchors = (
{
name = bottom;
pos = (275,0);
},
{
name = top;
pos = (275,667);
}
);
layerId = m004;
shapes = (
{
closed = 1;
nodes = (
(193,239,o),
(128,467,o),
(92,667,c),
(37,667,l),
(81,474,o),
(164,212,o),
(250,0,c),
(300,0,l),
(386,212,o),
(469,474,o),
(513,667,c),
(458,667,l),
(422,467,o),
(357,239,o),
(275,30,c)
);
}
);
width = 550;
},
{
anchors = (
{
name = bottom;
pos = (275,0);
},
{
name = top;
pos = (275,667);
}
);
hints = (
{
horizontal = 1;
place = (0,21);
target = up;
type = BottomGhost;
},
{
horizontal = 1;
place = (150,75);
type = Stem;
},
{
horizontal = 1;
place = (557,110);
type = Stem;
},
{
place = (12,516);
type = Stem;
}
);
layerId = m005;
shapes = (
{
closed = 1;
nodes = (
(226,206,o),
(168,437,o),
(127,667,c),
(17,667,l),
(63,463,o),
(143,201,o),
(225,0,c),
(325,0,l),
(407,201,o),
(487,463,o),
(533,667,c),
(423,667,l),
(382,437,o),
(324,206,o),
(275,80,c)
);
}
);
width = 550;
},
{
anchors = (
{
name = bottom;
pos = (312,0);
},
{
name = top;
pos = (312,667);
}
);
layerId = m006;
shapes = (
{
closed = 1;
nodes = (
(278,277,o),
(242,452,o),
(210,667,c),
(0,667,l),
(36,503,o),
(123,241,o),
(222,0,c),
(402,0,l),
(501,241,o),
(588,503,o),
(624,667,c),
(414,667,l),
(382,452,o),
(346,277,o),
(312,175,c)
);
}
);
width = 624;
}
);
note = A;
unicode = 86;
userData = {
KernOnName = V;
};
}
{
glyphname = W;
kernLeft = KO_W;
kernRight = KO_W;
layers = (
{
anchors = (
{
name = bottom;
pos = (383,0);
},
{
name = top;
pos = (383,667);
}
);
hints = (
{
horizontal = 1;
place = (0,21);
target = up;
type = BottomGhost;
},
{
place = (35,724);
type = Stem;
},
{
horizontal = 1;
place = (0,150);
type = Stem;
}
);
layerId = m01;
shapes = (
{
closed = 1;
nodes = (
(589,0,l),
(655,220,o),
(718,482,o),
(749,667,c),
(649,667,l),
(632,502,o),
(593,303,o),
(541,110,c),
(489,303,o),
(450,502,o),
(433,667,c),
(353,667,l),
(380,430,o),
(445,168,o),
(493,0,c)
);
},
{
closed = 1;
nodes = (
(273,0,l),
(321,168,o),
(386,430,o),
(413,667,c),
(333,667,l),
(316,502,o),
(277,303,o),
(225,110,c),
(173,303,o),
(134,502,o),
(117,667,c),
(17,667,l),
(48,482,o),
(111,220,o),
(177,0,c)
);
}
);
width = 766;
},
{
anchors = (
{
name = bottom;
pos = (386,0);
},
{
name = top;
pos = (386,667);
}
);
layerId = "481D16E4-1E98-4559-AE79-559AF135D401";
shapes = (
{
closed = 1;
nodes = (
(571,0,l),
(640,228,o),
(704,490,o),
(734,667,c),
(679,667,l),
(663,523,o),
(615,306,o),
(546,60,c),
(477,306,o),
(429,523,o),
(413,667,c),
(371,667,l),
(385,456,o),
(464,194,o),
(521,0,c)
);
},
{
closed = 1;
nodes = (
(250,0,l),
(307,194,o),
(386,456,o),
(400,667,c),
(358,667,l),
(342,523,o),
(294,306,o),
(225,60,c),
(156,306,o),
(108,523,o),
(92,667,c),
(37,667,l),
(67,490,o),
(131,228,o),
(200,0,c)
);
}
);
width = 771;
},
{
anchors = (
{
name = bottom;
pos = (424,0);
},
{
name = top;
pos = (424,667);
}
);
layerId = "05E54F0F-8425-4B5B-B0EB-B578BBC85A7B";
shapes = (
{
closed = 1;
nodes = (
(675,0,l),
(753,244,o),
(821,506,o),
(848,667,c),
(648,667,l),
(637,556,o),
(615,405,o),
(586,245,c),
(557,405,o),
(535,556,o),
(524,667,c),
(374,667,l),
(415,385,o),
(463,123,o),
(497,0,c)
);
},
{
closed = 1;
nodes = (
(351,0,l),
(385,123,o),
(433,385,o),
(474,667,c),
(324,667,l),
(313,556,o),
(291,405,o),
(262,245,c),
(233,405,o),
(211,556,o),
(200,667,c),
(0,667,l),
(27,506,o),
(95,244,o),
(173,0,c)
);
}
);
width = 848;
},
{
anchors = (
{
name = bottom;
pos = (386,0);
},
{
name = top;
pos = (386,667);
}
);
layerId = m004;
shapes = (
{
closed = 1;
nodes = (
(571,0,l),
(640,228,o),
(704,490,o),
(734,667,c),
(679,667,l),
(662,500,o),
(614,273,o),
(546,30,c),
(468,273,o),
(430,500,o),
(413,667,c),
(376,667,l),
(411,443,o),
(458,181,o),
(521,0,c)
);
},
{
closed = 1;
nodes = (
(250,0,l),
(303,181,o),
(360,443,o),
(395,667,c),
(358,667,l),
(341,500,o),
(293,273,o),
(225,30,c),
(157,273,o),
(109,500,o),
(92,667,c),
(37,667,l),
(67,490,o),
(131,228,o),
(200,0,c)
);
}
);
width = 771;
},
{
anchors = (
{
name = bottom;
pos = (383,0);
},
{
name = top;
pos = (383,667);
}
);
hints = (
{
horizontal = 1;
place = (0,21);
target = up;
type = BottomGhost;
},
{
place = (35,724);
type = Stem;
},
{
horizontal = 1;
place = (0,150);
type = Stem;
}
);
layerId = m005;
shapes = (
{
closed = 1;
nodes = (
(589,0,l),
(655,220,o),
(718,482,o),
(749,667,c),
(649,667,l),
(631,480,o),
(592,270,o),
(541,80,c),
(490,270,o),
(451,480,o),
(433,667,c),
(353,667,l),
(390,430,o),
(445,168,o),
(493,0,c)
);
},
{
closed = 1;
nodes = (
(273,0,l),
(321,168,o),
(376,430,o),
(413,667,c),
(333,667,l),
(315,480,o),
(276,270,o),
(225,80,c),
(174,270,o),
(135,480,o),
(117,667,c),
(17,667,l),
(48,482,o),
(111,220,o),
(177,0,c)
);
}
);
width = 766;
},
{
anchors = (
{
name = bottom;
pos = (424,0);
},
{
name = top;
pos = (424,667);
}
);
layerId = m006;
shapes = (
{
closed = 1;
nodes = (
(675,0,l),
(753,244,o),
(821,506,o),
(848,667,c),
(648,667,l),
(637,509,o),
(615,334,o),
(586,175,c),
(557,334,o),
(535,509,o),
(524,667,c),
(374,667,l),
(415,385,o),
(463,123,o),
(497,0,c)
);
},
{
closed = 1;
nodes = (
(351,0,l),
(385,123,o),
(433,385,o),
(474,667,c),
(324,667,l),
(313,509,o),
(291,334,o),
(262,175,c),
(233,334,o),
(211,509,o),
(200,667,c),
(0,667,l),
(27,506,o),
(95,244,o),
(173,0,c)
);
}
);
width = 848;
}
);
metricLeft = "=V";
metricRight = "=V";
note = W;
unicode = 87;
userData = {
KernOnName = W;
};
}
{
glyphname = bracketleft;
kernRight = KO_bracketleft;
layers = (
{
hints = (
{
horizontal = 1;
place = (-71,70);
type = Stem;
},
{
horizontal = 1;
place = (667,70);
type = Stem;
},
{
place = (80,80);
type = Stem;
}
);
layerId = m01;
shapes = (
{
closed = 1;
nodes = (
(270,-91,l),
(270,-16,l),
(170,-16,l),
(170,682,l),
(270,682,l),
(270,757,l),
(70,757,l),
(70,-91,l)
);
}
);
width = 298;
},
{
layerId = "481D16E4-1E98-4559-AE79-559AF135D401";
shapes = (
{
closed = 1;
nodes = (
(250,-65,l),
(250,-25,l),
(150,-25,l),
(150,692,l),
(250,692,l),
(250,732,l),
(100,732,l),
(100,-65,l)
);
}
);
width = 300;
},
{
layerId = "05E54F0F-8425-4B5B-B0EB-B578BBC85A7B";
shapes = (
{
closed = 1;
nodes = (
(300,-126,l),
(300,-1,l),
(200,-1,l),
(200,667,l),
(300,667,l),
(300,792,l),
(50,792,l),
(50,-126,l)
);
}
);
width = 325;
},
{
layerId = m004;
shapes = (
{
closed = 1;
nodes = (
(240,-65,l),
(240,-40,l),
(140,-40,l),
(140,707,l),
(240,707,l),
(240,732,l),
(90,732,l),
(90,-65,l)
);
}
);
width = 285;
},
{
hints = (
{
horizontal = 1;
place = (-71,70);
type = Stem;
},
{
horizontal = 1;
place = (667,70);
type = Stem;
},
{
place = (80,80);
type = Stem;
}
);
layerId = m005;
shapes = (
{
closed = 1;
nodes = (
(260,-86,l),
(260,-36,l),
(160,-36,l),
(160,702,l),
(260,702,l),
(260,752,l),
(60,752,l),
(60,-86,l)
);
}
);
width = 290;
},
{
layerId = m006;
shapes = (
{
closed = 1;
nodes = (
(280,-101,l),
(280,-26,l),
(180,-26,l),
(180,692,l),
(280,692,l),
(280,767,l),
(30,767,l),
(30,-101,l)
);
}
);
width = 295;
}
);
metricLeft = "=n";
metricRight = "=n/2";
note = bracketleft;
unicode = 91;
userData = {
KernOnSpecialSpacing = {
L = NoKerning;
R = parenthesis;
};
};
}
{
glyphname = asciicircum;
kernRight = KO_asciicircum;
layers = (
{
hints = (
{
horizontal = 1;
place = (500,300);
type = Stem;
},
{
place = (80,351);
type = Stem;
}
);
layerId = m01;
shapes = (
{
closed = 1;
nodes = (
(158,400,l),
(263,620,l),
(368,400,l),
(439,400,l),
(298,700,l),
(229,700,l),
(88,400,l)
);
}
);
width = 525;
},
{
layerId = "481D16E4-1E98-4559-AE79-559AF135D401";
shapes = (
{
closed = 1;
nodes = (
(186,400,l),
(300,639,l),
(414,400,l),
(467,400,l),
(326,700,l),
(275,700,l),
(134,400,l)
);
}
);
width = 600;
},
{
layerId = "05E54F0F-8425-4B5B-B0EB-B578BBC85A7B";
shapes = (
{
closed = 1;
nodes = (
(179,400,l),
(263,577,l),
(347,400,l),
(460,400,l),
(319,700,l),
(208,700,l),
(67,400,l)
);
}
);
width = 500;
},
{
layerId = m004;
shapes = (
{
closed = 1;
nodes = (
(176,400,l),
(290,639,l),
(404,400,l),
(457,400,l),
(316,700,l),
(265,700,l),
(124,400,l)
);
}
);
width = 580;
},
{
hints = (
{
horizontal = 1;
place = (500,300);
type = Stem;
},
{
place = (80,351);
type = Stem;
}
);
layerId = m005;
shapes = (
{
closed = 1;
nodes = (
(155,400,l),
(260,620,l),
(365,400,l),
(436,400,l),
(295,700,l),
(226,700,l),
(85,400,l)
);
}
);
width = 520;
},
{
layerId = m006;
shapes = (
{
closed = 1;
nodes = (
(146,400,l),
(230,577,l),
(314,400,l),
(427,400,l),
(286,700,l),
(175,700,l),
(34,400,l)
);
}
);
width = 460;
},
{
associatedMasterId = "481D16E4-1E98-4559-AE79-559AF135D401";
layerId = "3EF2FCCD-CB93-4CD0-83B9-CF96778F0091";
width = 603.38052;
}
);
note = asciicircum;
unicode = 94;
userData = {
KernOnSpecialSpacing = {
L = math;
R = math;
};
};
}
{
glyphname = underscore;
kernLeft = KO_underscore;
kernRight = KO_underscore;
layers = (
{
hints = (
{
horizontal = 1;
place = (-75,64);
type = Stem;
},
{
place = (80,400);
type = Stem;
}
);
layerId = m01;
shapes = (
{
closed = 1;
nodes = (
(460,-40,l),
(70,-40,l),
(70,-120,l),
(460,-120,l)
);
}
);
width = 515;
},
{
layerId = "481D16E4-1E98-4559-AE79-559AF135D401";
shapes = (
{
closed = 1;
nodes = (
(440,-40,l),
(100,-40,l),
(100,-80,l),
(440,-80,l)
);
}
);
width = 540;
},
{
layerId = "05E54F0F-8425-4B5B-B0EB-B578BBC85A7B";
shapes = (
{
closed = 1;
nodes = (
(540,-40,l),
(50,-40,l),
(50,-165,l),
(540,-165,l)
);
}
);
width = 590;
},
{
layerId = m004;
shapes = (
{
closed = 1;
nodes = (
(430,-40,l),
(90,-40,l),
(90,-80,l),
(430,-80,l)
);
}
);
width = 520;
},
{
hints = (
{
horizontal = 1;
place = (-75,64);
type = Stem;
},
{
place = (80,400);
type = Stem;
}
);
layerId = m005;
shapes = (
{
closed = 1;
nodes = (
(450,-40,l),
(60,-40,l),
(60,-90,l),
(450,-90,l)
);
}
);
width = 510;
},
{
layerId = m006;
shapes = (
{
closed = 1;
nodes = (
(520,-40,l),
(30,-40,l),
(30,-115,l),
(520,-115,l)
);
}
);
width = 550;
}
);
metricLeft = "=n";
metricRight = "=n";
note = underscore;
unicode = 95;
userData = {
KernOnName = underscore;
KernOnSpecialSpacing = {
L = underscore;
R = underscore;
};
};
}
{
glyphname = grave;
layers = (
{
hints = (
{
horizontal = 1;
place = (575,165);
type = Stem;
},
{
place = (147,205);
type = Stem;
}
);
layerId = m01;
shapes = (
{
ref = gravecomb;
}
);
width = 500;
},
{
layerId = "481D16E4-1E98-4559-AE79-559AF135D401";
shapes = (
{
ref = gravecomb;
}
);
width = 500;
},
{
layerId = "05E54F0F-8425-4B5B-B0EB-B578BBC85A7B";
shapes = (
{
ref = gravecomb;
}
);
width = 498;
},
{
layerId = m004;
shapes = (
{
ref = gravecomb;
}
);
width = 500;
},
{
hints = (
{
horizontal = 1;
place = (575,165);
type = Stem;
},
{
place = (147,205);
type = Stem;
}
);
layerId = m005;
shapes = (
{
ref = gravecomb;
}
);
width = 500;
},
{
layerId = m006;
shapes = (
{
ref = gravecomb;
}
);
width = 498;
},
{
associatedMasterId = "481D16E4-1E98-4559-AE79-559AF135D401";
hints = (
{
horizontal = 1;
place = (-22,-6);
type = Stem;
},
{
place = (-6,-8);
type = Stem;
}
);
layerId = "3EF2FCCD-CB93-4CD0-83B9-CF96778F0091";
shapes = (
{
closed = 1;
nodes = (
(194,709,l),
(178,681,l),
(309,605,l),
(322,627,l)
);
}
);
width = 499.99304;
}
);
note = grave;
unicode = 96;
}
{
glyphname = e;
kernLeft = KO_e;
kernRight = KO_e;
layers = (
{
anchors = (
{
name = bottom;
pos = (245,0);
},
{
name = ogonek;
pos = (397,25);
},
{
name = top;
pos = (245,500);
}
);
hints = (
{
horizontal = 1;
place = (-10,75);
type = Stem;
},
{
horizontal = 1;
place = (215,65);
type = Stem;
},
{
horizontal = 1;
place = (440,70);
type = Stem;
},
{
place = (40,100);
type = Stem;
},
{
place = (325,100);
type = Stem;
}
);
layerId = m01;
shapes = (
{
closed = 1;
nodes = (
(330,-10,o),
(397,25,o),
(397,25,c),
(390,48,o),
(382,72,o),
(375,95,c),
(375,95,o),
(330,65,o),
(245,65,cs),
(155,65,o),
(140,127,o),
(140,218,c),
(425,218,l),
(425,300,ls),
(425,405,o),
(391,510,o),
(245,510,cs),
(85,510,o),
(40,405,o),
(40,300,cs),
(40,200,ls),
(40,95,o),
(85,-10,o),
(245,-10,cs)
);
},
{
closed = 1;
nodes = (
(140,300,ls),
(140,373,o),
(155,440,o),
(245,440,cs),
(314,440,o),
(325,373,o),
(325,300,cs),
(325,288,l),
(140,288,l)
);
}
);
width = 465;
},
{
anchors = (
{
name = bottom;
pos = (247,0);
},
{
name = ogonek;
pos = (366,18);
},
{
name = top;
pos = (247,500);
}
);
layerId = "481D16E4-1E98-4559-AE79-559AF135D401";
shapes = (
{
closed = 1;
nodes = (
(281,-10,o),
(324,0,o),
(366,18,c),
(363,31,o),
(359,44,o),
(356,57,c),
(323,40,o),
(288,30,o),
(247,30,cs),
(129,30,o),
(117,106,o),
(117,233,c),
(402,233,l),
(402,318,ls),
(402,421,o),
(373,510,o),
(247,510,cs),
(105,510,o),
(67,421,o),
(67,318,cs),
(67,182,ls),
(67,79,o),
(105,-10,o),
(247,-10,cs)
);
},
{
closed = 1;
nodes = (
(117,318,ls),
(117,395,o),
(136,475,o),
(247,475,cs),
(339,475,o),
(352,395,o),
(352,318,cs),
(352,273,l),
(117,273,l)
);
}
);
width = 469;
},
{
anchors = (
{
name = bottom;
pos = (288,0);
},
{
name = ogonek;
pos = (494,40);
},
{
name = top;
pos = (288,500);
}
);
layerId = "05E54F0F-8425-4B5B-B0EB-B578BBC85A7B";
shapes = (
{
closed = 1;
nodes = (
(413,-10,o),
(494,40,o),
(494,40,c),
(483,77,o),
(471,113,o),
(460,150,c),
(460,150,o),
(388,115,o),
(318,115,cs),
(247,115,o),
(233,143,o),
(233,200,c),
(518,200,l),
(518,282,ls),
(518,437,o),
(461,510,o),
(288,510,cs),
(115,510,o),
(33,437,o),
(33,282,cs),
(33,218,ls),
(33,63,o),
(115,-10,o),
(288,-10,cs)
);
},
{
closed = 1;
nodes = (
(233,305,ls),
(233,359,o),
(247,385,o),
(288,385,cs),
(329,385,o),
(343,359,o),
(343,305,cs),
(343,303,l),
(233,303,l)
);
}
);
width = 551;
},
{
anchors = (
{
name = bottom;
pos = (240,0);
},
{
name = ogonek;
pos = (358,19);
},
{
name = top;
pos = (240,500);
}
);
layerId = m004;
shapes = (
{
closed = 1;
nodes = (
(280,-10,o),
(317,3,o),
(358,19,c),
(358,19,o),
(353,54,o),
(338,54,c),
(323,54,o),
(290,15,o),
(240,15,cs),
(122,15,o),
(110,89,o),
(110,241,c),
(395,241,l),
(395,318,ls),
(395,421,o),
(366,510,o),
(240,510,cs),
(98,510,o),
(60,421,o),
(60,318,cs),
(60,182,ls),
(60,79,o),
(98,-10,o),
(240,-10,cs)
);
},
{
closed = 1;
nodes = (
(110,318,ls),
(110,395,o),
(129,485,o),
(240,485,cs),
(332,485,o),
(345,395,o),
(345,318,cs),
(345,266,l),
(110,266,l)
);
}
);
width = 455;
},
{
anchors = (
{
name = bottom;
pos = (245,0);
},
{
name = ogonek;
pos = (390,30);
},
{
name = top;
pos = (245,500);
}
);
hints = (
{
horizontal = 1;
place = (-10,75);
type = Stem;
},
{
horizontal = 1;
place = (215,65);
type = Stem;
},
{
horizontal = 1;
place = (440,70);
type = Stem;
},
{
place = (40,100);
type = Stem;
},
{
place = (325,100);
type = Stem;
}
);
layerId = m005;
shapes = (
{
closed = 1;
nodes = (
(320,-10,o),
(390,30,o),
(390,30,c),
(390,62,o),
(380,95,o),
(360,95,cs),
(340,95,o),
(320,40,o),
(245,40,cs),
(155,40,o),
(140,101,o),
(140,228,c),
(425,228,l),
(425,300,ls),
(425,405,o),
(391,510,o),
(245,510,cs),
(85,510,o),
(40,405,o),
(40,300,cs),
(40,200,ls),
(40,95,o),
(85,-10,o),
(245,-10,cs)
);
},
{
closed = 1;
nodes = (
(140,300,ls),
(140,393,o),
(153,460,o),
(245,460,cs),
(314,460,o),
(325,373,o),
(325,300,cs),
(325,278,l),
(140,278,l)
);
}
);
width = 465;
},
{
anchors = (
{
name = bottom;
pos = (275,0);
},
{
name = ogonek;
pos = (481,40);
},
{
name = top;
pos = (275,500);
}
);
layerId = m006;
shapes = (
{
closed = 1;
nodes = (
(400,-10,o),
(481,40,o),
(481,40,c),
(481,40,o),
(505,150,o),
(447,150,c),
(389,150,o),
(345,65,o),
(275,65,cs),
(234,65,o),
(220,98,o),
(220,213,c),
(505,213,l),
(505,282,ls),
(505,437,o),
(448,510,o),
(275,510,cs),
(102,510,o),
(20,437,o),
(20,282,cs),
(20,218,ls),
(20,63,o),
(102,-10,o),
(275,-10,cs)
);
},
{
closed = 1;
nodes = (
(220,305,ls),
(220,403,o),
(234,435,o),
(275,435,cs),
(316,435,o),
(330,403,o),
(330,305,cs),
(330,288,l),
(220,288,l)
);
}
);
width = 525;
}
);
metricLeft = "=o";
metricRight = "=o";
note = e;
unicode = 101;
userData = {
KernOnName = e;
};
}
{
glyphname = f;
kernLeft = KO_f;
kernRight = KO_f;
layers = (
{
anchors = (
{
name = bottom;
pos = (156,0);
},
{
name = top;
pos = (156,700);
}
);
hints = (
{
horizontal = 1;
place = (0,21);
target = up;
type = BottomGhost;
},
{
horizontal = 1;
place = (435,65);
type = Stem;
},
{
horizontal = 1;
place = (640,61);
type = Stem;
},
{
place = (80,95.5);
type = Stem;
}
);
layerId = m01;
shapes = (
{
closed = 1;
nodes = (
(180,0,l),
(180,430,l),
(290,430,l),
(290,500,l),
(180,500,l),
(180,595,o),
(176,640,o),
(230,640,cs),
(253,640,o),
(274,634,o),
(290,627,c),
(297,648,o),
(304,669,o),
(311,690,c),
(286,702,o),
(250,710,o),
(210,710,cs),
(80,710,o),
(80,610,o),
(80,500,c),
(20,500,l),
(20,430,l),
(80,430,l),
(80,0,l)
);
}
);
width = 311;
},
{
anchors = (
{
name = bottom;
pos = (140,0);
},
{
name = top;
pos = (140,700);
}
);
layerId = "481D16E4-1E98-4559-AE79-559AF135D401";
shapes = (
{
closed = 1;
nodes = (
(140,0,l),
(140,460,l),
(250,460,l),
(250,500,l),
(140,500,l),
(140,614,o),
(130,670,o),
(181,670,cs),
(204,670,o),
(228,664,o),
(250,655,c),
(254,668,o),
(259,680,o),
(263,693,c),
(238,703,o),
(211,710,o),
(181,710,cs),
(83,710,o),
(90,620,o),
(90,500,c),
(30,500,l),
(30,460,l),
(90,460,l),
(90,0,l)
);
}
);
width = 280;
},
{
anchors = (
{
name = bottom;
pos = (180,0);
},
{
name = top;
pos = (180,700);
}
);
layerId = "05E54F0F-8425-4B5B-B0EB-B578BBC85A7B";
shapes = (
{
closed = 1;
nodes = (
(253,0,l),
(253,375,l),
(360,375,l),
(360,500,l),
(253,500,l),
(253,568,o),
(261,590,o),
(288,590,cs),
(312,590,o),
(337,580,o),
(360,570,c),
(371,603,o),
(391,652,o),
(402,685,c),
(371,701,o),
(315,715,o),
(245,715,cs),
(115,715,o),
(53,646,o),
(53,500,c),
(0,500,l),
(0,375,l),
(53,375,l),
(53,0,l)
);
}
);
width = 360;
},
{
anchors = (
{
name = bottom;
pos = (140,0);
},
{
name = top;
pos = (140,700);
}
);
layerId = m004;
shapes = (
{
closed = 1;
nodes = (
(140,0,l),
(140,475,l),
(250,475,l),
(250,500,l),
(140,500,l),
(140,635,o),
(140,683,o),
(215,683,cs),
(250,683,o),
(235,640,o),
(250,640,c),
(265,640,o),
(275,667,o),
(275,690,c),
(275,690,o),
(252,710,o),
(215,710,cs),
(101,710,o),
(90,625,o),
(90,500,c),
(30,500,l),
(30,475,l),
(90,475,l),
(90,0,l)
);
}
);
width = 280;
},
{
anchors = (
{
name = bottom;
pos = (150,0);
},
{
name = top;
pos = (150,700);
}
);
hints = (
{
horizontal = 1;
place = (0,21);
target = up;
type = BottomGhost;
},
{
horizontal = 1;
place = (435,65);
type = Stem;
},
{
horizontal = 1;
place = (640,61);
type = Stem;
},
{
place = (80,95.5);
type = Stem;
}
);
layerId = m005;
shapes = (
{
closed = 1;
nodes = (
(190,0,l),
(191,450,l),
(300,450,l),
(300,500,l),
(190,500,l),
(190,600,o),
(190,660,o),
(240,660,c),
(295,660,o),
(270,610,o),
(300,610,cs),
(315,610,o),
(340,627,o),
(340,690,c),
(340,690,o),
(300,710,o),
(220,710,cs),
(89,710,o),
(90,610,o),
(90,500,c),
(30,500,l),
(30,450,l),
(90,450,l),
(90,0,l)
);
}
);
width = 300;
},
{
anchors = (
{
name = bottom;
pos = (180,0);
},
{
name = top;
pos = (180,700);
}
);
layerId = m006;
shapes = (
{
closed = 1;
nodes = (
(253,0,l),
(253,425,l),
(360,425,l),
(360,500,l),
(253,500,l),
(253,568,o),
(261,640,o),
(288,640,cs),
(338,640,o),
(310,550,o),
(360,550,cs),
(398,550,o),
(435,615,o),
(435,680,c),
(391,703,o),
(324,715,o),
(245,715,cs),
(115,715,o),
(53,646,o),
(53,500,c),
(0,500,l),
(0,425,l),
(53,425,l),
(53,0,l)
);
}
);
width = 360;
}
);
note = f;
unicode = 102;
userData = {
KernOnName = f;
};
}
{
glyphname = l;
kernLeft = KO_l;
kernRight = KO_l;
layers = (
{
anchors = (
{
name = bottom;
pos = (134,0);
},
{
name = center;
pos = (134,250);
},
{
name = top;
pos = (134,700);
},
{
name = topright;
pos = (248,700);
}
);
hints = (
{
horizontal = 1;
place = (0,21);
target = up;
type = BottomGhost;
},
{
place = (60,95);
type = Stem;
},
{
horizontal = 1;
place = (-3,63);
type = Stem;
}
);
layerId = m01;
shapes = (
{
closed = 1;
nodes = (
(228,0,l),
(228,70,l),
(198,70,ls),
(169,70,o),
(170,110,o),
(170,200,cs),
(170,710,l),
(70,700,l),
(70,200,ls),
(70,90,o),
(70,-11,o),
(198,-2,cs)
);
}
);
width = 268;
},
{
anchors = (
{
name = bottom;
pos = (135,0);
},
{
name = center;
pos = (135,250);
},
{
name = top;
pos = (135,700);
},
{
name = topright;
pos = (250,700);
}
);
layerId = "481D16E4-1E98-4559-AE79-559AF135D401";
shapes = (
{
closed = 1;
nodes = (
(203,0,l),
(203,40,l),
(198,40,ls),
(144,40,o),
(145,87,o),
(145,183,cs),
(145,705,l),
(100,700,l),
(100,183,ls),
(100,73,o),
(100,0,o),
(198,0,cs)
);
}
);
width = 270;
},
{
anchors = (
{
name = bottom;
pos = (172,0);
},
{
name = center;
pos = (172,250);
},
{
name = top;
pos = (172,700);
},
{
name = topright;
pos = (323,700);
}
);
layerId = "05E54F0F-8425-4B5B-B0EB-B578BBC85A7B";
shapes = (
{
closed = 1;
nodes = (
(310,0,l),
(310,125,l),
(280,125,ls),
(250,125,o),
(250,147,o),
(250,217,cs),
(250,715,l),
(50,700,l),
(50,217,ls),
(50,107,o),
(85,-15,o),
(280,-2,cs)
);
}
);
width = 343;
},
{
anchors = (
{
name = bottom;
pos = (127,0);
},
{
name = center;
pos = (127,250);
},
{
name = top;
pos = (127,700);
},
{
name = topright;
pos = (233,700);
}
);
layerId = m004;
shapes = (
{
closed = 1;
nodes = (
(193,0,l),
(193,25,l),
(188,25,ls),
(134,25,o),
(135,72,o),
(135,183,cs),
(135,705,l),
(90,700,l),
(90,183,ls),
(90,73,o),
(90,0,o),
(188,0,cs)
);
}
);
width = 253;
},
{
anchors = (
{
name = bottom;
pos = (129,0);
},
{
name = center;
pos = (129,250);
},
{
name = top;
pos = (129,700);
},
{
name = topright;
pos = (238,700);
}
);
hints = (
{
horizontal = 1;
place = (0,21);
target = up;
type = BottomGhost;
},
{
place = (60,95);
type = Stem;
},
{
horizontal = 1;
place = (-3,63);
type = Stem;
}
);
layerId = m005;
shapes = (
{
closed = 1;
nodes = (
(218,0,l),
(218,50,l),
(188,50,ls),
(159,50,o),
(160,90,o),
(160,200,cs),
(160,710,l),
(60,700,l),
(60,200,ls),
(60,90,o),
(60,-11,o),
(188,-2,cs)
);
}
);
width = 258;
},
{
anchors = (
{
name = bottom;
pos = (155,0);
},
{
name = center;
pos = (155,250);
},
{
name = top;
pos = (155,700);
},
{
name = topright;
pos = (290,700);
}
);
layerId = m006;
shapes = (
{
closed = 1;
nodes = (
(290,0,l),
(290,75,l),
(260,75,ls),
(230,75,o),
(230,97,o),
(230,217,cs),
(230,715,l),
(30,700,l),
(30,217,ls),
(30,107,o),
(65,-15,o),
(260,-2,cs)
);
}
);
width = 310;
}
);
metricLeft = "=n";
metricRight = "=o";
note = l;
unicode = 108;
userData = {
KernOnName = l;
};
}
{
glyphname = r;
kernLeft = KO_r;
kernRight = KO_r;
layers = (
{
anchors = (
{
name = bottom;
pos = (191,0);
},
{
name = top;
pos = (191,500);
}
);
hints = (
{
horizontal = 1;
place = (0,21);
target = up;
type = BottomGhost;
},
{
horizontal = 1;
place = (430,80.5);
type = Stem;
},
{
place = (60,95);
type = Stem;
}
);
layerId = m01;
shapes = (
{
closed = 1;
nodes = (
(70,0,l),
(170,0,l),
(170,300,ls),
(170,368,o),
(228,435,o),
(285,435,cs),
(316,435,o),
(348,420,o),
(348,420,c),
(348,420,o),
(375,500,o),
(375,500,c),
(357,507,o),
(335,510,o),
(310,510,cs),
(221,510,o),
(175,445,o),
(160,445,cs),
(145,445,o),
(140,469,o),
(140,500,c),
(70,500,l)
);
}
);
width = 382;
},
{
anchors = (
{
name = bottom;
pos = (191,0);
},
{
name = top;
pos = (191,500);
}
);
layerId = "481D16E4-1E98-4559-AE79-559AF135D401";
shapes = (
{
closed = 1;
nodes = (
(100,0,l),
(150,0,l),
(150,318,ls),
(150,406,o),
(220,470,o),
(290,470,cs),
(322,470,o),
(354,460,o),
(354,460,c),
(354,460,o),
(354,460,o),
(368,500,c),
(352,507,o),
(332,510,o),
(310,510,cs),
(215,510,o),
(165,430,o),
(150,430,cs),
(135,430,o),
(135,460,o),
(135,500,c),
(100,500,l)
);
}
);
width = 381;
},
{
anchors = (
{
name = bottom;
pos = (228,0);
},
{
name = top;
pos = (228,500);
}
);
hints = (
{
origin = (0,7);
target = (0,7);
type = Stem;
},
{
origin = (0,7);
target = (0,7);
type = Stem;
}
);
layerId = "05E54F0F-8425-4B5B-B0EB-B578BBC85A7B";
shapes = (
{
closed = 1;
nodes = (
(50,0,l),
(250,0,l),
(250,282,ls),
(250,352,o),
(269,385,o),
(310,385,cs),
(355,385,o),
(400,370,o),
(400,370,c),
(400,370,o),
(449,500,o),
(449,500,c),
(431,507,o),
(410,510,o),
(385,510,cs),
(280,510,o),
(240,455,o),
(220,455,cs),
(210,455,o),
(205,474,o),
(205,500,c),
(50,500,l)
);
}
);
width = 455;
},
{
anchors = (
{
name = bottom;
pos = (190,0);
},
{
name = top;
pos = (190,500);
}
);
layerId = m004;
shapes = (
{
closed = 1;
nodes = (
(90,0,l),
(140,0,l),
(140,318,ls),
(140,413,o),
(210,485,o),
(280,485,cs),
(327,485,o),
(334,443,o),
(352,443,c),
(370,443,o),
(375,493,o),
(358,500,c),
(342,507,o),
(322,510,o),
(300,510,cs),
(205,510,o),
(155,430,o),
(140,430,cs),
(125,430,o),
(125,460,o),
(125,500,c),
(90,500,l)
);
}
);
width = 379;
},
{
anchors = (
{
name = bottom;
pos = (196,0);
},
{
name = top;
pos = (196,500);
}
);
hints = (
{
horizontal = 1;
place = (0,21);
target = up;
type = BottomGhost;
},
{
horizontal = 1;
place = (430,80.5);
type = Stem;
},
{
place = (60,95);
type = Stem;
}
);
layerId = m005;
shapes = (
{
closed = 1;
nodes = (
(60,0,l),
(160,0,l),
(160,300,ls),
(160,368,o),
(200,460,o),
(275,460,cs),
(332,460,o),
(302,405,o),
(340,405,c),
(378,405,o),
(401,488,o),
(365,500,c),
(347,507,o),
(325,510,o),
(300,510,cs),
(211,510,o),
(165,445,o),
(150,445,cs),
(135,445,o),
(130,469,o),
(130,500,c),
(60,500,l)
);
}
);
width = 391;
},
{
anchors = (
{
name = bottom;
pos = (231,0);
},
{
name = top;
pos = (231,500);
}
);
layerId = m006;
shapes = (
{
closed = 1;
nodes = (
(30,0,l),
(230,0,l),
(230,282,ls),
(230,386,o),
(249,435,o),
(290,435,cs),
(336,435,o),
(304,325,o),
(379,325,cs),
(454,325,o),
(484,481,o),
(429,500,c),
(411,507,o),
(390,510,o),
(365,510,cs),
(260,510,o),
(220,455,o),
(200,455,cs),
(190,455,o),
(185,474,o),
(185,500,c),
(30,500,l)
);
}
);
width = 461;
}
);
metricLeft = "=n";
metricRight = "=n/8";
note = r;
unicode = 114;
userData = {
KernOnName = r;
};
}
{
glyphname = s;
kernLeft = KO_s;
kernRight = KO_s;
layers = (
{
anchors = (
{
name = bottom;
pos = (187,0);
},
{
name = top;
pos = (207,500);
}
);
hints = (
{
horizontal = 1;
place = (-10,80);
type = Stem;
},
{
horizontal = 1;
place = (440,70);
type = Stem;
},
{
place = (40,90);
type = Stem;
},
{
place = (260,100);
type = Stem;
}
);
layerId = m01;
shapes = (
{
closed = 1;
nodes = (
(299,-10,o),
(372,55,o),
(372,155,cs),
(372,242,o),
(313,298,o),
(232,307,cs),
(165,315,o),
(142,338,o),
(142,375,cs),
(142,414,o),
(165,435,o),
(207,435,c),
(207,510,l),
(113,510,o),
(52,457,o),
(52,375,cs),
(52,294,o),
(107,242,o),
(182,233,cs),
(249,225,o),
(272,199,o),
(272,155,cs),
(272,97,o),
(242,65,o),
(187,65,c),
(187,-10,l)
);
},
{
closed = 1;
nodes = (
(187,65,l),
(102,65,o),
(57,95,o),
(57,95,c),
(50,72,o),
(42,48,o),
(35,25,c),
(35,25,o),
(102,-10,o),
(187,-10,c)
);
},
{
closed = 1;
nodes = (
(329,427,o),
(337,453,o),
(344,475,c),
(344,475,o),
(277,510,o),
(207,510,c),
(207,435,l),
(277,435,o),
(322,405,o),
(322,405,c)
);
}
);
width = 412;
},
{
anchors = (
{
name = bottom;
pos = (173,0);
},
{
name = top;
pos = (193,500);
}
);
layerId = "481D16E4-1E98-4559-AE79-559AF135D401";
shapes = (
{
closed = 1;
nodes = (
(285,-10,o),
(358,55,o),
(358,155,cs),
(358,230,o),
(299,281,o),
(193,295,cs),
(134,303,o),
(95,328,o),
(95,375,cs),
(95,436,o),
(134,470,o),
(193,470,c),
(193,510,l),
(111,510,o),
(50,457,o),
(50,375,cs),
(50,307,o),
(105,262,o),
(193,250,cs),
(267,240,o),
(308,208,o),
(308,155,cs),
(308,75,o),
(260,30,o),
(173,30,c),
(173,-10,l)
);
},
{
closed = 1;
nodes = (
(173,30,l),
(132,30,o),
(97,40,o),
(64,57,c),
(61,44,o),
(57,31,o),
(54,18,c),
(96,0,o),
(139,-10,o),
(173,-10,c)
);
},
{
closed = 1;
nodes = (
(305,456,o),
(309,469,o),
(312,482,c),
(270,500,o),
(227,510,o),
(193,510,c),
(193,470,l),
(234,470,o),
(269,460,o),
(302,443,c)
);
}
);
width = 425;
},
{
anchors = (
{
name = bottom;
pos = (232,0);
},
{
name = top;
pos = (250,500);
}
);
layerId = "05E54F0F-8425-4B5B-B0EB-B578BBC85A7B";
shapes = (
{
closed = 1;
nodes = (
(390,-10,o),
(466,43,o),
(466,155,cs),
(466,261,o),
(413,297,o),
(301,315,cs),
(245,324,o),
(226,331,o),
(226,355,cs),
(226,376,o),
(239,385,o),
(276,385,c),
(251,510,l),
(112,510,o),
(46,459,o),
(46,350,cs),
(46,254,o),
(96,208,o),
(201,190,cs),
(250,182,o),
(266,175,o),
(266,150,cs),
(266,125,o),
(250,115,o),
(201,115,c),
(231,-10,l)
);
},
{
closed = 1;
nodes = (
(201,115,l),
(131,115,o),
(59,150,o),
(59,150,c),
(48,113,o),
(36,77,o),
(25,40,c),
(25,40,o),
(106,-10,o),
(231,-10,c)
);
},
{
closed = 1;
nodes = (
(434,385,o),
(446,425,o),
(457,460,c),
(457,460,o),
(376,510,o),
(251,510,c),
(276,385,l),
(351,385,o),
(423,350,o),
(423,350,c)
);
}
);
width = 499;
},
{
anchors = (
{
name = bottom;
pos = (173,0);
},
{
name = top;
pos = (194,500);
}
);
layerId = m004;
shapes = (
{
closed = 1;
nodes = (
(285,-10,o),
(358,55,o),
(358,155,cs),
(358,230,o),
(299,276,o),
(193,290,cs),
(134,298,o),
(95,328,o),
(95,375,cs),
(95,446,o),
(134,485,o),
(193,485,c),
(193,510,l),
(111,510,o),
(50,457,o),
(50,375,cs),
(50,307,o),
(105,262,o),
(193,250,cs),
(267,240,o),
(308,208,o),
(308,155,cs),
(308,65,o),
(260,15,o),
(173,15,c),
(173,-10,l)
);
},
{
closed = 1;
nodes = (
(173,15,l),
(123,15,o),
(80,54,o),
(65,54,c),
(50,54,o),
(45,19,o),
(45,19,c),
(86,3,o),
(133,-10,o),
(173,-10,c)
);
},
{
closed = 1;
nodes = (
(306,446,o),
(311,481,o),
(311,481,c),
(270,497,o),
(233,510,o),
(193,510,c),
(193,485,l),
(243,485,o),
(276,446,o),
(291,446,c)
);
}
);
width = 418;
},
{
anchors = (
{
name = bottom;
pos = (182,0);
},
{
name = top;
pos = (202,500);
}
);
hints = (
{
horizontal = 1;
place = (-10,80);
type = Stem;
},
{
horizontal = 1;
place = (440,70);
type = Stem;
},
{
place = (40,90);
type = Stem;
},
{
place = (260,100);
type = Stem;
}
);
layerId = m005;
shapes = (
{
closed = 1;
nodes = (
(294,-10,o),
(367,55,o),
(367,155,cs),
(367,242,o),
(308,298,o),
(227,307,cs),
(160,315,o),
(137,338,o),
(137,375,cs),
(137,430,o),
(160,460,o),
(202,460,c),
(202,510,l),
(108,510,o),
(47,457,o),
(47,375,cs),
(47,294,o),
(102,242,o),
(177,233,cs),
(244,225,o),
(267,199,o),
(267,155,cs),
(267,81,o),
(237,40,o),
(182,40,c),
(182,-10,l)
);
},
{
closed = 1;
nodes = (
(182,40,l),
(112,40,o),
(77,95,o),
(52,95,c),
(30,95,o),
(30,47,o),
(30,25,c),
(30,25,o),
(97,-10,o),
(182,-10,c)
);
},
{
closed = 1;
nodes = (
(339,405,o),
(339,453,o),
(339,475,c),
(339,475,o),
(272,510,o),
(202,510,c),
(202,460,l),
(272,460,o),
(292,405,o),
(317,405,c)
);
}
);
width = 407;
},
{
anchors = (
{
name = bottom;
pos = (200,0);
},
{
name = top;
pos = (220,500);
}
);
layerId = m006;
shapes = (
{
closed = 1;
nodes = (
(359,-10,o),
(435,43,o),
(435,155,cs),
(435,261,o),
(382,291,o),
(270,315,cs),
(205,329,o),
(165,345,o),
(165,375,cs),
(165,416,o),
(189,435,o),
(220,435,c),
(220,510,l),
(81,510,o),
(15,459,o),
(15,350,cs),
(15,254,o),
(65,210,o),
(170,190,cs),
(231,178,o),
(260,164,o),
(260,130,cs),
(260,88,o),
(230,65,o),
(200,65,c),
(200,-10,l)
);
},
{
closed = 1;
nodes = (
(200,65,l),
(130,65,o),
(116,150,o),
(58,150,c),
(0,150,o),
(24,40,o),
(24,40,c),
(24,40,o),
(105,-10,o),
(200,-10,c)
);
},
{
closed = 1;
nodes = (
(405,350,o),
(381,460,o),
(381,460,c),
(381,460,o),
(300,510,o),
(220,510,c),
(220,435,l),
(290,435,o),
(289,350,o),
(347,350,c)
);
}
);
width = 455;
}
);
metricLeft = "=n/2";
metricRight = "=o";
note = s;
unicode = 115;
userData = {
KernOnName = s;
};
}
{
glyphname = t;
kernLeft = KO_t;
kernRight = KO_t;
layers = (
{
anchors = (
{
name = bottom;
pos = (158,0);
},
{
name = center;
pos = (158,250);
},
{
name = top;
pos = (158,629);
},
{
name = topright;
pos = (295,700);
}
);
hints = (
{
horizontal = 1;
place = (-2,62);
type = Stem;
},
{
horizontal = 1;
place = (435,65);
type = Stem;
},
{
place = (80,95);
type = Stem;
}
);
layerId = m01;
shapes = (
{
closed = 1;
nodes = (
(254,0,l),
(254,70,l),
(224,70,ls),
(174,70,o),
(174,110,o),
(174,200,c),
(176,629,l),
(75,598,l),
(75,565,o),
(75,533,o),
(75,500,c),
(75,430,l),
(74,200,l),
(74,90,o),
(85,-11,o),
(224,-2,cs)
);
},
{
closed = 1;
nodes = (
(285,430,l),
(285,500,l),
(15,500,l),
(15,430,l)
);
}
);
width = 315;
},
{
anchors = (
{
name = bottom;
pos = (133,0);
},
{
name = center;
pos = (133,250);
},
{
name = top;
pos = (133,610);
},
{
name = topright;
pos = (245,700);
}
);
layerId = "481D16E4-1E98-4559-AE79-559AF135D401";
shapes = (
{
closed = 1;
nodes = (
(205,0,l),
(205,40,l),
(200,40,ls),
(125,40,o),
(120,86,o),
(120,200,c),
(121,610,l),
(75,595,l),
(75,563,o),
(75,532,o),
(75,500,c),
(75,460,l),
(75,200,l),
(75,75,o),
(84,0,o),
(198,0,cs)
);
},
{
closed = 1;
nodes = (
(235,460,l),
(235,500,l),
(15,500,l),
(15,460,l)
);
}
);
width = 265;
},
{
anchors = (
{
name = bottom;
pos = (188,0);
},
{
name = center;
pos = (188,250);
},
{
name = top;
pos = (188,675);
},
{
name = topright;
pos = (355,700);
}
);
layerId = "05E54F0F-8425-4B5B-B0EB-B578BBC85A7B";
shapes = (
{
closed = 1;
nodes = (
(330,0,l),
(330,125,l),
(290,125,ls),
(261,125,o),
(251,147,o),
(251,200,cs),
(251,675,l),
(51,610,l),
(51,573,o),
(51,537,o),
(51,500,c),
(51,375,l),
(51,200,ls),
(51,59,o),
(124,-10,o),
(267,-3,cs)
);
},
{
closed = 1;
nodes = (
(360,375,l),
(360,500,l),
(0,500,l),
(0,375,l)
);
}
);
width = 375;
},
{
anchors = (
{
name = bottom;
pos = (133,0);
},
{
name = center;
pos = (133,250);
},
{
name = top;
pos = (133,610);
},
{
name = topright;
pos = (245,700);
}
);
layerId = m004;
shapes = (
{
closed = 1;
nodes = (
(205,0,l),
(205,25,l),
(200,25,ls),
(125,25,o),
(120,71,o),
(120,200,c),
(121,610,l),
(96,610,l),
(96,540,o),
(85,500,o),
(15,500,c),
(75,475,l),
(75,200,l),
(75,75,o),
(84,0,o),
(198,0,cs)
);
},
{
closed = 1;
nodes = (
(235,475,l),
(235,500,l),
(15,500,l),
(15,475,l)
);
}
);
width = 265;
},
{
anchors = (
{
name = bottom;
pos = (158,0);
},
{
name = center;
pos = (158,250);
},
{
name = top;
pos = (158,629);
},
{
name = topright;
pos = (295,700);
}
);
hints = (
{
horizontal = 1;
place = (-2,62);
type = Stem;
},
{
horizontal = 1;
place = (435,65);
type = Stem;
},
{
place = (80,95);
type = Stem;
}
);
layerId = m005;
shapes = (
{
closed = 1;
nodes = (
(254,0,l),
(254,50,l),
(224,50,ls),
(174,50,o),
(174,90,o),
(174,200,c),
(176,629,l),
(121,629,l),
(121,559,o),
(85,500,o),
(15,500,c),
(75,450,l),
(74,200,l),
(74,90,o),
(85,-11,o),
(224,-2,cs)
);
},
{
closed = 1;
nodes = (
(285,450,l),
(285,500,l),
(15,500,l),
(15,450,l)
);
}
);
width = 315;
},
{
anchors = (
{
name = bottom;
pos = (188,0);
},
{
name = center;
pos = (188,250);
},
{
name = top;
pos = (188,675);
},
{
name = topright;
pos = (355,700);
}
);
layerId = m006;
shapes = (
{
closed = 1;
nodes = (
(330,0,l),
(330,75,l),
(290,75,ls),
(261,75,o),
(251,97,o),
(251,150,cs),
(251,675,l),
(161,675,l),
(160,575,o),
(100,500,o),
(0,500,c),
(51,425,l),
(51,200,ls),
(51,58,o),
(124,-10,o),
(267,-3,cs)
);
},
{
closed = 1;
nodes = (
(360,425,l),
(360,500,l),
(0,500,l),
(0,425,l)
);
}
);
width = 375;
}
);
note = t;
unicode = 116;
userData = {
KernOnName = t;
};
}
{
glyphname = z;
kernLeft = KO_z;
kernRight = KO_z;
layers = (
{
anchors = (
{
name = bottom;
pos = (215,0);
},
{
name = center;
pos = (215,250);
},
{
name = top;
pos = (215,500);
}
);
hints = (
{
horizontal = 1;
place = (0,70);
type = Stem;
},
{
horizontal = 1;
place = (430,70);
type = Stem;
},
{
place = (40,350);
type = Stem;
}
);
layerId = m01;
shapes = (
{
closed = 1;
nodes = (
(376,458,ls),
(390,483,o),
(379,500,o),
(351,500,cs),
(55,500,l),
(55,430,l),
(125,430,o),
(195,430,o),
(265,430,c),
(52,90,ls),
(43,76,o),
(40,64,o),
(40,47,cs),
(40,0,l),
(390,0,l),
(390,70,l),
(310,70,o),
(230,70,o),
(150,70,c)
);
}
);
width = 430;
},
{
anchors = (
{
name = bottom;
pos = (242,0);
},
{
name = center;
pos = (242,250);
},
{
name = top;
pos = (242,500);
}
);
layerId = "481D16E4-1E98-4559-AE79-559AF135D401";
shapes = (
{
closed = 1;
nodes = (
(407,470,ls),
(418,487,o),
(411,500,o),
(391,500,cs),
(82,500,l),
(82,460,l),
(172,460,o),
(262,460,o),
(352,460,c),
(77,54,ls),
(70,44,o),
(67,35,o),
(67,23,cs),
(67,0,l),
(417,0,l),
(417,40,l),
(320,40,o),
(224,40,o),
(127,40,c)
);
}
);
width = 484;
},
{
anchors = (
{
name = bottom;
pos = (258,0);
},
{
name = center;
pos = (258,250);
},
{
name = top;
pos = (258,500);
}
);
layerId = "05E54F0F-8425-4B5B-B0EB-B578BBC85A7B";
shapes = (
{
closed = 1;
nodes = (
(460,424,ls),
(489,466,o),
(472,500,o),
(420,500,cs),
(48,500,l),
(48,375,l),
(108,375,o),
(168,375,o),
(228,375,c),
(63,158,ls),
(44,133,o),
(33,112,o),
(33,80,cs),
(33,0,l),
(483,0,l),
(483,125,l),
(406,125,o),
(330,125,o),
(253,125,c)
);
}
);
width = 516;
},
{
anchors = (
{
name = bottom;
pos = (235,0);
},
{
name = center;
pos = (235,250);
},
{
name = top;
pos = (235,500);
}
);
layerId = m004;
shapes = (
{
closed = 1;
nodes = (
(400,470,ls),
(411,487,o),
(404,500,o),
(384,500,cs),
(75,500,l),
(75,475,ls),
(75,450,o),
(175,475,o),
(355,475,c),
(70,39,ls),
(63,29,o),
(60,20,o),
(60,8,cs),
(60,0,l),
(410,0,l),
(410,25,ls),
(410,50,o),
(300,25,o),
(120,25,c)
);
}
);
width = 470;
},
{
anchors = (
{
name = bottom;
pos = (215,0);
},
{
name = center;
pos = (215,250);
},
{
name = top;
pos = (215,500);
}
);
hints = (
{
horizontal = 1;
place = (0,70);
type = Stem;
},
{
horizontal = 1;
place = (430,70);
type = Stem;
},
{
place = (40,350);
type = Stem;
}
);
layerId = m005;
shapes = (
{
closed = 1;
nodes = (
(376,458,ls),
(391,483,o),
(379,500,o),
(351,500,cs),
(55,500,l),
(55,450,ls),
(55,400,o),
(105,450,o),
(285,450,c),
(52,70,ls),
(43,56,o),
(40,44,o),
(40,27,cs),
(40,0,l),
(390,0,l),
(390,50,ls),
(390,100,o),
(320,50,o),
(140,50,c)
);
}
);
width = 430;
},
{
anchors = (
{
name = bottom;
pos = (245,0);
},
{
name = center;
pos = (245,250);
},
{
name = top;
pos = (245,500);
}
);
layerId = m006;
shapes = (
{
closed = 1;
nodes = (
(447,424,ls),
(475,466,o),
(459,500,o),
(407,500,cs),
(35,500,l),
(35,425,ls),
(35,350,o),
(85,425,o),
(265,425,c),
(50,108,ls),
(31,81,o),
(20,62,o),
(20,30,cs),
(20,0,l),
(470,0,l),
(470,75,ls),
(470,150,o),
(395,75,o),
(215,75,c)
);
}
);
width = 490;
},
{
associatedMasterId = "481D16E4-1E98-4559-AE79-559AF135D401";
layerId = "3EF2FCCD-CB93-4CD0-83B9-CF96778F0091";
width = 606.45716;
}
);
metricLeft = "=o";
metricRight = "=o";
note = z;
unicode = 122;
userData = {
KernOnName = z;
};
}
{
glyphname = asciitilde;
layers = (
{
hints = (
{
horizontal = 1;
place = (245,65);
type = Stem;
},
{
place = (25,450);
type = Stem;
},
{
horizontal = 1;
place = (190,65);
type = Stem;
}
);
layerId = m01;
shapes = (
{
closed = 1;
nodes = (
(423,210,o),
(488,270,o),
(488,270,c),
(463,315,l),
(463,315,o),
(413,270,o),
(353,270,cs),
(293,270,o),
(243,330,o),
(173,330,cs),
(103,330,o),
(38,270,o),
(38,270,c),
(63,225,l),
(63,225,o),
(113,270,o),
(173,270,cs),
(233,270,o),
(283,210,o),
(353,210,cs)
);
}
);
width = 525;
},
{
layerId = "481D16E4-1E98-4559-AE79-559AF135D401";
shapes = (
{
closed = 1;
nodes = (
(438,220,o),
(489,248,o),
(520,274,c),
(501,308,l),
(471,282,o),
(430,260,o),
(390,260,cs),
(334,260,o),
(282,320,o),
(210,320,cs),
(162,320,o),
(111,292,o),
(80,266,c),
(99,232,l),
(129,258,o),
(170,280,o),
(210,280,cs),
(266,280,o),
(318,220,o),
(390,220,cs)
);
}
);
width = 600;
},
{
layerId = "05E54F0F-8425-4B5B-B0EB-B578BBC85A7B";
shapes = (
{
closed = 1;
nodes = (
(394,180,o),
(441,208,o),
(489,250,c),
(447,335,l),
(428,321,o),
(386,300,o),
(340,300,cs),
(264,300,o),
(228,360,o),
(160,360,cs),
(106,360,o),
(59,332,o),
(11,290,c),
(53,205,l),
(72,219,o),
(114,240,o),
(160,240,cs),
(236,240,o),
(272,180,o),
(340,180,cs)
);
}
);
width = 500;
},
{
layerId = m004;
shapes = (
{
closed = 1;
nodes = (
(428,220,o),
(479,248,o),
(510,274,c),
(491,308,l),
(461,282,o),
(420,260,o),
(380,260,cs),
(324,260,o),
(272,320,o),
(200,320,cs),
(152,320,o),
(101,292,o),
(70,266,c),
(89,232,l),
(119,258,o),
(160,280,o),
(200,280,cs),
(256,280,o),
(308,220,o),
(380,220,cs)
);
}
);
width = 580;
},
{
hints = (
{
horizontal = 1;
place = (245,65);
type = Stem;
},
{
place = (25,450);
type = Stem;
},
{
horizontal = 1;
place = (190,65);
type = Stem;
}
);
layerId = m005;
shapes = (
{
closed = 1;
nodes = (
(420,210,o),
(485,270,o),
(485,270,c),
(460,315,l),
(460,315,o),
(410,270,o),
(350,270,cs),
(290,270,o),
(240,330,o),
(170,330,cs),
(100,330,o),
(35,270,o),
(35,270,c),
(60,225,l),
(60,225,o),
(110,270,o),
(170,270,cs),
(230,270,o),
(280,210,o),
(350,210,cs)
);
}
);
width = 520;
},
{
layerId = m006;
shapes = (
{
closed = 1;
nodes = (
(374,180,o),
(421,208,o),
(469,250,c),
(427,335,l),
(408,321,o),
(366,300,o),
(320,300,cs),
(244,300,o),
(208,360,o),
(140,360,cs),
(86,360,o),
(39,332,o),
(-9,290,c),
(33,205,l),
(52,219,o),
(94,240,o),
(140,240,cs),
(216,240,o),
(252,180,o),
(320,180,cs)
);
}
);
width = 460;
},
{
associatedMasterId = "481D16E4-1E98-4559-AE79-559AF135D401";
layerId = "3EF2FCCD-CB93-4CD0-83B9-CF96778F0091";
width = 603.79833;
}
);
note = asciitilde;
unicode = 126;
userData = {
KernOnSpecialSpacing = {
L = math;
R = math;
};
};
}
{
glyphname = cent;
layers = (
{
hints = (
{
horizontal = 1;
place = (-9,79);
type = Stem;
},
{
horizontal = 1;
place = (435,150);
type = Stem;
},
{
place = (40,100);
type = Stem;
},
{
place = (220,50);
type = Stem;
},
{
horizontal = 1;
place = (-85,155);
type = Stem;
},
{
horizontal = 1;
place = (-9,21);
target = up;
type = BottomGhost;
}
);
layerId = m01;
shapes = (
{
ref = c;
},
{
closed = 1;
nodes = (
(293,-70,l),
(293,570,l),
(218,570,l),
(218,-70,l)
);
}
);
width = 407;
},
{
layerId = "481D16E4-1E98-4559-AE79-559AF135D401";
shapes = (
{
ref = c;
},
{
closed = 1;
nodes = (
(267,-70,l),
(267,570,l),
(227,570,l),
(227,-70,l)
);
}
);
width = 392;
},
{
layerId = "05E54F0F-8425-4B5B-B0EB-B578BBC85A7B";
shapes = (
{
ref = c;
},
{
closed = 1;
nodes = (
(351,-70,l),
(351,570,l),
(226,570,l),
(226,-70,l)
);
}
);
width = 464;
},
{
layerId = m004;
shapes = (
{
ref = c;
},
{
closed = 1;
nodes = (
(253,-70,l),
(253,570,l),
(228,570,l),
(228,-70,l)
);
}
);
width = 373;
},
{
hints = (
{
horizontal = 1;
place = (-9,79);
type = Stem;
},
{
horizontal = 1;
place = (435,150);
type = Stem;
},
{
place = (40,100);
type = Stem;
},
{
place = (220,50);
type = Stem;
},
{
horizontal = 1;
place = (-85,155);
type = Stem;
},
{
horizontal = 1;
place = (-9,21);
target = up;
type = BottomGhost;
}
);
layerId = m005;
shapes = (
{
ref = c;
},
{
closed = 1;
nodes = (
(270,-70,l),
(270,570,l),
(220,570,l),
(220,-70,l)
);
}
);
width = 394;
},
{
layerId = m006;
shapes = (
{
ref = c;
},
{
closed = 1;
nodes = (
(320,-70,l),
(320,570,l),
(230,570,l),
(230,-70,l)
);
}
);
width = 446;
},
{
associatedMasterId = "481D16E4-1E98-4559-AE79-559AF135D401";
attr = {
axisRules = (
{
min = 500;
},
{
}
);
};
layerId = "0A755823-2542-4F2B-838F-608318E1F2F3";
name = "13. Jan. 24, 14:07";
shapes = (
{
ref = c;
},
{
closed = 1;
nodes = (
(267,487,l),
(267,570,l),
(227,570,l),
(227,487,l)
);
},
{
closed = 1;
nodes = (
(227,5,l),
(227,-70,l),
(267,-70,l),
(267,5,l)
);
}
);
width = 392;
},
{
associatedMasterId = m01;
attr = {
axisRules = (
{
min = 500;
},
{
}
);
};
hints = (
{
horizontal = 1;
place = (-9,79);
type = Stem;
},
{
horizontal = 1;
place = (435,150);
type = Stem;
},
{
place = (40,100);
type = Stem;
},
{
place = (220,50);
type = Stem;
},
{
horizontal = 1;
place = (-85,155);
type = Stem;
},
{
horizontal = 1;
place = (-9,21);
target = up;
type = BottomGhost;
}
);
layerId = "95DA7B84-11DD-4F84-9F28-648017E09EAA";
name = "13. Jan. 24, 14:07";
shapes = (
{
ref = c;
},
{
closed = 1;
nodes = (
(293,469,l),
(293,570,l),
(218,570,l),
(218,469,l)
);
},
{
closed = 1;
nodes = (
(218,28,l),
(218,-70,l),
(293,-70,l),
(293,28,l)
);
}
);
width = 407;
},
{
associatedMasterId = "05E54F0F-8425-4B5B-B0EB-B578BBC85A7B";
attr = {
axisRules = (
{
min = 500;
},
{
}
);
};
layerId = "D8DA4D11-B3DC-4DDB-8DFC-CB7082C0909C";
name = "13. Jan. 24, 14:07";
shapes = (
{
ref = c;
},
{
closed = 1;
nodes = (
(351,452,l),
(351,570,l),
(226,570,l),
(226,452,l)
);
},
{
closed = 1;
nodes = (
(226,53,l),
(226,-70,l),
(351,-70,l),
(351,53,l)
);
}
);
width = 464;
},
{
associatedMasterId = m004;
attr = {
axisRules = (
{
min = 500;
},
{
}
);
};
layerId = "631101AE-EC04-4BD0-B751-16FDEDC812ED";
name = "13. Jan. 24, 14:07";
shapes = (
{
ref = c;
},
{
closed = 1;
nodes = (
(253,497,l),
(253,570,l),
(228,570,l),
(228,497,l)
);
},
{
closed = 1;
nodes = (
(228,-3,l),
(228,-70,l),
(253,-70,l),
(253,-3,l)
);
}
);
width = 373;
},
{
associatedMasterId = m005;
attr = {
axisRules = (
{
min = 500;
},
{
}
);
};
hints = (
{
horizontal = 1;
place = (-9,79);
type = Stem;
},
{
horizontal = 1;
place = (435,150);
type = Stem;
},
{
place = (40,100);
type = Stem;
},
{
place = (220,50);
type = Stem;
},
{
horizontal = 1;
place = (-85,155);
type = Stem;
},
{
horizontal = 1;
place = (-9,21);
target = up;
type = BottomGhost;
}
);
layerId = "F38CDD38-3065-406C-8CE8-37FE03967503";
name = "13. Jan. 24, 14:07";
shapes = (
{
ref = c;
},
{
closed = 1;
nodes = (
(270,483,l),
(270,570,l),
(220,570,l),
(220,483,l)
);
},
{
closed = 1;
nodes = (
(220,14,l),
(220,-70,l),
(270,-70,l),
(270,14,l)
);
}
);
width = 394;
},
{
associatedMasterId = m006;
attr = {
axisRules = (
{
min = 500;
},
{
}
);
};
layerId = "8BC136CB-7BF0-4322-A106-2FE522FB4428";
name = "13. Jan. 24, 14:08";
shapes = (
{
ref = c;
},
{
closed = 1;
nodes = (
(320,475,l),
(320,570,l),
(230,570,l),
(230,475,l)
);
},
{
closed = 1;
nodes = (
(230,46,l),
(230,-70,l),
(320,-70,l),
(320,46,l)
);
}
);
width = 446;
}
);
note = cent;
unicode = 162;
userData = {
KernOnSpecialSpacing = {
L = symbols;
R = symbols;
};
};
}
{
glyphname = sterling;
layers = (
{
hints = (
{
horizontal = 1;
place = (-10,105);
type = Stem;
},
{
horizontal = 1;
place = (300,50);
type = Stem;
},
{
horizontal = 1;
place = (597,80);
type = Stem;
},
{
place = (98.21,106.79);
type = Stem;
},
{
horizontal = 1;
place = (0,21);
target = up;
type = BottomGhost;
},
{
horizontal = 1;
place = (-10,85);
type = Stem;
},
{
horizontal = 1;
place = (597,80);
type = Stem;
},
{
place = (35,110);
type = Stem;
},
{
horizontal = 1;
place = (0,70);
type = Stem;
},
{
horizontal = 1;
place = (535,75);
type = Stem;
},
{
place = (14,118);
type = Stem;
},
{
place = (342,122);
type = Stem;
},
{
horizontal = 1;
place = (10,64);
type = Stem;
},
{
place = (50,400);
type = Stem;
}
);
layerId = m01;
shapes = (
{
closed = 1;
nodes = (
(150,75,l),
(150,75,o),
(220,123,o),
(220,270,cs),
(220,397,ls),
(220,533,o),
(265,597,o),
(360,597,c),
(360,677,l),
(206,677,o),
(120,577,o),
(120,397,cs),
(120,270,ls),
(120,123,o),
(50,75,o),
(50,75,c),
(50,0,l)
);
},
{
closed = 1;
nodes = (
(521,0,l),
(521,75,l),
(405,75,o),
(266,75,o),
(150,75,c),
(50,0,l)
);
},
{
closed = 1;
nodes = (
(360,300,l),
(360,380,l),
(50,380,l),
(50,300,l)
);
},
{
closed = 1;
nodes = (
(479,577,o),
(500,596,o),
(521,615,c),
(479,657,o),
(427,677,o),
(360,677,c),
(360,597,l),
(403,597,o),
(435,584,o),
(458,558,c)
);
}
);
width = 534;
},
{
layerId = "481D16E4-1E98-4559-AE79-559AF135D401";
shapes = (
{
closed = 1;
nodes = (
(119,40,l),
(119,40,o),
(187,105,o),
(187,270,cs),
(187,397,ls),
(187,560,o),
(240,637,o),
(352,637,c),
(352,677,l),
(206,677,o),
(137,587,o),
(137,397,cs),
(137,270,ls),
(137,105,o),
(67,40,o),
(67,40,c),
(67,0,l)
);
},
{
closed = 1;
nodes = (
(498,0,l),
(498,40,l),
(383,40,o),
(234,40,o),
(119,40,c),
(67,0,l)
);
},
{
closed = 1;
nodes = (
(352,320,l),
(352,360,l),
(67,360,l),
(67,320,l)
);
},
{
closed = 1;
nodes = (
(476,604,o),
(487,615,o),
(498,626,c),
(463,660,o),
(415,677,o),
(352,677,c),
(352,637,l),
(401,637,o),
(438,623,o),
(465,593,c)
);
}
);
width = 515;
},
{
layerId = "05E54F0F-8425-4B5B-B0EB-B578BBC85A7B";
shapes = (
{
closed = 1;
nodes = (
(233,150,l),
(233,150,o),
(303,170,o),
(303,290,cs),
(303,377,ls),
(303,479,o),
(332,527,o),
(393,527,c),
(393,677,l),
(196,677,o),
(103,581,o),
(103,377,cs),
(103,290,ls),
(103,170,o),
(33,150,o),
(33,150,c),
(33,0,l)
);
},
{
closed = 1;
nodes = (
(606,0,l),
(606,150,l),
(491,150,o),
(349,150,o),
(233,150,c),
(33,0,l)
);
},
{
closed = 1;
nodes = (
(393,278,l),
(393,403,l),
(33,403,l),
(33,278,l)
);
},
{
closed = 1;
nodes = (
(517,527,o),
(561,562,o),
(606,596,c),
(559,651,o),
(482,677,o),
(393,677,c),
(393,527,l),
(422,527,o),
(457,516,o),
(472,493,c)
);
}
);
width = 614;
},
{
layerId = m004;
shapes = (
{
closed = 1;
nodes = (
(112,25,l),
(112,25,o),
(180,105,o),
(180,270,cs),
(180,397,ls),
(180,575,o),
(233,652,o),
(345,652,c),
(345,677,l),
(199,677,o),
(130,587,o),
(130,397,cs),
(130,270,ls),
(130,105,o),
(60,25,o),
(60,25,c),
(60,0,l)
);
},
{
closed = 1;
nodes = (
(491,0,l),
(491,25,l),
(491,50,o),
(375,25,o),
(112,25,c),
(60,0,l)
);
},
{
closed = 1;
nodes = (
(345,320,l),
(345,360,l),
(60,360,l),
(60,320,l)
);
},
{
closed = 1;
nodes = (
(476,593,o),
(491,608,o),
(491,626,cs),
(491,652,o),
(418,677,o),
(345,677,c),
(345,652,l),
(418,652,o),
(433,593,o),
(458,593,cs)
);
}
);
width = 506;
},
{
hints = (
{
horizontal = 1;
place = (-10,105);
type = Stem;
},
{
horizontal = 1;
place = (300,50);
type = Stem;
},
{
horizontal = 1;
place = (597,80);
type = Stem;
},
{
place = (98.21,106.79);
type = Stem;
},
{
horizontal = 1;
place = (0,21);
target = up;
type = BottomGhost;
}
);
layerId = m005;
shapes = (
{
closed = 1;
nodes = (
(145,50,l),
(145,50,o),
(215,123,o),
(215,270,cs),
(215,397,ls),
(215,563,o),
(260,627,o),
(355,627,c),
(355,677,l),
(201,677,o),
(115,577,o),
(115,397,cs),
(115,270,ls),
(115,123,o),
(45,50,o),
(45,50,c),
(45,0,l)
);
},
{
closed = 1;
nodes = (
(516,0,l),
(516,50,l),
(516,100,o),
(400,50,o),
(145,50,c),
(45,0,l)
);
},
{
closed = 1;
nodes = (
(355,315,l),
(355,365,l),
(45,365,l),
(45,315,l)
);
},
{
closed = 1;
nodes = (
(484,558,o),
(516,584,o),
(516,615,cs),
(516,646,o),
(436,677,o),
(355,677,c),
(355,627,l),
(415,627,o),
(415,558,o),
(453,558,cs)
);
}
);
width = 527;
},
{
layerId = m006;
shapes = (
{
closed = 1;
nodes = (
(220,90,l),
(220,90,o),
(290,170,o),
(290,290,cs),
(290,377,ls),
(290,539,o),
(319,587,o),
(380,587,c),
(380,677,l),
(183,677,o),
(90,581,o),
(90,377,cs),
(90,290,ls),
(90,170,o),
(20,90,o),
(20,90,c),
(20,0,l)
);
},
{
closed = 1;
nodes = (
(593,0,l),
(593,75,l),
(593,265,o),
(477,90,o),
(220,90,c),
(20,0,l)
);
},
{
closed = 1;
nodes = (
(380,296,l),
(380,386,l),
(20,386,l),
(20,296,l)
);
},
{
closed = 1;
nodes = (
(547,493,o),
(580,554,o),
(580,596,cs),
(580,637,o),
(480,677,o),
(380,677,c),
(380,587,l),
(444,587,o),
(445,493,o),
(505,493,cs)
);
}
);
width = 598;
}
);
metricLeft = "=O";
metricRight = "=C";
note = sterling;
unicode = 163;
userData = {
KernOnSpecialSpacing = {
L = symbols;
R = symbols;
};
};
}
{
glyphname = currency;
layers = (
{
layerId = "481D16E4-1E98-4559-AE79-559AF135D401";
shapes = (
{
closed = 1;
nodes = (
(346,165,o),
(425,243,o),
(425,340,cs),
(425,437,o),
(346,515,o),
(250,515,cs),
(153,515,o),
(75,437,o),
(75,340,cs),
(75,243,o),
(153,165,o),
(250,165,cs)
);
},
{
closed = 1;
nodes = (
(156,218,l),
(125,243,l),
(59,177,l),
(87,149,l)
);
},
{
closed = 1;
nodes = (
(153,465,l),
(87,531,l),
(59,503,l),
(128,434,l)
);
},
{
closed = 1;
nodes = (
(175,205,o),
(115,265,o),
(115,340,cs),
(115,415,o),
(175,475,o),
(250,475,cs),
(324,475,o),
(385,415,o),
(385,340,cs),
(385,265,o),
(324,205,o),
(250,205,cs)
);
},
{
closed = 1;
nodes = (
(441,177,l),
(373,245,l),
(345,217,l),
(413,149,l)
);
},
{
closed = 1;
nodes = (
(441,503,l),
(413,531,l),
(345,463,l),
(371,433,l)
);
}
);
width = 500;
},
{
layerId = m01;
shapes = (
{
closed = 1;
nodes = (
(346,165,o),
(425,243,o),
(425,340,cs),
(425,437,o),
(346,515,o),
(250,515,cs),
(153,515,o),
(75,437,o),
(75,340,cs),
(75,243,o),
(153,165,o),
(250,165,cs)
);
},
{
closed = 1;
nodes = (
(168,206,l),
(113,255,l),
(47,189,l),
(99,137,l)
);
},
{
closed = 1;
nodes = (
(165,477,l),
(99,543,l),
(47,491,l),
(116,422,l)
);
},
{
closed = 1;
nodes = (
(194,240,o),
(150,284,o),
(150,340,cs),
(150,396,o),
(194,440,o),
(250,440,cs),
(305,440,o),
(350,396,o),
(350,340,cs),
(350,284,o),
(305,240,o),
(250,240,cs)
);
},
{
closed = 1;
nodes = (
(453,189,l),
(385,257,l),
(333,205,l),
(401,137,l)
);
},
{
closed = 1;
nodes = (
(453,491,l),
(401,543,l),
(333,475,l),
(383,421,l)
);
}
);
width = 500;
},
{
layerId = "05E54F0F-8425-4B5B-B0EB-B578BBC85A7B";
shapes = (
{
closed = 1;
nodes = (
(346,165,o),
(425,243,o),
(425,340,cs),
(425,437,o),
(346,515,o),
(250,515,cs),
(153,515,o),
(75,437,o),
(75,340,cs),
(75,243,o),
(153,165,o),
(250,165,cs)
);
},
{
closed = 1;
nodes = (
(186,188,l),
(95,273,l),
(29,207,l),
(117,119,l)
);
},
{
closed = 1;
nodes = (
(183,495,l),
(117,561,l),
(29,473,l),
(98,404,l)
);
},
{
closed = 1;
nodes = (
(222,290,o),
(200,312,o),
(200,340,cs),
(200,368,o),
(222,390,o),
(250,390,cs),
(277,390,o),
(300,368,o),
(300,340,cs),
(300,312,o),
(277,290,o),
(250,290,cs)
);
},
{
closed = 1;
nodes = (
(471,207,l),
(403,275,l),
(315,187,l),
(383,119,l)
);
},
{
closed = 1;
nodes = (
(471,473,l),
(383,561,l),
(315,493,l),
(401,403,l)
);
}
);
width = 500;
},
{
layerId = m004;
shapes = (
{
closed = 1;
nodes = (
(346,165,o),
(425,243,o),
(425,340,cs),
(425,437,o),
(346,515,o),
(250,515,cs),
(153,515,o),
(75,437,o),
(75,340,cs),
(75,243,o),
(153,165,o),
(250,165,cs)
);
},
{
closed = 1;
nodes = (
(156,218,l),
(125,243,l),
(59,177,l),
(87,149,l)
);
},
{
closed = 1;
nodes = (
(153,465,l),
(87,531,l),
(59,503,l),
(128,434,l)
);
},
{
closed = 1;
nodes = (
(175,205,o),
(115,265,o),
(115,340,cs),
(115,415,o),
(175,475,o),
(250,475,cs),
(324,475,o),
(385,415,o),
(385,340,cs),
(385,265,o),
(324,205,o),
(250,205,cs)
);
},
{
closed = 1;
nodes = (
(441,177,l),
(373,245,l),
(345,217,l),
(413,149,l)
);
},
{
closed = 1;
nodes = (
(441,503,l),
(413,531,l),
(345,463,l),
(371,433,l)
);
}
);
width = 500;
},
{
layerId = m005;
shapes = (
{
closed = 1;
nodes = (
(346,165,o),
(425,243,o),
(425,340,cs),
(425,437,o),
(346,515,o),
(250,515,cs),
(153,515,o),
(75,437,o),
(75,340,cs),
(75,243,o),
(153,165,o),
(250,165,cs)
);
},
{
closed = 1;
nodes = (
(160,214,l),
(121,247,l),
(55,181,l),
(91,145,l)
);
},
{
closed = 1;
nodes = (
(157,469,l),
(91,535,l),
(55,499,l),
(124,430,l)
);
},
{
closed = 1;
nodes = (
(194,240,o),
(150,284,o),
(150,340,cs),
(150,396,o),
(194,440,o),
(250,440,cs),
(305,440,o),
(350,396,o),
(350,340,cs),
(350,284,o),
(305,240,o),
(250,240,cs)
);
},
{
closed = 1;
nodes = (
(445,181,l),
(377,249,l),
(341,213,l),
(409,145,l)
);
},
{
closed = 1;
nodes = (
(445,499,l),
(409,535,l),
(341,467,l),
(375,429,l)
);
}
);
width = 500;
},
{
layerId = m006;
shapes = (
{
closed = 1;
nodes = (
(346,165,o),
(425,243,o),
(425,340,cs),
(425,437,o),
(346,515,o),
(250,515,cs),
(153,515,o),
(75,437,o),
(75,340,cs),
(75,243,o),
(153,165,o),
(250,165,cs)
);
},
{
closed = 1;
nodes = (
(169,205,l),
(112,256,l),
(46,190,l),
(100,136,l)
);
},
{
closed = 1;
nodes = (
(166,478,l),
(100,544,l),
(46,490,l),
(115,421,l)
);
},
{
closed = 1;
nodes = (
(222,290,o),
(200,312,o),
(200,340,cs),
(200,368,o),
(222,390,o),
(250,390,cs),
(277,390,o),
(300,368,o),
(300,340,cs),
(300,312,o),
(277,290,o),
(250,290,cs)
);
},
{
closed = 1;
nodes = (
(454,190,l),
(386,258,l),
(332,204,l),
(400,136,l)
);
},
{
closed = 1;
nodes = (
(454,490,l),
(400,544,l),
(332,476,l),
(384,420,l)
);
}
);
width = 500;
}
);
unicode = 164;
}
{
glyphname = brokenbar;
layers = (
{
hints = (
{
horizontal = 1;
place = (-200,900);
type = Stem;
},
{
place = (95,85);
type = Stem;
}
);
layerId = m01;
shapes = (
{
closed = 1;
nodes = (
(175,400,l),
(175,700,l),
(75,700,l),
(75,400,l)
);
},
{
closed = 1;
nodes = (
(75,100,l),
(75,-200,l),
(175,-200,l),
(175,100,l)
);
}
);
width = 250;
},
{
layerId = "481D16E4-1E98-4559-AE79-559AF135D401";
shapes = (
{
closed = 1;
nodes = (
(150,400,l),
(150,700,l),
(100,700,l),
(100,400,l)
);
},
{
closed = 1;
nodes = (
(100,100,l),
(100,-200,l),
(150,-200,l),
(150,100,l)
);
}
);
width = 250;
},
{
layerId = "05E54F0F-8425-4B5B-B0EB-B578BBC85A7B";
shapes = (
{
closed = 1;
nodes = (
(250,400,l),
(250,700,l),
(50,700,l),
(50,400,l)
);
},
{
closed = 1;
nodes = (
(50,100,l),
(50,-200,l),
(250,-200,l),
(250,100,l)
);
}
);
width = 300;
},
{
layerId = m004;
shapes = (
{
closed = 1;
nodes = (
(130,400,l),
(130,700,l),
(90,700,l),
(90,400,l)
);
},
{
closed = 1;
nodes = (
(90,100,l),
(90,-200,l),
(130,-200,l),
(130,100,l)
);
}
);
width = 220;
},
{
hints = (
{
horizontal = 1;
place = (-200,900);
type = Stem;
},
{
place = (95,85);
type = Stem;
}
);
layerId = m005;
shapes = (
{
closed = 1;
nodes = (
(140,400,l),
(140,700,l),
(60,700,l),
(60,400,l)
);
},
{
closed = 1;
nodes = (
(60,100,l),
(60,-200,l),
(140,-200,l),
(140,100,l)
);
}
);
width = 200;
},
{
layerId = m006;
shapes = (
{
closed = 1;
nodes = (
(150,400,l),
(150,700,l),
(30,700,l),
(30,400,l)
);
},
{
closed = 1;
nodes = (
(30,100,l),
(30,-200,l),
(150,-200,l),
(150,100,l)
);
}
);
width = 180;
},
{
associatedMasterId = "481D16E4-1E98-4559-AE79-559AF135D401";
layerId = "3EF2FCCD-CB93-4CD0-83B9-CF96778F0091";
width = 612.34458;
}
);
metricLeft = "=H";
metricRight = "=H";
note = bar;
unicode = 166;
}
{
glyphname = section;
layers = (
{
hints = (
{
horizontal = 1;
place = (-10,64);
type = Stem;
},
{
horizontal = 1;
place = (649,61);
type = Stem;
},
{
place = (40,68);
type = Stem;
},
{
place = (259,84);
type = Stem;
}
);
layerId = m01;
shapes = (
{
closed = 1;
nodes = (
(313,138,l),
(354,176,o),
(377,232,o),
(377,289,cs),
(377,386,o),
(318,439,o),
(237,464,cs),
(171,484,o),
(147,505,o),
(147,542,cs),
(147,581,o),
(170,602,o),
(212,602,c),
(212,677,l),
(118,677,o),
(57,624,o),
(57,542,cs),
(57,461,o),
(114,426,o),
(187,400,cs),
(254,376,o),
(302,343,o),
(302,289,cs),
(302,246,o),
(286,210,o),
(262,186,c)
);
},
{
closed = 1;
nodes = (
(334,594,o),
(342,620,o),
(349,642,c),
(349,642,o),
(282,677,o),
(212,677,c),
(212,602,l),
(282,602,o),
(327,572,o),
(327,572,c)
);
},
{
closed = 1;
nodes = (
(192,-2,l),
(107,-2,o),
(62,28,o),
(62,28,c),
(55,5,o),
(47,-19,o),
(40,-42,c),
(40,-42,o),
(107,-77,o),
(192,-77,c)
);
},
{
closed = 1;
nodes = (
(125,483,l),
(77,450,o),
(47,395,o),
(47,341,cs),
(47,250,o),
(112,201,o),
(187,176,cs),
(252,154,o),
(277,132,o),
(277,88,cs),
(277,30,o),
(247,-2,o),
(192,-2,c),
(192,-77,l),
(304,-77,o),
(377,-12,o),
(377,88,cs),
(377,175,o),
(316,212,o),
(237,240,cs),
(170,264,o),
(122,294,o),
(122,341,cs),
(122,387,o),
(152,425,o),
(185,439,c)
);
}
);
width = 417;
},
{
layerId = "481D16E4-1E98-4559-AE79-559AF135D401";
shapes = (
{
closed = 1;
nodes = (
(347,153,l),
(379,190,o),
(397,239,o),
(397,289,cs),
(397,374,o),
(338,424,o),
(232,457,cs),
(162,479,o),
(122,495,o),
(122,542,cs),
(122,603,o),
(161,637,o),
(232,637,c),
(232,677,l),
(138,677,o),
(77,624,o),
(77,542,cs),
(77,464,o),
(136,440,o),
(232,407,cs),
(306,382,o),
(352,342,o),
(352,289,cs),
(352,246,o),
(340,205,o),
(317,174,c)
);
},
{
closed = 1;
nodes = (
(344,623,o),
(348,636,o),
(351,649,c),
(309,667,o),
(266,677,o),
(232,677,c),
(232,637,l),
(273,637,o),
(308,627,o),
(341,610,c)
);
},
{
closed = 1;
nodes = (
(212,-37,l),
(171,-37,o),
(136,-27,o),
(103,-10,c),
(100,-23,o),
(96,-36,o),
(93,-49,c),
(135,-67,o),
(178,-77,o),
(212,-77,c)
);
},
{
closed = 1;
nodes = (
(135,476,l),
(93,443,o),
(67,391,o),
(67,341,cs),
(67,263,o),
(132,216,o),
(232,183,cs),
(303,160,o),
(347,141,o),
(347,88,cs),
(347,8,o),
(299,-37,o),
(212,-37,c),
(212,-77,l),
(324,-77,o),
(397,-12,o),
(397,88,cs),
(397,173,o),
(331,200,o),
(232,233,cs),
(161,257,o),
(112,294,o),
(112,341,cs),
(112,386,o),
(132,431,o),
(165,457,c)
);
}
);
width = 464;
},
{
layerId = "05E54F0F-8425-4B5B-B0EB-B578BBC85A7B";
shapes = (
{
closed = 1;
nodes = (
(369,124,l),
(440,168,o),
(474,247,o),
(474,322,cs),
(474,403,o),
(421,448,o),
(309,482,cs),
(254,499,o),
(234,498,o),
(234,522,cs),
(234,543,o),
(247,552,o),
(284,552,c),
(259,677,l),
(120,677,o),
(54,626,o),
(54,517,cs),
(54,421,o),
(114,388,o),
(209,357,cs),
(260,340,o),
(324,332,o),
(324,292,cs),
(324,257,o),
(308,230,o),
(267,219,c)
);
},
{
closed = 1;
nodes = (
(442,552,o),
(454,592,o),
(465,627,c),
(465,627,o),
(384,677,o),
(259,677,c),
(284,552,l),
(359,552,o),
(431,517,o),
(431,517,c)
);
},
{
closed = 1;
nodes = (
(209,48,l),
(139,48,o),
(67,83,o),
(67,83,c),
(56,46,o),
(44,10,o),
(33,-27,c),
(33,-27,o),
(114,-77,o),
(239,-77,c)
);
},
{
closed = 1;
nodes = (
(146,478,l),
(79,436,o),
(44,357,o),
(44,283,cs),
(44,212,o),
(104,157,o),
(209,123,cs),
(257,108,o),
(274,108,o),
(274,83,cs),
(274,58,o),
(258,48,o),
(209,48,c),
(239,-77,l),
(398,-77,o),
(474,-24,o),
(474,88,cs),
(474,194,o),
(411,218,o),
(309,248,cs),
(252,265,o),
(194,273,o),
(194,313,cs),
(194,348,o),
(211,378,o),
(247,384,c)
);
}
);
width = 507;
},
{
layerId = m004;
shapes = (
{
closed = 1;
nodes = (
(340,153,l),
(372,190,o),
(390,239,o),
(390,289,cs),
(390,374,o),
(331,424,o),
(225,457,cs),
(155,479,o),
(115,495,o),
(115,542,cs),
(115,610,o),
(154,652,o),
(225,652,c),
(225,677,l),
(131,677,o),
(70,624,o),
(70,542,cs),
(70,464,o),
(129,440,o),
(225,407,cs),
(299,382,o),
(350,342,o),
(350,289,cs),
(350,246,o),
(343,205,o),
(320,174,c)
);
},
{
closed = 1;
nodes = (
(349,610,o),
(344,649,o),
(344,649,c),
(302,667,o),
(259,677,o),
(225,677,c),
(225,652,l),
(275,652,o),
(319,610,o),
(334,610,c)
);
},
{
closed = 1;
nodes = (
(205,-52,l),
(155,-52,o),
(111,-10,o),
(96,-10,c),
(81,-10,o),
(86,-49,o),
(86,-49,c),
(128,-67,o),
(171,-77,o),
(205,-77,c)
);
},
{
closed = 1;
nodes = (
(128,476,l),
(86,443,o),
(60,391,o),
(60,341,cs),
(60,263,o),
(125,216,o),
(225,183,cs),
(296,160,o),
(340,141,o),
(340,88,cs),
(340,1,o),
(292,-52,o),
(205,-52,c),
(205,-77,l),
(317,-77,o),
(390,-12,o),
(390,88,cs),
(390,173,o),
(324,200,o),
(225,233,cs),
(154,257,o),
(100,294,o),
(100,341,cs),
(100,386,o),
(115,431,o),
(148,457,c)
);
}
);
width = 450;
},
{
hints = (
{
horizontal = 1;
place = (-10,64);
type = Stem;
},
{
horizontal = 1;
place = (649,61);
type = Stem;
},
{
place = (40,68);
type = Stem;
},
{
place = (259,84);
type = Stem;
}
);
layerId = m005;
shapes = (
{
closed = 1;
nodes = (
(313,138,l),
(354,176,o),
(377,232,o),
(377,289,cs),
(377,386,o),
(318,439,o),
(237,464,cs),
(171,484,o),
(147,505,o),
(147,542,cs),
(147,581,o),
(170,627,o),
(212,627,c),
(212,677,l),
(118,677,o),
(57,624,o),
(57,542,cs),
(57,461,o),
(114,426,o),
(187,400,cs),
(254,376,o),
(315,343,o),
(315,289,cs),
(315,246,o),
(301,210,o),
(277,186,c)
);
},
{
closed = 1;
nodes = (
(352,572,o),
(349,620,o),
(349,642,c),
(349,642,o),
(282,677,o),
(212,677,c),
(212,627,l),
(282,627,o),
(302,572,o),
(327,572,cs)
);
},
{
closed = 1;
nodes = (
(192,-27,l),
(122,-27,o),
(87,28,o),
(62,28,c),
(37,28,o),
(40,-19,o),
(40,-42,c),
(40,-42,o),
(107,-77,o),
(192,-77,c)
);
},
{
closed = 1;
nodes = (
(125,483,l),
(77,450,o),
(47,395,o),
(47,341,cs),
(47,250,o),
(112,201,o),
(187,176,cs),
(252,154,o),
(277,132,o),
(277,88,cs),
(277,30,o),
(247,-27,o),
(192,-27,c),
(192,-77,l),
(304,-77,o),
(377,-12,o),
(377,88,cs),
(377,175,o),
(316,212,o),
(237,240,cs),
(170,264,o),
(109,294,o),
(109,341,cs),
(109,387,o),
(127,425,o),
(160,439,c)
);
}
);
width = 417;
},
{
layerId = m006;
shapes = (
{
closed = 1;
nodes = (
(361,124,l),
(432,168,o),
(466,247,o),
(466,322,cs),
(466,403,o),
(413,448,o),
(301,482,cs),
(246,499,o),
(226,517,o),
(226,547,cs),
(226,581,o),
(239,602,o),
(276,602,c),
(251,677,l),
(112,677,o),
(46,626,o),
(46,517,cs),
(46,421,o),
(106,388,o),
(201,357,cs),
(252,340,o),
(341,317,o),
(341,282,cs),
(341,247,o),
(325,230,o),
(284,219,c)
);
},
{
closed = 1;
nodes = (
(481,517,o),
(457,627,o),
(457,627,c),
(457,627,o),
(376,677,o),
(251,677,c),
(276,602,l),
(346,602,o),
(365,517,o),
(423,517,cs)
);
},
{
closed = 1;
nodes = (
(201,-2,l),
(131,-2,o),
(117,83,o),
(59,83,cs),
(1,83,o),
(25,-27,o),
(25,-27,c),
(25,-27,o),
(106,-77,o),
(231,-77,c)
);
},
{
closed = 1;
nodes = (
(138,478,l),
(71,436,o),
(36,357,o),
(36,283,cs),
(36,212,o),
(96,157,o),
(201,123,cs),
(249,108,o),
(266,89,o),
(266,58,cs),
(266,20,o),
(250,-2,o),
(201,-2,c),
(231,-77,l),
(390,-77,o),
(466,-24,o),
(466,88,cs),
(466,194,o),
(403,218,o),
(301,248,cs),
(244,265,o),
(161,288,o),
(161,323,cs),
(161,358,o),
(178,378,o),
(214,384,c)
);
}
);
width = 486;
}
);
metricLeft = "=|";
metricRight = "=s";
note = section;
unicode = 167;
userData = {
KernOnSpecialSpacing = {
R = symbols;
};
};
}
{
export = 0;
glyphname = logicalnot;
layers = (
{
hints = (
{
horizontal = 1;
place = (223,65);
type = Stem;
},
{
place = (425,55);
type = Stem;
}
);
layerId = m01;
shapes = (
{
closed = 1;
nodes = (
(480,288,l),
(80,288,l),
(80,223,l),
(425,223,l),
(425,113,l),
(480,113,l)
);
}
);
width = 560;
},
{
layerId = "481D16E4-1E98-4559-AE79-559AF135D401";
width = 600;
},
{
layerId = "05E54F0F-8425-4B5B-B0EB-B578BBC85A7B";
width = 600;
},
{
layerId = m004;
width = 600;
},
{
hints = (
{
horizontal = 1;
place = (223,65);
type = Stem;
},
{
place = (425,55);
type = Stem;
}
);
layerId = m005;
shapes = (
{
closed = 1;
nodes = (
(480,288,l),
(80,288,l),
(80,223,l),
(425,223,l),
(425,113,l),
(480,113,l)
);
}
);
width = 560;
},
{
layerId = m006;
width = 600;
},
{
associatedMasterId = "481D16E4-1E98-4559-AE79-559AF135D401";
layerId = "3EF2FCCD-CB93-4CD0-83B9-CF96778F0091";
width = 601.51933;
}
);
note = logicalnot;
unicode = 172;
}
{
glyphname = registered;
layers = (
{
layerId = "481D16E4-1E98-4559-AE79-559AF135D401";
shapes = (
{
closed = 1;
nodes = (
(600,-10,o),
(754,144,o),
(754,334,cs),
(754,523,o),
(600,677,o),
(411,677,cs),
(221,677,o),
(67,523,o),
(67,334,cs),
(67,144,o),
(221,-10,o),
(411,-10,cs)
);
},
{
closed = 1;
nodes = (
(243,30,o),
(107,166,o),
(107,334,cs),
(107,501,o),
(243,637,o),
(411,637,cs),
(578,637,o),
(714,501,o),
(714,334,cs),
(714,166,o),
(578,30,o),
(411,30,cs)
);
},
{
closed = 1;
nodes = (
(349,127,l),
(349,319,l),
(414,319,ls),
(505,319,o),
(550,356,o),
(550,431,cs),
(550,505,o),
(505,541,o),
(414,541,cs),
(305,541,l),
(305,127,l)
);
},
{
closed = 1;
nodes = (
(557,127,l),
(545,240,o),
(495,309,o),
(453,337,c),
(403,330,l),
(444,309,o),
(500,243,o),
(513,127,c)
);
},
{
closed = 1;
nodes = (
(350,503,l),
(415,503,ls),
(480,503,o),
(507,481,o),
(507,430,cs),
(507,379,o),
(480,357,o),
(415,357,cs),
(350,357,l)
);
}
);
width = 821;
},
{
hints = (
{
horizontal = 1;
place = (152,56);
type = Stem;
},
{
horizontal = 1;
place = (463.5,52.5);
type = Stem;
},
{
place = (262,70);
type = Stem;
},
{
horizontal = 1;
place = (134,21);
target = up;
type = BottomGhost;
},
{
horizontal = 1;
place = (303.2,40.2);
type = Stem;
},
{
horizontal = 1;
place = (492.8,41.4);
type = Stem;
},
{
place = (280,60);
type = Stem;
},
{
place = (481.6,59.4);
type = Stem;
}
);
layerId = m01;
shapes = (
{
closed = 1;
nodes = (
(583,-10,o),
(737,144,o),
(737,334,cs),
(737,523,o),
(583,677,o),
(394,677,cs),
(204,677,o),
(50,523,o),
(50,334,cs),
(50,144,o),
(204,-10,o),
(394,-10,cs)
);
},
{
closed = 1;
nodes = (
(238,50,o),
(110,178,o),
(110,334,cs),
(110,489,o),
(238,617,o),
(394,617,cs),
(549,617,o),
(677,489,o),
(677,334,cs),
(677,178,o),
(549,50,o),
(394,50,cs)
);
},
{
closed = 1;
nodes = (
(346,127,l),
(346,307,l),
(396,307,ls),
(491,307,o),
(547,350,o),
(547,424,cs),
(547,499,o),
(491,541,o),
(396,541,cs),
(272,541,l),
(272,127,l)
);
},
{
closed = 1;
nodes = (
(557,127,l),
(545,233,o),
(495,299,o),
(453,326,c),
(372,321,l),
(414,297,o),
(470,231,o),
(483,127,c)
);
},
{
closed = 1;
nodes = (
(347,479,l),
(397,479,ls),
(452,479,o),
(474,462,o),
(474,424,cs),
(474,386,o),
(452,369,o),
(397,369,cs),
(347,369,l)
);
}
);
width = 787;
},
{
layerId = "05E54F0F-8425-4B5B-B0EB-B578BBC85A7B";
shapes = (
{
closed = 1;
nodes = (
(566,-10,o),
(720,144,o),
(720,334,cs),
(720,523,o),
(566,677,o),
(377,677,cs),
(187,677,o),
(33,523,o),
(33,334,cs),
(33,144,o),
(187,-10,o),
(377,-10,cs)
);
},
{
closed = 1;
nodes = (
(243,90,o),
(133,200,o),
(133,334,cs),
(133,467,o),
(243,577,o),
(377,577,cs),
(510,577,o),
(620,467,o),
(620,334,cs),
(620,200,o),
(510,90,o),
(377,90,cs)
);
},
{
closed = 1;
nodes = (
(352,167,l),
(352,297,l),
(375,297,ls),
(468,297,o),
(520,334,o),
(520,401,cs),
(520,465,o),
(468,501,o),
(375,501,cs),
(252,501,l),
(252,167,l)
);
},
{
closed = 1;
nodes = (
(542,167,l),
(527,282,o),
(461,313,o),
(461,313,c),
(362,297,l),
(362,297,o),
(427,272,o),
(442,167,c)
);
},
{
closed = 1;
nodes = (
(353,431,l),
(375,431,ls),
(406,431,o),
(420,421,o),
(420,401,cs),
(420,381,o),
(406,372,o),
(375,372,cs),
(353,372,l)
);
}
);
width = 753;
},
{
layerId = m004;
shapes = (
{
closed = 1;
nodes = (
(593,-10,o),
(747,144,o),
(747,334,cs),
(747,523,o),
(593,677,o),
(404,677,cs),
(214,677,o),
(60,523,o),
(60,334,cs),
(60,144,o),
(214,-10,o),
(404,-10,cs)
);
},
{
closed = 1;
nodes = (
(236,30,o),
(100,166,o),
(100,334,cs),
(100,501,o),
(236,637,o),
(404,637,cs),
(571,637,o),
(707,501,o),
(707,334,cs),
(707,166,o),
(571,30,o),
(404,30,cs)
);
},
{
closed = 1;
nodes = (
(342,129,l),
(342,321,l),
(407,321,ls),
(499,321,o),
(543,357,o),
(543,431,cs),
(543,504,o),
(499,539,o),
(407,539,cs),
(298,539,l),
(298,129,l)
);
},
{
closed = 1;
nodes = (
(550,129,l),
(538,239,o),
(489,307,o),
(446,335,c),
(401,329,l),
(441,306,o),
(493,241,o),
(506,129,c)
);
},
{
closed = 1;
nodes = (
(343,511,l),
(408,511,ls),
(472,511,o),
(500,487,o),
(500,430,cs),
(500,374,o),
(472,349,o),
(408,349,cs),
(343,349,l)
);
}
);
width = 807;
},
{
hints = (
{
horizontal = 1;
place = (152,56);
type = Stem;
},
{
horizontal = 1;
place = (463.5,52.5);
type = Stem;
},
{
place = (269,70);
type = Stem;
},
{
horizontal = 1;
place = (134,21);
target = up;
type = BottomGhost;
},
{
horizontal = 1;
place = (303.2,40.2);
type = Stem;
},
{
horizontal = 1;
place = (492.8,41.4);
type = Stem;
},
{
place = (280,60);
type = Stem;
},
{
place = (481.6,59.4);
type = Stem;
}
);
layerId = m005;
shapes = (
{
closed = 1;
nodes = (
(578,-10,o),
(732,144,o),
(732,334,cs),
(732,523,o),
(578,677,o),
(389,677,cs),
(199,677,o),
(45,523,o),
(45,334,cs),
(45,144,o),
(199,-10,o),
(389,-10,cs)
);
},
{
closed = 1;
nodes = (
(221,30,o),
(85,166,o),
(85,334,cs),
(85,501,o),
(221,637,o),
(389,637,cs),
(556,637,o),
(692,501,o),
(692,334,cs),
(692,166,o),
(556,30,o),
(389,30,cs)
);
},
{
closed = 1;
nodes = (
(341,127,l),
(341,316,l),
(391,316,ls),
(486,316,o),
(542,357,o),
(542,429,cs),
(542,500,o),
(486,541,o),
(391,541,cs),
(267,541,l),
(267,127,l)
);
},
{
closed = 1;
nodes = (
(552,127,l),
(540,233,o),
(490,304,o),
(448,336,c),
(395,331,l),
(395,335,o),
(461,256,o),
(478,127,c)
);
},
{
closed = 1;
nodes = (
(342,497,l),
(392,497,ls),
(446,497,o),
(469,477,o),
(469,429,cs),
(469,381,o),
(446,360,o),
(392,360,cs),
(342,360,l)
);
}
);
width = 777;
},
{
layerId = m006;
shapes = (
{
closed = 1;
nodes = (
(553,-10,o),
(707,144,o),
(707,334,cs),
(707,523,o),
(553,677,o),
(364,677,cs),
(174,677,o),
(20,523,o),
(20,334,cs),
(20,144,o),
(174,-10,o),
(364,-10,cs)
);
},
{
closed = 1;
nodes = (
(217,65,o),
(95,187,o),
(95,334,cs),
(95,480,o),
(217,602,o),
(364,602,cs),
(510,602,o),
(632,480,o),
(632,334,cs),
(632,187,o),
(510,65,o),
(364,65,cs)
);
},
{
closed = 1;
nodes = (
(339,167,l),
(339,315,l),
(362,315,ls),
(455,315,o),
(507,348,o),
(507,408,cs),
(507,468,o),
(455,501,o),
(362,501,cs),
(239,501,l),
(239,167,l)
);
},
{
closed = 1;
nodes = (
(529,167,l),
(514,282,o),
(448,331,o),
(448,331,c),
(349,317,l),
(349,317,o),
(414,272,o),
(429,167,c)
);
},
{
closed = 1;
nodes = (
(340,456,l),
(362,456,ls),
(393,456,o),
(407,440,o),
(407,408,cs),
(407,375,o),
(393,360,o),
(362,360,cs),
(340,360,l)
);
}
);
width = 727;
}
);
metricLeft = "=O";
metricRight = "=O";
unicode = 174;
userData = {
KernOnSpecialSpacing = {
L = superiors;
};
};
}
{
glyphname = macron;
layers = (
{
hints = (
{
horizontal = 1;
place = (635,65);
type = Stem;
},
{
place = (50,400);
type = Stem;
}
);
layerId = m01;
shapes = (
{
ref = macroncomb;
}
);
width = 500;
},
{
layerId = "481D16E4-1E98-4559-AE79-559AF135D401";
shapes = (
{
ref = macroncomb;
}
);
width = 500;
},
{
layerId = "05E54F0F-8425-4B5B-B0EB-B578BBC85A7B";
shapes = (
{
ref = macroncomb;
}
);
width = 500;
},
{
layerId = m004;
shapes = (
{
ref = macroncomb;
}
);
width = 500;
},
{
hints = (
{
horizontal = 1;
place = (635,65);
type = Stem;
},
{
place = (50,400);
type = Stem;
}
);
layerId = m005;
shapes = (
{
ref = macroncomb;
}
);
width = 500;
},
{
layerId = m006;
shapes = (
{
ref = macroncomb;
}
);
width = 500;
},
{
associatedMasterId = "481D16E4-1E98-4559-AE79-559AF135D401";
hints = (
{
horizontal = 1;
place = (-24,-2);
type = Stem;
},
{
place = (-2,-15);
type = Stem;
}
);
layerId = "3EF2FCCD-CB93-4CD0-83B9-CF96778F0091";
shapes = (
{
closed = 1;
nodes = (
(431,700,l),
(69,700,l),
(69,672,l),
(431,672,l)
);
}
);
width = 500;
}
);
note = macron;
unicode = 175;
}
{
glyphname = degree;
kernLeft = KO_degree;
kernRight = KO_degree;
layers = (
{
hints = (
{
horizontal = 1;
place = (400,65);
type = Stem;
},
{
horizontal = 1;
place = (660,65);
type = Stem;
},
{
place = (40,65);
type = Stem;
},
{
place = (300,65);
type = Stem;
}
);
layerId = m01;
shapes = (
{
closed = 1;
nodes = (
(50,482,o),
(105,427,o),
(174,427,cs),
(243,427,o),
(300,482,o),
(300,552,cs),
(300,621,o),
(243,677,o),
(174,677,cs),
(105,677,o),
(50,621,o),
(50,552,cs)
);
},
{
closed = 1;
nodes = (
(119,585,o),
(144,611,o),
(174,611,cs),
(205,611,o),
(229,585,o),
(229,552,cs),
(229,519,o),
(205,493,o),
(174,493,cs),
(144,493,o),
(119,519,o),
(119,552,cs)
);
}
);
width = 350;
},
{
layerId = "481D16E4-1E98-4559-AE79-559AF135D401";
shapes = (
{
closed = 1;
nodes = (
(75,482,o),
(130,427,o),
(199,427,cs),
(268,427,o),
(325,482,o),
(325,552,cs),
(325,621,o),
(268,677,o),
(199,677,cs),
(130,677,o),
(75,621,o),
(75,552,cs)
);
},
{
closed = 1;
nodes = (
(115,600,o),
(152,639,o),
(199,639,cs),
(246,639,o),
(284,600,o),
(284,552,cs),
(284,503,o),
(246,465,o),
(199,465,cs),
(152,465,o),
(115,503,o),
(115,552,cs)
);
}
);
width = 400;
},
{
layerId = "05E54F0F-8425-4B5B-B0EB-B578BBC85A7B";
shapes = (
{
closed = 1;
nodes = (
(15,451,o),
(79,387,o),
(159,387,cs),
(239,387,o),
(305,451,o),
(305,532,cs),
(305,612,o),
(239,677,o),
(159,677,cs),
(79,677,o),
(15,612,o),
(15,532,cs)
);
},
{
closed = 1;
nodes = (
(114,560,o),
(134,582,o),
(159,582,cs),
(184,582,o),
(204,560,o),
(204,532,cs),
(204,504,o),
(184,482,o),
(159,482,cs),
(134,482,o),
(114,504,o),
(114,532,cs)
);
}
);
width = 320;
},
{
layerId = m004;
shapes = (
{
closed = 1;
nodes = (
(75,482,o),
(130,427,o),
(199,427,cs),
(268,427,o),
(325,482,o),
(325,552,cs),
(325,621,o),
(268,677,o),
(199,677,cs),
(130,677,o),
(75,621,o),
(75,552,cs)
);
},
{
closed = 1;
nodes = (
(150,459,o),
(110,501,o),
(110,552,cs),
(110,602,o),
(150,643,o),
(200,643,cs),
(249,643,o),
(290,602,o),
(290,552,cs),
(290,501,o),
(249,459,o),
(200,459,cs)
);
}
);
width = 400;
},
{
hints = (
{
horizontal = 1;
place = (400,65);
type = Stem;
},
{
horizontal = 1;
place = (660,65);
type = Stem;
},
{
place = (40,65);
type = Stem;
},
{
place = (300,65);
type = Stem;
}
);
layerId = m005;
shapes = (
{
closed = 1;
nodes = (
(50,482,o),
(105,427,o),
(174,427,cs),
(243,427,o),
(300,482,o),
(300,552,cs),
(300,621,o),
(243,677,o),
(174,677,cs),
(105,677,o),
(50,621,o),
(50,552,cs)
);
},
{
closed = 1;
nodes = (
(132,475,o),
(99,509,o),
(99,552,cs),
(99,595,o),
(132,630,o),
(174,630,cs),
(216,630,o),
(249,595,o),
(249,552,cs),
(249,509,o),
(216,475,o),
(174,475,cs)
);
}
);
width = 350;
},
{
layerId = m006;
shapes = (
{
closed = 1;
nodes = (
(15,451,o),
(79,387,o),
(159,387,cs),
(239,387,o),
(305,451,o),
(305,532,cs),
(305,612,o),
(239,677,o),
(159,677,cs),
(79,677,o),
(15,612,o),
(15,532,cs)
);
},
{
closed = 1;
nodes = (
(120,457,o),
(90,490,o),
(90,532,cs),
(90,573,o),
(120,605,o),
(160,605,cs),
(199,605,o),
(230,573,o),
(230,532,cs),
(230,490,o),
(199,457,o),
(160,457,cs)
);
}
);
width = 320;
},
{
associatedMasterId = "481D16E4-1E98-4559-AE79-559AF135D401";
layerId = "3EF2FCCD-CB93-4CD0-83B9-CF96778F0091";
width = 607.40675;
}
);
metricLeft = "=period";
metricRight = "=period";
note = degree;
unicode = 176;
userData = {
KernOnSpecialSpacing = {
L = superiors;
R = superiors;
};
};
}
{
glyphname = plusminus;
layers = (
{
hints = (
{
horizontal = 1;
place = (85,65);
type = Stem;
},
{
horizontal = 1;
place = (368,65);
type = Stem;
},
{
place = (248,65);
type = Stem;
},
{
horizontal = 1;
place = (313,65);
type = Stem;
},
{
place = (248,65);
type = Stem;
}
);
layerId = m01;
shapes = (
{
closed = 1;
nodes = (
(309,190,l),
(309,510,l),
(229,510,l),
(229,190,l)
);
},
{
closed = 1;
nodes = (
(469,310,l),
(469,390,l),
(69,390,l),
(69,310,l)
);
},
{
pos = (-1,-137);
ref = minus;
}
);
width = 525;
},
{
layerId = "481D16E4-1E98-4559-AE79-559AF135D401";
shapes = (
{
closed = 1;
nodes = (
(320,190,l),
(320,510,l),
(280,510,l),
(280,190,l)
);
},
{
closed = 1;
nodes = (
(500,330,l),
(500,370,l),
(100,370,l),
(100,330,l)
);
},
{
pos = (-1,-137);
ref = minus;
}
);
width = 600;
},
{
layerId = "05E54F0F-8425-4B5B-B0EB-B578BBC85A7B";
shapes = (
{
closed = 1;
nodes = (
(313,190,l),
(313,510,l),
(188,510,l),
(188,190,l)
);
},
{
closed = 1;
nodes = (
(450,288,l),
(450,413,l),
(50,413,l),
(50,288,l)
);
},
{
pos = (0,-168);
ref = minus;
}
);
width = 500;
},
{
layerId = m004;
shapes = (
{
closed = 1;
nodes = (
(310,190,l),
(310,510,l),
(270,510,l),
(270,190,l)
);
},
{
closed = 1;
nodes = (
(490,330,l),
(490,370,l),
(90,370,l),
(90,330,l)
);
},
{
pos = (0,-137);
ref = minus;
}
);
width = 580;
},
{
hints = (
{
horizontal = 1;
place = (85,65);
type = Stem;
},
{
horizontal = 1;
place = (368,65);
type = Stem;
},
{
place = (248,65);
type = Stem;
}
);
layerId = m005;
shapes = (
{
closed = 1;
nodes = (
(305,190,l),
(305,510,l),
(225,510,l),
(225,190,l)
);
},
{
closed = 1;
nodes = (
(465,310,l),
(465,390,l),
(65,390,l),
(65,310,l)
);
},
{
pos = (-5,-137);
ref = minus;
}
);
width = 520;
},
{
layerId = m006;
shapes = (
{
closed = 1;
nodes = (
(303,190,l),
(303,510,l),
(178,510,l),
(178,190,l)
);
},
{
closed = 1;
nodes = (
(440,288,l),
(440,413,l),
(40,413,l),
(40,288,l)
);
},
{
pos = (-10,-168);
ref = minus;
}
);
width = 460;
},
{
associatedMasterId = "481D16E4-1E98-4559-AE79-559AF135D401";
layerId = "3EF2FCCD-CB93-4CD0-83B9-CF96778F0091";
width = 601.51933;
}
);
note = plusminus;
unicode = 177;
userData = {
KernOnSpecialSpacing = {
L = math;
R = math;
};
};
}
{
export = 0;
glyphname = twosuperior;
kernLeft = KO_twosuperior;
layers = (
{
hints = (
{
horizontal = 1;
place = (330,51);
type = Stem;
},
{
horizontal = 1;
place = (641,54);
type = Stem;
},
{
place = (70,99);
type = Stem;
},
{
place = (271,81);
type = Stem;
}
);
layerId = m01;
shapes = (
{
closed = 1;
nodes = (
(361,330,l),
(361,381,l),
(169,381,l),
(171,408,o),
(192,435,o),
(225,459,cs),
(267,489,o),
(352,533,o),
(352,585,cs),
(352,657,o),
(309,695,o),
(199,695,cs),
(149,695,o),
(101,680,o),
(72,659,c),
(97,606,l),
(140,627,o),
(170,641,o),
(199,641,cs),
(239,641,o),
(271,630,o),
(271,585,cs),
(271,545,o),
(211,530,o),
(173,502,cs),
(127,469,o),
(67,419,o),
(70,330,c)
);
}
);
width = 462;
},
{
layerId = "481D16E4-1E98-4559-AE79-559AF135D401";
width = 600;
},
{
layerId = "05E54F0F-8425-4B5B-B0EB-B578BBC85A7B";
width = 600;
},
{
layerId = m004;
width = 600;
},
{
hints = (
{
horizontal = 1;
place = (330,51);
type = Stem;
},
{
horizontal = 1;
place = (641,54);
type = Stem;
},
{
place = (70,99);
type = Stem;
},
{
place = (271,81);
type = Stem;
}
);
layerId = m005;
shapes = (
{
closed = 1;
nodes = (
(361,330,l),
(361,381,l),
(169,381,l),
(171,408,o),
(192,435,o),
(225,459,cs),
(267,489,o),
(352,533,o),
(352,585,cs),
(352,657,o),
(309,695,o),
(199,695,cs),
(149,695,o),
(101,680,o),
(72,659,c),
(97,606,l),
(140,627,o),
(170,641,o),
(199,641,cs),
(239,641,o),
(271,630,o),
(271,585,cs),
(271,545,o),
(211,530,o),
(173,502,cs),
(127,469,o),
(67,419,o),
(70,330,c)
);
}
);
width = 462;
},
{
layerId = m006;
width = 600;
},
{
associatedMasterId = "481D16E4-1E98-4559-AE79-559AF135D401";
layerId = "3EF2FCCD-CB93-4CD0-83B9-CF96778F0091";
width = 605.2417;
}
);
note = twosuperior;
unicode = 178;
userData = {
KernOnSpecialSpacing = {
L = superiors;
R = superiors;
};
};
}
{
export = 0;
glyphname = onequarter;
layers = (
{
hints = (
{
horizontal = 1;
place = (0,154);
type = Stem;
},
{
horizontal = 1;
place = (325,51);
type = Stem;
},
{
place = (164,82);
type = Stem;
},
{
place = (612,80);
type = Stem;
},
{
horizontal = 1;
place = (103,51);
type = Stem;
}
);
layerId = m01;
shapes = (
{
closed = 1;
nodes = (
(640,664,l),
(588,698,l),
(175,-2,l),
(227,-36,l)
);
},
{
closed = 1;
nodes = (
(164,376,l),
(83,376,l),
(83,325,l),
(326,325,l),
(326,376,l),
(246,376,l),
(246,685,l),
(187,685,l),
(70,630,l),
(89,584,l),
(164,611,l)
);
},
{
closed = 1;
nodes = (
(429,103,l),
(612,103,l),
(612,0,l),
(692,0,l),
(692,103,l),
(741,103,l),
(741,154,l),
(692,154,l),
(692,405,l),
(631,404,l),
(631,404,o),
(570,358,o),
(501,266,cs),
(429,170,o),
(429,149,o),
(429,149,c)
);
},
{
closed = 1;
nodes = (
(614,154,l),
(512,154,l),
(520,168,o),
(540,201,o),
(559,228,cs),
(576,252,o),
(599,277,o),
(614,294,c)
);
}
);
width = 811;
},
{
layerId = "481D16E4-1E98-4559-AE79-559AF135D401";
width = 600;
},
{
layerId = "05E54F0F-8425-4B5B-B0EB-B578BBC85A7B";
width = 600;
},
{
layerId = m004;
width = 600;
},
{
hints = (
{
horizontal = 1;
place = (0,154);
type = Stem;
},
{
horizontal = 1;
place = (325,51);
type = Stem;
},
{
place = (164,82);
type = Stem;
},
{
place = (612,80);
type = Stem;
},
{
horizontal = 1;
place = (103,51);
type = Stem;
}
);
layerId = m005;
shapes = (
{
closed = 1;
nodes = (
(640,664,l),
(588,698,l),
(175,-2,l),
(227,-36,l)
);
},
{
closed = 1;
nodes = (
(164,376,l),
(83,376,l),
(83,325,l),
(326,325,l),
(326,376,l),
(246,376,l),
(246,685,l),
(187,685,l),
(70,630,l),
(89,584,l),
(164,611,l)
);
},
{
closed = 1;
nodes = (
(429,103,l),
(612,103,l),
(612,0,l),
(692,0,l),
(692,103,l),
(741,103,l),
(741,154,l),
(692,154,l),
(692,405,l),
(631,404,l),
(631,404,o),
(570,358,o),
(501,266,cs),
(429,170,o),
(429,149,o),
(429,149,c)
);
},
{
closed = 1;
nodes = (
(614,154,l),
(512,154,l),
(520,168,o),
(540,201,o),
(559,228,cs),
(576,252,o),
(599,277,o),
(614,294,c)
);
}
);
width = 811;
},
{
layerId = m006;
width = 600;
},
{
associatedMasterId = "481D16E4-1E98-4559-AE79-559AF135D401";
layerId = "3EF2FCCD-CB93-4CD0-83B9-CF96778F0091";
width = 591.98552;
}
);
note = onequarter;
unicode = 188;
userData = {
KernOnSpecialSpacing = {
L = NoKerning;
R = NoKerning;
};
};
}
{
export = 0;
glyphname = threequarters;
layers = (
{
hints = (
{
horizontal = 1;
place = (0,154);
type = Stem;
},
{
horizontal = 1;
place = (285,51);
type = Stem;
},
{
horizontal = 1;
place = (495,47);
type = Stem;
},
{
horizontal = 1;
place = (639.5,50.5);
type = Stem;
},
{
place = (67,242);
type = Stem;
},
{
place = (612,80);
type = Stem;
},
{
place = (248,88);
type = Stem;
},
{
horizontal = 1;
place = (103,51);
type = Stem;
}
);
layerId = m01;
shapes = (
{
closed = 1;
nodes = (
(640,664,l),
(588,698,l),
(175,-2,l),
(227,-36,l)
);
},
{
closed = 1;
nodes = (
(309,690,l),
(67,690,l),
(67,640,l),
(221,639,l),
(123,538,l),
(123,492,l),
(135,493,o),
(147,495,o),
(156,495,cs),
(229,495,o),
(248,460,o),
(248,422,cs),
(248,384,o),
(228,336,o),
(156,336,cs),
(139,336,o),
(116,340,o),
(85,356,c),
(59,311,l),
(83,300,o),
(118,285,o),
(156,285,cs),
(291,285,o),
(336,363,o),
(336,421,cs),
(336,470,o),
(313,536,o),
(208,542,c),
(309,643,l)
);
},
{
closed = 1;
nodes = (
(429,103,l),
(612,103,l),
(612,0,l),
(692,0,l),
(692,103,l),
(741,103,l),
(741,154,l),
(692,154,l),
(692,405,l),
(631,404,l),
(631,404,o),
(570,358,o),
(501,266,cs),
(429,170,o),
(429,149,o),
(429,149,c)
);
},
{
closed = 1;
nodes = (
(614,154,l),
(512,154,l),
(520,168,o),
(540,201,o),
(559,228,cs),
(576,252,o),
(599,277,o),
(614,294,c)
);
}
);
width = 811;
},
{
layerId = "481D16E4-1E98-4559-AE79-559AF135D401";
width = 600;
},
{
layerId = "05E54F0F-8425-4B5B-B0EB-B578BBC85A7B";
width = 600;
},
{
layerId = m004;
width = 600;
},
{
hints = (
{
horizontal = 1;
place = (0,154);
type = Stem;
},
{
horizontal = 1;
place = (285,51);
type = Stem;
},
{
horizontal = 1;
place = (495,47);
type = Stem;
},
{
horizontal = 1;
place = (639.5,50.5);
type = Stem;
},
{
place = (67,242);
type = Stem;
},
{
place = (612,80);
type = Stem;
},
{
place = (248,88);
type = Stem;
},
{
horizontal = 1;
place = (103,51);
type = Stem;
}
);
layerId = m005;
shapes = (
{
closed = 1;
nodes = (
(640,664,l),
(588,698,l),
(175,-2,l),
(227,-36,l)
);
},
{
closed = 1;
nodes = (
(309,690,l),
(67,690,l),
(67,640,l),
(221,639,l),
(123,538,l),
(123,492,l),
(135,493,o),
(147,495,o),
(156,495,cs),
(229,495,o),
(248,460,o),
(248,422,cs),
(248,384,o),
(228,336,o),
(156,336,cs),
(139,336,o),
(116,340,o),
(85,356,c),
(59,311,l),
(83,300,o),
(118,285,o),
(156,285,cs),
(291,285,o),
(336,363,o),
(336,421,cs),
(336,470,o),
(313,536,o),
(208,542,c),
(309,643,l)
);
},
{
closed = 1;
nodes = (
(429,103,l),
(612,103,l),
(612,0,l),
(692,0,l),
(692,103,l),
(741,103,l),
(741,154,l),
(692,154,l),
(692,405,l),
(631,404,l),
(631,404,o),
(570,358,o),
(501,266,cs),
(429,170,o),
(429,149,o),
(429,149,c)
);
},
{
closed = 1;
nodes = (
(614,154,l),
(512,154,l),
(520,168,o),
(540,201,o),
(559,228,cs),
(576,252,o),
(599,277,o),
(614,294,c)
);
}
);
width = 811;
},
{
layerId = m006;
width = 600;
},
{
associatedMasterId = "481D16E4-1E98-4559-AE79-559AF135D401";
layerId = "3EF2FCCD-CB93-4CD0-83B9-CF96778F0091";
width = 591.98552;
}
);
note = threequarters;
unicode = 190;
userData = {
KernOnSpecialSpacing = {
L = NoKerning;
R = NoKerning;
};
};
}
{
glyphname = AE;
kernRight = KO_E;
layers = (
{
hints = (
{
horizontal = 1;
place = (0,75);
type = Stem;
},
{
horizontal = 1;
place = (150,75);
type = Stem;
},
{
horizontal = 1;
place = (305,74);
type = Stem;
},
{
horizontal = 1;
place = (592,75);
type = Stem;
},
{
place = (389,100);
type = Stem;
}
);
layerId = m01;
shapes = (
{
closed = 1;
nodes = (
(465,667,l),
(369,667,l),
(232,445,o),
(114,222,o),
(17,0,c),
(117,0,l),
(190,186,o),
(281,371,o),
(394,557,c)
);
},
{
closed = 1;
nodes = (
(146,147,l),
(467,147,l),
(484,227,l),
(163,227,l)
);
},
{
pos = (334,0);
ref = E;
}
);
width = 847;
},
{
layerId = "481D16E4-1E98-4559-AE79-559AF135D401";
shapes = (
{
closed = 1;
nodes = (
(442,667,l),
(392,667,l),
(255,445,o),
(134,222,o),
(37,0,c),
(92,0,l),
(165,186,o),
(292,421,o),
(404,607,c)
);
},
{
closed = 1;
nodes = (
(149,167,l),
(424,167,l),
(424,207,l),
(149,207,l)
);
},
{
pos = (314,0);
ref = E;
}
);
width = 814;
},
{
layerId = "05E54F0F-8425-4B5B-B0EB-B578BBC85A7B";
shapes = (
{
closed = 1;
nodes = (
(543,667,l),
(365,667,l),
(210,419,o),
(99,231,o),
(0,0,c),
(200,0,l),
(258,152,o),
(323,279,o),
(402,422,c)
);
},
{
closed = 1;
nodes = (
(129,127,l),
(550,127,l),
(576,247,l),
(155,247,l)
);
},
{
pos = (372,0);
ref = E;
}
);
width = 947;
},
{
layerId = m004;
shapes = (
{
closed = 1;
nodes = (
(442,667,l),
(392,667,l),
(255,445,o),
(134,222,o),
(37,0,c),
(92,0,l),
(165,186,o),
(298,451,o),
(411,637,c)
);
},
{
closed = 1;
nodes = (
(152,175,l),
(436,175,l),
(442,200,l),
(158,200,l)
);
},
{
pos = (321,0);
ref = E;
}
);
width = 806;
},
{
hints = (
{
horizontal = 1;
place = (0,75);
type = Stem;
},
{
horizontal = 1;
place = (150,75);
type = Stem;
},
{
horizontal = 1;
place = (305,74);
type = Stem;
},
{
horizontal = 1;
place = (592,75);
type = Stem;
},
{
place = (389,100);
type = Stem;
}
);
layerId = m005;
shapes = (
{
closed = 1;
nodes = (
(465,667,l),
(369,667,l),
(232,445,o),
(114,222,o),
(17,0,c),
(117,0,l),
(190,186,o),
(281,371,o),
(394,557,c)
);
},
{
closed = 1;
nodes = (
(148,157,l),
(469,157,l),
(482,217,l),
(161,217,l)
);
},
{
pos = (334,0);
ref = E;
}
);
width = 824;
},
{
layerId = m006;
shapes = (
{
closed = 1;
nodes = (
(543,667,l),
(365,667,l),
(210,419,o),
(99,231,o),
(0,0,c),
(200,0,l),
(258,152,o),
(323,279,o),
(402,422,c)
);
},
{
closed = 1;
nodes = (
(132,142,l),
(553,142,l),
(572,232,l),
(151,232,l)
);
},
{
pos = (372,0);
ref = E;
}
);
width = 917;
},
{
associatedMasterId = "481D16E4-1E98-4559-AE79-559AF135D401";
layerId = "3EF2FCCD-CB93-4CD0-83B9-CF96778F0091";
width = 592.2514;
}
);
metricLeft = "=A";
metricRight = "=E";
note = AE;
unicode = 198;
}
{
glyphname = multiply;
layers = (
{
hints = (
{
horizontal = 1;
place = (82,336);
type = Stem;
},
{
place = (82,336);
type = Stem;
}
);
layerId = m01;
shapes = (
{
closed = 1;
nodes = (
(270,198,l),
(383,85,l),
(440,142,l),
(327,255,l),
(440,368,l),
(383,425,l),
(270,312,l),
(157,425,l),
(100,368,l),
(213,255,l),
(100,142,l),
(157,85,l)
);
}
);
width = 525;
},
{
layerId = "481D16E4-1E98-4559-AE79-559AF135D401";
shapes = (
{
closed = 1;
nodes = (
(300,226,l),
(427,99,l),
(456,128,l),
(329,255,l),
(456,382,l),
(427,411,l),
(300,284,l),
(173,411,l),
(144,382,l),
(271,255,l),
(144,128,l),
(173,99,l)
);
}
);
width = 600;
},
{
layerId = "05E54F0F-8425-4B5B-B0EB-B578BBC85A7B";
shapes = (
{
closed = 1;
nodes = (
(251,167,l),
(348,70,l),
(436,158,l),
(339,255,l),
(436,352,l),
(348,440,l),
(251,343,l),
(153,441,l),
(65,353,l),
(163,255,l),
(65,157,l),
(153,69,l)
);
}
);
width = 500;
},
{
layerId = m004;
shapes = (
{
closed = 1;
nodes = (
(300,226,l),
(427,99,l),
(456,128,l),
(329,255,l),
(456,382,l),
(427,411,l),
(300,284,l),
(173,411,l),
(144,382,l),
(271,255,l),
(144,128,l),
(173,99,l)
);
}
);
width = 600;
},
{
hints = (
{
horizontal = 1;
place = (82,336);
type = Stem;
},
{
place = (82,336);
type = Stem;
}
);
layerId = m005;
shapes = (
{
closed = 1;
nodes = (
(270,198,l),
(383,85,l),
(440,142,l),
(327,255,l),
(440,368,l),
(383,425,l),
(270,312,l),
(157,425,l),
(100,368,l),
(213,255,l),
(100,142,l),
(157,85,l)
);
}
);
width = 520;
},
{
layerId = m006;
shapes = (
{
closed = 1;
nodes = (
(251,167,l),
(348,70,l),
(436,158,l),
(339,255,l),
(436,352,l),
(348,440,l),
(251,343,l),
(153,441,l),
(65,353,l),
(163,255,l),
(65,157,l),
(153,69,l)
);
}
);
width = 460;
},
{
associatedMasterId = "481D16E4-1E98-4559-AE79-559AF135D401";
layerId = "3EF2FCCD-CB93-4CD0-83B9-CF96778F0091";
width = 603.79833;
}
);
note = multiply;
unicode = 215;
userData = {
KernOnSpecialSpacing = {
L = math;
R = math;
};
};
}
{
glyphname = Oslash;
kernLeft = KO_O;
layers = (
{
hints = (
{
horizontal = 1;
place = (-10,80);
type = Stem;
},
{
horizontal = 1;
place = (597,80);
type = Stem;
},
{
place = (35,110);
type = Stem;
},
{
place = (425,110);
type = Stem;
}
);
layerId = m01;
shapes = (
{
closed = 1;
nodes = (
(84,2,l),
(152,-30,l),
(476,665,l),
(408,697,l)
);
},
{
ref = O;
}
);
width = 570;
},
{
layerId = "481D16E4-1E98-4559-AE79-559AF135D401";
shapes = (
{
closed = 1;
nodes = (
(95,-6,l),
(131,-23,l),
(455,673,l),
(419,690,l)
);
},
{
ref = O;
}
);
width = 550;
},
{
layerId = "05E54F0F-8425-4B5B-B0EB-B578BBC85A7B";
shapes = (
{
closed = 1;
nodes = (
(94,11,l),
(202,-39,l),
(526,656,l),
(418,706,l)
);
},
{
ref = O;
}
);
width = 620;
},
{
layerId = m004;
shapes = (
{
closed = 1;
nodes = (
(102,-9,l),
(124,-19,l),
(448,676,l),
(426,687,l)
);
},
{
ref = O;
}
);
width = 550;
},
{
hints = (
{
horizontal = 1;
place = (-10,80);
type = Stem;
},
{
horizontal = 1;
place = (597,80);
type = Stem;
},
{
place = (35,110);
type = Stem;
},
{
place = (425,110);
type = Stem;
}
);
layerId = m005;
shapes = (
{
closed = 1;
nodes = (
(100,-4,l),
(146,-25,l),
(470,671,l),
(424,692,l)
);
},
{
ref = O;
}
);
width = 570;
},
{
layerId = m006;
shapes = (
{
closed = 1;
nodes = (
(107,5,l),
(189,-33,l),
(513,662,l),
(431,700,l)
);
},
{
ref = O;
}
);
width = 620;
},
{
associatedMasterId = "481D16E4-1E98-4559-AE79-559AF135D401";
layerId = "3EF2FCCD-CB93-4CD0-83B9-CF96778F0091";
width = 601.1395;
}
);
note = O;
unicode = 216;
}
{
glyphname = Thorn;
kernLeft = KO_H;
layers = (
{
hints = (
{
horizontal = 1;
place = (0,21);
target = up;
type = BottomGhost;
},
{
horizontal = 1;
place = (140,67);
type = Stem;
},
{
horizontal = 1;
place = (456,69);
type = Stem;
},
{
place = (70,100);
type = Stem;
},
{
place = (406,99);
type = Stem;
}
);
layerId = m01;
shapes = (
{
closed = 1;
nodes = (
(270,150,ls),
(434,150,o),
(525,218,o),
(525,340,cs),
(525,462,o),
(434,530,o),
(270,530,cs),
(75,530,l),
(175,450,l),
(271,450,ls),
(376,450,o),
(426,415,o),
(426,340,cs),
(426,265,o),
(376,230,o),
(271,230,cs),
(175,230,l),
(175,150,l)
);
},
{
closed = 1;
nodes = (
(176,0,l),
(175,667,l),
(75,667,l),
(75,0,l)
);
}
);
width = 544;
},
{
layerId = "481D16E4-1E98-4559-AE79-559AF135D401";
shapes = (
{
closed = 1;
nodes = (
(270,159,ls),
(418,159,o),
(500,225,o),
(500,340,cs),
(500,455,o),
(418,519,o),
(270,519,cs),
(100,519,l),
(150,479,l),
(271,479,ls),
(393,479,o),
(451,435,o),
(451,340,cs),
(451,245,o),
(393,199,o),
(271,199,cs),
(150,199,l),
(150,159,l)
);
},
{
closed = 1;
nodes = (
(151,0,l),
(150,667,l),
(100,667,l),
(100,0,l)
);
}
);
width = 525;
},
{
layerId = "05E54F0F-8425-4B5B-B0EB-B578BBC85A7B";
shapes = (
{
closed = 1;
nodes = (
(295,135,ls),
(491,135,o),
(600,227,o),
(600,340,cs),
(600,472,o),
(491,545,o),
(295,545,cs),
(50,545,l),
(250,395,l),
(296,395,ls),
(367,395,o),
(401,377,o),
(401,340,cs),
(401,303,o),
(367,285,o),
(296,285,cs),
(250,285,l),
(250,135,l)
);
},
{
closed = 1;
nodes = (
(251,0,l),
(250,667,l),
(50,667,l),
(50,0,l)
);
}
);
width = 613;
},
{
layerId = m004;
shapes = (
{
closed = 1;
nodes = (
(260,165,l),
(408,165,o),
(490,227,o),
(490,340,cs),
(490,453,o),
(408,515,o),
(260,515,cs),
(90,515,l),
(140,485,l),
(261,485,ls),
(383,485,o),
(441,438,o),
(441,340,cs),
(441,242,o),
(383,195,o),
(261,195,cs),
(140,195,l),
(140,165,l)
);
},
{
closed = 1;
nodes = (
(141,0,l),
(140,667,l),
(90,667,l),
(90,0,l)
);
}
);
width = 513;
},
{
hints = (
{
horizontal = 1;
place = (0,21);
target = up;
type = BottomGhost;
},
{
horizontal = 1;
place = (140,67);
type = Stem;
},
{
horizontal = 1;
place = (456,69);
type = Stem;
},
{
place = (70,100);
type = Stem;
},
{
place = (406,99);
type = Stem;
}
);
layerId = m005;
shapes = (
{
closed = 1;
nodes = (
(255,158,ls),
(419,158,o),
(510,223,o),
(510,340,cs),
(510,458,o),
(419,523,o),
(255,523,cs),
(60,523,l),
(160,473,l),
(256,473,ls),
(361,473,o),
(411,430,o),
(411,340,cs),
(411,250,o),
(361,208,o),
(256,208,cs),
(160,208,l),
(160,158,l)
);
},
{
closed = 1;
nodes = (
(161,0,l),
(160,667,l),
(60,667,l),
(60,0,l)
);
}
);
width = 525;
},
{
layerId = m006;
shapes = (
{
closed = 1;
nodes = (
(275,148,ls),
(471,148,o),
(580,217,o),
(580,340,cs),
(580,464,o),
(471,533,o),
(275,533,cs),
(30,533,l),
(230,443,l),
(276,443,ls),
(347,443,o),
(381,410,o),
(381,340,cs),
(381,271,o),
(347,238,o),
(276,238,cs),
(230,238,l),
(230,148,l)
);
},
{
closed = 1;
nodes = (
(231,0,l),
(230,667,l),
(30,667,l),
(30,0,l)
);
}
);
width = 588;
},
{
associatedMasterId = "481D16E4-1E98-4559-AE79-559AF135D401";
layerId = "3EF2FCCD-CB93-4CD0-83B9-CF96778F0091";
width = 602.39295;
}
);
metricLeft = "=P";
metricRight = "=P";
note = Thorn;
unicode = 222;
}
{
glyphname = germandbls;
kernLeft = KO_h;
kernRight = KO_germandbls;
layers = (
{
hints = (
{
horizontal = 1;
place = (-10,80);
type = Stem;
},
{
horizontal = 1;
place = (440,65);
type = Stem;
},
{
horizontal = 1;
place = (640,60);
type = Stem;
},
{
place = (70,95);
type = Stem;
},
{
place = (220,90);
type = Stem;
},
{
place = (440,100);
type = Stem;
},
{
horizontal = 1;
place = (0,20);
type = Stem;
},
{
place = (375,75);
type = Stem;
}
);
layerId = m01;
shapes = (
{
closed = 1;
nodes = (
(170,0,l),
(170,500,ls),
(170,600,o),
(220,640,o),
(275,640,cs),
(329,640,o),
(378,601,o),
(380,505,c),
(380,505,o),
(380,504,o),
(380,504,c),
(380,436,l),
(380,436,o),
(380,435,o),
(380,435,c),
(410,435,o),
(436,429,o),
(455,423,c),
(455,500,l),
(455,610,o),
(411,710,o),
(275,710,cs),
(124,710,o),
(70,610,o),
(70,500,cs),
(70,0,l)
);
},
{
closed = 1;
nodes = (
(472,-10,o),
(545,55,o),
(545,155,cs),
(545,242,o),
(486,298,o),
(405,307,cs),
(338,315,o),
(315,338,o),
(315,375,cs),
(315,414,o),
(338,435,o),
(380,435,c),
(380,510,l),
(286,510,o),
(225,457,o),
(225,375,cs),
(225,294,o),
(280,242,o),
(355,233,cs),
(422,225,o),
(445,199,o),
(445,155,cs),
(445,97,o),
(415,65,o),
(360,65,c),
(360,-10,l)
);
},
{
closed = 1;
nodes = (
(360,65,l),
(275,65,o),
(230,95,o),
(230,95,c),
(223,72,o),
(215,48,o),
(208,25,c),
(208,25,o),
(275,-10,o),
(360,-10,c)
);
}
);
width = 585;
},
{
layerId = "481D16E4-1E98-4559-AE79-559AF135D401";
shapes = (
{
closed = 1;
nodes = (
(150,0,l),
(150,500,ls),
(150,621,o),
(189,670,o),
(283,670,cs),
(376,670,o),
(411,627,o),
(412,508,c),
(403,509,o),
(395,510,o),
(387,510,c),
(387,470,l),
(395,470,o),
(404,470,o),
(412,469,cs),
(426,467,o),
(432,467,o),
(452,461,c),
(452,500,ls),
(452,643,o),
(404,710,o),
(281,710,cs),
(158,710,o),
(100,643,o),
(100,500,cs),
(100,0,l)
);
},
{
closed = 1;
nodes = (
(479,-10,o),
(552,55,o),
(552,155,cs),
(552,230,o),
(493,278,o),
(387,290,cs),
(316,298,o),
(277,328,o),
(277,375,cs),
(277,436,o),
(316,470,o),
(387,470,c),
(387,510,l),
(293,510,o),
(232,457,o),
(232,375,cs),
(232,307,o),
(287,262,o),
(387,250,cs),
(461,242,o),
(502,208,o),
(502,155,cs),
(502,75,o),
(454,30,o),
(367,30,c),
(367,-10,l)
);
},
{
closed = 1;
nodes = (
(367,30,l),
(326,30,o),
(291,40,o),
(258,57,c),
(255,44,o),
(251,31,o),
(248,18,c),
(290,0,o),
(333,-10,o),
(367,-10,c)
);
}
);
width = 619;
},
{
layerId = "05E54F0F-8425-4B5B-B0EB-B578BBC85A7B";
shapes = (
{
closed = 1;
nodes = (
(250,-9,l),
(250,500,ls),
(250,558,o),
(293,590,o),
(370,590,cs),
(447,590,o),
(490,561,o),
(490,505,cs),
(490,505,o),
(490,504,o),
(490,504,c),
(514,386,l),
(514,386,o),
(515,385,o),
(515,385,c),
(590,385,o),
(662,350,o),
(662,350,c),
(662,500,ls),
(662,646,o),
(568,715,o),
(370,715,cs),
(153,715,o),
(50,646,o),
(50,500,cs),
(50,-9,l)
);
},
{
closed = 1;
nodes = (
(629,-10,o),
(705,43,o),
(705,155,cs),
(705,261,o),
(652,297,o),
(540,315,cs),
(484,324,o),
(465,331,o),
(465,350,cs),
(465,376,o),
(478,385,o),
(515,385,c),
(490,510,l),
(351,510,o),
(285,459,o),
(285,350,cs),
(285,254,o),
(335,208,o),
(440,190,cs),
(489,182,o),
(505,175,o),
(505,155,cs),
(505,125,o),
(489,115,o),
(440,115,c),
(470,-10,l)
);
},
{
closed = 1;
nodes = (
(440,115,l),
(370,115,o),
(298,150,o),
(298,150,c),
(287,113,o),
(275,77,o),
(264,40,c),
(264,40,o),
(345,-10,o),
(470,-10,c)
);
}
);
width = 738;
},
{
layerId = m004;
shapes = (
{
closed = 1;
nodes = (
(140,0,l),
(140,500,ls),
(140,636,o),
(179,685,o),
(273,685,cs),
(366,685,o),
(401,642,o),
(402,508,c),
(393,509,o),
(385,510,o),
(377,510,c),
(377,485,l),
(385,485,o),
(394,484,o),
(402,482,cs),
(416,479,o),
(442,464,o),
(442,482,c),
(442,500,ls),
(442,643,o),
(394,710,o),
(271,710,cs),
(148,710,o),
(90,643,o),
(90,500,cs),
(90,0,l)
);
},
{
closed = 1;
nodes = (
(469,-10,o),
(542,55,o),
(542,155,cs),
(542,230,o),
(483,278,o),
(377,290,cs),
(306,298,o),
(267,328,o),
(267,375,cs),
(267,446,o),
(306,485,o),
(377,485,c),
(377,510,l),
(283,510,o),
(222,457,o),
(222,375,cs),
(222,307,o),
(277,262,o),
(377,250,cs),
(451,242,o),
(492,208,o),
(492,155,cs),
(492,65,o),
(444,15,o),
(357,15,c),
(357,-10,l)
);
},
{
closed = 1;
nodes = (
(357,15,l),
(307,15,o),
(264,54,o),
(249,54,c),
(234,54,o),
(229,19,o),
(229,19,c),
(270,3,o),
(317,-10,o),
(357,-10,c)
);
}
);
width = 602;
},
{
hints = (
{
horizontal = 1;
place = (-10,80);
type = Stem;
},
{
horizontal = 1;
place = (440,65);
type = Stem;
},
{
horizontal = 1;
place = (640,60);
type = Stem;
},
{
place = (70,95);
type = Stem;
},
{
place = (220,90);
type = Stem;
},
{
place = (440,100);
type = Stem;
},
{
horizontal = 1;
place = (0,20);
type = Stem;
},
{
place = (375,75);
type = Stem;
}
);
layerId = m005;
shapes = (
{
closed = 1;
nodes = (
(160,0,l),
(160,500,ls),
(160,603,o),
(198,660,o),
(265,660,cs),
(331,660,o),
(368,605,o),
(370,505,c),
(370,505,o),
(370,504,o),
(370,504,c),
(370,461,l),
(370,461,o),
(370,460,o),
(370,460,c),
(412,460,o),
(445,435,o),
(445,460,c),
(445,500,l),
(445,610,o),
(401,710,o),
(265,710,cs),
(114,710,o),
(60,610,o),
(60,500,cs),
(60,0,l)
);
},
{
closed = 1;
nodes = (
(462,-10,o),
(535,55,o),
(535,155,cs),
(535,242,o),
(476,298,o),
(395,307,cs),
(328,315,o),
(305,338,o),
(305,375,cs),
(305,430,o),
(328,460,o),
(370,460,c),
(370,510,l),
(276,510,o),
(215,457,o),
(215,375,cs),
(215,294,o),
(270,242,o),
(345,233,cs),
(412,225,o),
(435,199,o),
(435,155,cs),
(435,81,o),
(405,40,o),
(350,40,c),
(350,-10,l)
);
},
{
closed = 1;
nodes = (
(350,40,l),
(280,40,o),
(245,95,o),
(220,95,c),
(198,95,o),
(198,47,o),
(198,25,c),
(198,25,o),
(265,-10,o),
(350,-10,c)
);
}
);
width = 575;
},
{
layerId = m006;
shapes = (
{
closed = 1;
nodes = (
(230,-9,l),
(230,500,ls),
(230,590,o),
(273,640,o),
(350,640,cs),
(427,640,o),
(470,592,o),
(470,505,cs),
(470,505,o),
(470,504,o),
(470,504,c),
(470,442,l),
(470,442,o),
(470,435,o),
(470,435,c),
(548,435,o),
(642,350,o),
(642,435,c),
(642,500,ls),
(642,645,o),
(548,715,o),
(350,715,cs),
(133,715,o),
(30,646,o),
(30,500,cs),
(30,-9,l)
);
},
{
closed = 1;
nodes = (
(609,-10,o),
(685,43,o),
(685,155,cs),
(685,261,o),
(632,291,o),
(520,315,cs),
(455,329,o),
(415,345,o),
(415,375,cs),
(415,416,o),
(439,435,o),
(470,435,c),
(470,510,l),
(331,510,o),
(265,459,o),
(265,350,cs),
(265,254,o),
(315,210,o),
(420,190,cs),
(481,178,o),
(510,164,o),
(510,130,cs),
(510,88,o),
(480,65,o),
(450,65,c),
(450,-10,l)
);
},
{
closed = 1;
nodes = (
(450,65,l),
(380,65,o),
(366,150,o),
(308,150,c),
(250,150,o),
(274,40,o),
(274,40,c),
(274,40,o),
(355,-10,o),
(450,-10,c)
);
}
);
width = 705;
}
);
metricLeft = "=n";
metricRight = "=s";
note = germandbls;
unicode = 223;
}
{
glyphname = divide;
layers = (
{
hints = (
{
horizontal = 1;
place = (50,95);
type = Stem;
},
{
horizontal = 1;
place = (218,65);
type = Stem;
},
{
horizontal = 1;
place = (355,95);
type = Stem;
},
{
place = (233,95);
type = Stem;
}
);
layerId = m01;
shapes = (
{
closed = 1;
nodes = (
(463,218,l),
(463,283,l),
(63,283,l),
(63,218,l)
);
},
{
closed = 1;
nodes = (
(289,50,o),
(311,71,o),
(311,97,cs),
(311,123,o),
(289,145,o),
(263,145,cs),
(237,145,o),
(216,123,o),
(216,97,cs),
(216,71,o),
(237,50,o),
(263,50,cs)
);
},
{
closed = 1;
nodes = (
(289,355,o),
(311,376,o),
(311,402,cs),
(311,428,o),
(289,450,o),
(263,450,cs),
(237,450,o),
(216,428,o),
(216,402,cs),
(216,376,o),
(237,355,o),
(263,355,cs)
);
}
);
width = 525;
},
{
layerId = "481D16E4-1E98-4559-AE79-559AF135D401";
shapes = (
{
closed = 1;
nodes = (
(500,230,l),
(500,270,l),
(100,270,l),
(100,230,l)
);
},
{
closed = 1;
nodes = (
(319,60,o),
(335,76,o),
(335,95,cs),
(335,114,o),
(319,130,o),
(300,130,cs),
(281,130,o),
(265,114,o),
(265,95,cs),
(265,76,o),
(281,60,o),
(300,60,cs)
);
},
{
closed = 1;
nodes = (
(319,370,o),
(335,386,o),
(335,405,cs),
(335,424,o),
(319,440,o),
(300,440,cs),
(281,440,o),
(265,424,o),
(265,405,cs),
(265,386,o),
(281,370,o),
(300,370,cs)
);
}
);
width = 600;
},
{
layerId = "05E54F0F-8425-4B5B-B0EB-B578BBC85A7B";
shapes = (
{
closed = 1;
nodes = (
(450,188,l),
(450,313,l),
(50,313,l),
(50,188,l)
);
},
{
closed = 1;
nodes = (
(298,-10,o),
(335,27,o),
(335,75,cs),
(335,123,o),
(298,160,o),
(250,160,cs),
(202,160,o),
(165,123,o),
(165,75,cs),
(165,27,o),
(202,-10,o),
(250,-10,cs)
);
},
{
closed = 1;
nodes = (
(299,340,o),
(336,377,o),
(336,425,cs),
(336,473,o),
(299,510,o),
(251,510,cs),
(203,510,o),
(166,473,o),
(166,425,cs),
(166,377,o),
(203,340,o),
(251,340,cs)
);
}
);
width = 500;
},
{
layerId = m004;
shapes = (
{
closed = 1;
nodes = (
(490,230,l),
(490,270,l),
(90,270,l),
(90,230,l)
);
},
{
closed = 1;
nodes = (
(309,60,o),
(325,76,o),
(325,95,cs),
(325,114,o),
(309,130,o),
(290,130,cs),
(271,130,o),
(255,114,o),
(255,95,cs),
(255,76,o),
(271,60,o),
(290,60,cs)
);
},
{
closed = 1;
nodes = (
(309,370,o),
(325,386,o),
(325,405,cs),
(325,424,o),
(309,440,o),
(290,440,cs),
(271,440,o),
(255,424,o),
(255,405,cs),
(255,386,o),
(271,370,o),
(290,370,cs)
);
}
);
width = 580;
},
{
hints = (
{
horizontal = 1;
place = (50,95);
type = Stem;
},
{
horizontal = 1;
place = (218,65);
type = Stem;
},
{
horizontal = 1;
place = (355,95);
type = Stem;
},
{
place = (233,95);
type = Stem;
}
);
layerId = m005;
shapes = (
{
closed = 1;
nodes = (
(460,218,l),
(460,283,l),
(60,283,l),
(60,218,l)
);
},
{
closed = 1;
nodes = (
(286,50,o),
(308,71,o),
(308,97,cs),
(308,123,o),
(286,145,o),
(260,145,cs),
(234,145,o),
(213,123,o),
(213,97,cs),
(213,71,o),
(234,50,o),
(260,50,cs)
);
},
{
closed = 1;
nodes = (
(286,355,o),
(308,376,o),
(308,402,cs),
(308,428,o),
(286,450,o),
(260,450,cs),
(234,450,o),
(213,428,o),
(213,402,cs),
(213,376,o),
(234,355,o),
(260,355,cs)
);
}
);
width = 520;
},
{
layerId = m006;
shapes = (
{
closed = 1;
nodes = (
(450,188,l),
(450,313,l),
(50,313,l),
(50,188,l)
);
},
{
closed = 1;
nodes = (
(298,-10,o),
(335,27,o),
(335,75,cs),
(335,123,o),
(298,160,o),
(250,160,cs),
(202,160,o),
(165,123,o),
(165,75,cs),
(165,27,o),
(202,-10,o),
(250,-10,cs)
);
},
{
closed = 1;
nodes = (
(299,340,o),
(336,377,o),
(336,425,cs),
(336,473,o),
(299,510,o),
(251,510,cs),
(203,510,o),
(166,473,o),
(166,425,cs),
(166,377,o),
(203,340,o),
(251,340,cs)
);
}
);
width = 460;
},
{
associatedMasterId = "481D16E4-1E98-4559-AE79-559AF135D401";
layerId = "3EF2FCCD-CB93-4CD0-83B9-CF96778F0091";
width = 601.51933;
}
);
note = divide;
unicode = 247;
userData = {
KernOnSpecialSpacing = {
L = math;
R = math;
};
};
}
{
glyphname = oslash;
layers = (
{
layerId = "481D16E4-1E98-4559-AE79-559AF135D401";
shapes = (
{
ref = o;
},
{
closed = 1;
nodes = (
(42,24,l),
(466,448,l),
(438,476,l),
(14,52,l)
);
}
);
width = 480;
},
{
layerId = m01;
shapes = (
{
ref = o;
},
{
closed = 1;
nodes = (
(53,14,l),
(477,438,l),
(428,487,l),
(4,63,l)
);
}
);
width = 490;
},
{
layerId = "05E54F0F-8425-4B5B-B0EB-B578BBC85A7B";
shapes = (
{
ref = o;
},
{
closed = 1;
nodes = (
(65,-34,l),
(560,461,l),
(485,535,l),
(-10,40,l)
);
}
);
width = 550;
},
{
layerId = m004;
shapes = (
{
ref = o;
},
{
closed = 1;
nodes = (
(37,29,l),
(461,453,l),
(443,471,l),
(19,47,l)
);
}
);
width = 480;
},
{
layerId = m005;
shapes = (
{
ref = o;
},
{
closed = 1;
nodes = (
(46,21,l),
(470,445,l),
(435,480,l),
(11,56,l)
);
}
);
width = 490;
},
{
layerId = m006;
shapes = (
{
ref = o;
},
{
closed = 1;
nodes = (
(54,-23,l),
(549,472,l),
(496,524,l),
(1,29,l)
);
}
);
width = 550;
}
);
unicode = 248;
}
{
glyphname = dotlessi;
kernLeft = KO_idotaccent;
kernRight = KO_idotaccent;
layers = (
{
anchors = (
{
name = bottom;
pos = (110,0);
},
{
name = ogonek;
pos = (160,0);
},
{
name = top;
pos = (110,500);
}
);
hints = (
{
horizontal = 1;
place = (0,21);
target = up;
type = BottomGhost;
},
{
horizontal = 1;
place = (585,120);
type = Stem;
},
{
place = (48,120);
type = Stem;
},
{
place = (60,95);
type = Stem;
}
);
layerId = m01;
shapes = (
{
closed = 1;
nodes = (
(160,500,l),
(60,500,l),
(60,0,l),
(160,0,l)
);
}
);
width = 220;
},
{
anchors = (
{
name = bottom;
pos = (110,0);
},
{
name = ogonek;
pos = (135,0);
},
{
name = top;
pos = (110,500);
}
);
layerId = "481D16E4-1E98-4559-AE79-559AF135D401";
shapes = (
{
closed = 1;
nodes = (
(135,500,l),
(85,500,l),
(85,0,l),
(135,0,l)
);
}
);
width = 220;
},
{
anchors = (
{
name = bottom;
pos = (110,0);
},
{
name = ogonek;
pos = (215,0);
},
{
name = top;
pos = (110,500);
}
);
layerId = "05E54F0F-8425-4B5B-B0EB-B578BBC85A7B";
shapes = (
{
closed = 1;
nodes = (
(215,500,l),
(15,500,l),
(15,0,l),
(215,0,l)
);
}
);
width = 220;
},
{
anchors = (
{
name = bottom;
pos = (110,0);
},
{
name = ogonek;
pos = (135,0);
},
{
name = top;
pos = (110,500);
}
);
layerId = m004;
shapes = (
{
closed = 1;
nodes = (
(135,500,l),
(85,500,l),
(85,0,l),
(135,0,l)
);
}
);
width = 220;
},
{
anchors = (
{
name = bottom;
pos = (110,0);
},
{
name = ogonek;
pos = (160,0);
},
{
name = top;
pos = (110,500);
}
);
hints = (
{
horizontal = 1;
place = (0,21);
target = up;
type = BottomGhost;
},
{
horizontal = 1;
place = (585,120);
type = Stem;
},
{
place = (48,120);
type = Stem;
},
{
place = (60,95);
type = Stem;
}
);
layerId = m005;
shapes = (
{
closed = 1;
nodes = (
(160,500,l),
(60,500,l),
(60,0,l),
(160,0,l)
);
}
);
width = 220;
},
{
anchors = (
{
name = bottom;
pos = (110,0);
},
{
name = ogonek;
pos = (215,0);
},
{
name = top;
pos = (110,500);
}
);
layerId = m006;
shapes = (
{
closed = 1;
nodes = (
(215,500,l),
(15,500,l),
(15,0,l),
(215,0,l)
);
}
);
width = 220;
},
{
anchors = (
{
name = bottom;
pos = (110,0);
},
{
name = ogonek;
pos = (198,10);
},
{
name = top;
pos = (110,500);
}
);
associatedMasterId = "481D16E4-1E98-4559-AE79-559AF135D401";
hints = (
{
horizontal = 1;
place = (0,21);
target = up;
type = BottomGhost;
},
{
horizontal = 1;
place = (-22,-5);
type = Stem;
},
{
place = (-2,-5);
type = Stem;
},
{
place = (-2,-4);
type = Stem;
}
);
layerId = "3EF2FCCD-CB93-4CD0-83B9-CF96778F0091";
shapes = (
{
closed = 1;
nodes = (
(134,500,l),
(86,500,l),
(86,0,l),
(134,0,l)
);
}
);
width = 220;
}
);
note = i;
unicode = 305;
}
{
glyphname = Lslash;
layers = (
{
hints = (
{
horizontal = 1;
place = (-10,80);
type = Stem;
},
{
horizontal = 1;
place = (597,80);
type = Stem;
},
{
place = (35,110);
type = Stem;
},
{
place = (425,110);
type = Stem;
}
);
layerId = m01;
shapes = (
{
closed = 1;
nodes = (
(0,226,l),
(57,170,l),
(328,441,l),
(271,497,l)
);
},
{
pos = (54,0);
ref = L;
}
);
width = 479;
},
{
layerId = "481D16E4-1E98-4559-AE79-559AF135D401";
shapes = (
{
closed = 1;
nodes = (
(0,212,l),
(29,183,l),
(300,455,l),
(271,484,l)
);
},
{
pos = (35,0);
ref = L;
}
);
width = 435;
},
{
layerId = "05E54F0F-8425-4B5B-B0EB-B578BBC85A7B";
shapes = (
{
closed = 1;
nodes = (
(-66,289,l),
(-6,186,l),
(326,378,l),
(266,481,l)
);
},
{
ref = L;
}
);
width = 500;
},
{
layerId = m004;
shapes = (
{
closed = 1;
nodes = (
(0,207,l),
(17,190,l),
(288,461,l),
(271,478,l)
);
},
{
pos = (29,0);
ref = L;
}
);
width = 419;
},
{
hints = (
{
horizontal = 1;
place = (-10,80);
type = Stem;
},
{
horizontal = 1;
place = (597,80);
type = Stem;
},
{
place = (35,110);
type = Stem;
},
{
place = (425,110);
type = Stem;
}
);
layerId = m005;
shapes = (
{
closed = 1;
nodes = (
(-43,216,l),
(-7,180,l),
(263,451,l),
(227,487,l)
);
},
{
ref = L;
}
);
width = 410;
},
{
layerId = m006;
shapes = (
{
closed = 1;
nodes = (
(-59,277,l),
(-13,199,l),
(319,390,l),
(273,468,l)
);
},
{
ref = L;
}
);
width = 480;
}
);
metricRight = "=L";
note = O;
unicode = 321;
}
{
glyphname = OE;
kernLeft = KO_O;
kernRight = KO_E;
layers = (
{
hints = (
{
horizontal = 1;
place = (0,75);
type = Stem;
},
{
horizontal = 1;
place = (305,74);
type = Stem;
},
{
horizontal = 1;
place = (592,75);
type = Stem;
},
{
place = (35,110);
type = Stem;
},
{
place = (425,100);
type = Stem;
},
{
horizontal = 1;
place = (-10,80);
type = Stem;
},
{
horizontal = 1;
place = (597,80);
type = Stem;
}
);
layerId = m01;
shapes = (
{
closed = 1;
nodes = (
(480,397,ls),
(480,577,o),
(444,677,o),
(290,677,cs),
(136,677,o),
(50,577,o),
(50,397,cs),
(50,270,ls),
(50,90,o),
(136,-10,o),
(290,-10,cs),
(444,-10,o),
(480,90,o),
(480,270,cs)
);
},
{
closed = 1;
nodes = (
(150,397,ls),
(150,533,o),
(195,597,o),
(290,597,cs),
(385,597,o),
(430,533,o),
(430,397,cs),
(430,270,ls),
(430,134,o),
(385,70,o),
(290,70,cs),
(195,70,o),
(150,134,o),
(150,270,cs)
);
},
{
pos = (370,0);
ref = E;
}
);
width = 883;
},
{
layerId = "481D16E4-1E98-4559-AE79-559AF135D401";
shapes = (
{
closed = 1;
nodes = (
(472,397,ls),
(472,587,o),
(428,677,o),
(282,677,cs),
(136,677,o),
(67,587,o),
(67,397,cs),
(67,270,ls),
(67,80,o),
(136,-10,o),
(282,-10,cs),
(428,-10,o),
(472,80,o),
(472,270,cs)
);
},
{
closed = 1;
nodes = (
(117,397,ls),
(117,560,o),
(170,637,o),
(282,637,cs),
(394,637,o),
(447,560,o),
(447,397,cs),
(447,270,ls),
(447,107,o),
(394,30,o),
(282,30,cs),
(170,30,o),
(117,107,o),
(117,270,cs)
);
},
{
pos = (357,0);
ref = E;
}
);
width = 857;
},
{
layerId = "05E54F0F-8425-4B5B-B0EB-B578BBC85A7B";
shapes = (
{
closed = 1;
nodes = (
(513,377,ls),
(513,564,o),
(513,677,o),
(323,677,cs),
(133,677,o),
(33,564,o),
(33,377,cs),
(33,290,ls),
(33,103,o),
(133,-10,o),
(323,-10,cs),
(513,-10,o),
(513,103,o),
(513,290,cs)
);
},
{
closed = 1;
nodes = (
(233,377,ls),
(233,514,o),
(263,557,o),
(323,557,cs),
(383,557,o),
(413,514,o),
(413,377,cs),
(413,290,ls),
(413,153,o),
(383,110,o),
(323,110,cs),
(263,110,o),
(233,153,o),
(233,290,cs)
);
},
{
pos = (383,0);
ref = E;
}
);
width = 958;
},
{
layerId = m004;
shapes = (
{
closed = 1;
nodes = (
(465,397,ls),
(465,587,o),
(421,677,o),
(275,677,cs),
(129,677,o),
(60,587,o),
(60,397,cs),
(60,270,ls),
(60,80,o),
(129,-10,o),
(275,-10,cs),
(421,-10,o),
(465,80,o),
(465,270,cs)
);
},
{
closed = 1;
nodes = (
(110,397,ls),
(110,570,o),
(163,652,o),
(275,652,cs),
(387,652,o),
(440,570,o),
(440,397,cs),
(440,270,ls),
(440,97,o),
(387,15,o),
(275,15,cs),
(163,15,o),
(110,97,o),
(110,270,cs)
);
},
{
pos = (350,0);
ref = E;
}
);
width = 835;
},
{
hints = (
{
horizontal = 1;
place = (0,75);
type = Stem;
},
{
horizontal = 1;
place = (305,74);
type = Stem;
},
{
horizontal = 1;
place = (592,75);
type = Stem;
},
{
place = (35,110);
type = Stem;
},
{
place = (425,100);
type = Stem;
},
{
horizontal = 1;
place = (-10,80);
type = Stem;
},
{
horizontal = 1;
place = (597,80);
type = Stem;
}
);
layerId = m005;
shapes = (
{
closed = 1;
nodes = (
(475,397,ls),
(475,577,o),
(439,677,o),
(285,677,cs),
(131,677,o),
(45,577,o),
(45,397,cs),
(45,270,ls),
(45,90,o),
(131,-10,o),
(285,-10,cs),
(439,-10,o),
(475,90,o),
(475,270,cs)
);
},
{
closed = 1;
nodes = (
(145,397,ls),
(145,553,o),
(190,627,o),
(285,627,cs),
(380,627,o),
(425,553,o),
(425,397,cs),
(425,270,ls),
(425,114,o),
(380,40,o),
(285,40,cs),
(190,40,o),
(145,114,o),
(145,270,cs)
);
},
{
pos = (365,0);
ref = E;
}
);
width = 855;
},
{
layerId = m006;
shapes = (
{
closed = 1;
nodes = (
(500,377,ls),
(500,564,o),
(500,677,o),
(310,677,cs),
(120,677,o),
(20,564,o),
(20,377,cs),
(20,290,ls),
(20,103,o),
(120,-10,o),
(310,-10,cs),
(500,-10,o),
(500,103,o),
(500,290,cs)
);
},
{
closed = 1;
nodes = (
(220,377,ls),
(220,544,o),
(250,587,o),
(310,587,cs),
(370,587,o),
(400,544,o),
(400,377,cs),
(400,290,ls),
(400,123,o),
(370,80,o),
(310,80,cs),
(250,80,o),
(220,123,o),
(220,290,cs)
);
},
{
pos = (370,0);
ref = E;
}
);
width = 915;
},
{
associatedMasterId = "481D16E4-1E98-4559-AE79-559AF135D401";
layerId = "3EF2FCCD-CB93-4CD0-83B9-CF96778F0091";
width = 590.69409;
}
);
metricLeft = "=O";
metricRight = "=E";
note = OE;
unicode = 338;
}
{
glyphname = florin;
layers = (
{
hints = (
{
horizontal = 1;
place = (-202,62);
type = Stem;
},
{
horizontal = 1;
place = (435,65);
type = Stem;
},
{
horizontal = 1;
place = (640,61);
type = Stem;
},
{
place = (-111,457);
type = Stem;
}
);
layerId = m01;
shapes = (
{
closed = 1;
nodes = (
(135,-210,o),
(156,-110,o),
(180,0,c),
(80,0,l),
(60,-95,o),
(54,-140,o),
(0,-140,cs),
(-23,-140,o),
(-43,-134,o),
(-57,-127,c),
(-69,-148,o),
(-80,-169,o),
(-92,-190,c),
(-69,-202,o),
(-35,-210,o),
(5,-210,cs)
);
},
{
ref = f;
slant = (12,0);
}
);
width = 412;
},
{
layerId = "481D16E4-1E98-4559-AE79-559AF135D401";
shapes = (
{
closed = 1;
nodes = (
(102,-210,o),
(114,-120,o),
(140,0,c),
(90,0,l),
(65,-114,o),
(64,-170,o),
(13,-170,cs),
(-10,-170,o),
(-33,-164,o),
(-53,-155,c),
(-60,-168,o),
(-68,-180,o),
(-74,-193,c),
(-51,-203,o),
(-26,-210,o),
(4,-210,cs)
);
},
{
ref = f;
slant = (12,0);
}
);
width = 373;
},
{
layerId = "05E54F0F-8425-4B5B-B0EB-B578BBC85A7B";
shapes = (
{
closed = 1;
nodes = (
(145,-215,o),
(222,-146,o),
(253,0,c),
(53,0,l),
(38,-68,o),
(26,-90,o),
(-1,-90,cs),
(-25,-90,o),
(-48,-80,o),
(-69,-70,c),
(-87,-103,o),
(-118,-152,o),
(-136,-185,c),
(-108,-201,o),
(-55,-215,o),
(15,-215,cs)
);
},
{
ref = f;
slant = (12,0);
}
);
width = 480;
},
{
layerId = m004;
shapes = (
{
closed = 1;
nodes = (
(84,-210,o),
(113,-125,o),
(140,0,c),
(90,0,l),
(61,-135,o),
(51,-183,o),
(-24,-183,cs),
(-59,-183,o),
(-35,-140,o),
(-50,-140,c),
(-65,-140,o),
(-81,-167,o),
(-86,-190,c),
(-86,-190,o),
(-67,-210,o),
(-30,-210,cs)
);
},
{
ref = f;
slant = (12,0);
}
);
width = 379;
},
{
hints = (
{
horizontal = 1;
place = (-202,62);
type = Stem;
},
{
horizontal = 1;
place = (435,65);
type = Stem;
},
{
horizontal = 1;
place = (640,61);
type = Stem;
},
{
place = (-111,457);
type = Stem;
}
);
layerId = m005;
shapes = (
{
closed = 1;
nodes = (
(146,-210,o),
(166,-110,o),
(190,0,c),
(90,0,l),
(68,-100,o),
(56,-160,o),
(6,-160,c),
(-49,-160,o),
(-14,-110,o),
(-44,-110,cs),
(-59,-110,o),
(-87,-127,o),
(-101,-190,c),
(-101,-190,o),
(-65,-210,o),
(15,-210,cs)
);
},
{
ref = f;
slant = (12,0);
}
);
width = 437;
},
{
layerId = m006;
shapes = (
{
closed = 1;
nodes = (
(145,-215,o),
(222,-146,o),
(253,0,c),
(53,0,l),
(38,-68,o),
(15,-140,o),
(-12,-140,cs),
(-62,-140,o),
(-15,-50,o),
(-65,-50,cs),
(-103,-50,o),
(-154,-115,o),
(-168,-180,c),
(-128,-203,o),
(-64,-215,o),
(15,-215,cs)
);
},
{
ref = f;
slant = (12,0);
}
);
width = 496;
},
{
associatedMasterId = "481D16E4-1E98-4559-AE79-559AF135D401";
layerId = "3EF2FCCD-CB93-4CD0-83B9-CF96778F0091";
width = 611.77483;
}
);
metricRight = "=|/2";
note = florin;
unicode = 402;
}
{
glyphname = ring;
layers = (
{
hints = (
{
horizontal = 1;
place = (565,40);
type = Stem;
},
{
horizontal = 1;
place = (675,40);
type = Stem;
},
{
place = (175,40);
type = Stem;
},
{
place = (285,40);
type = Stem;
}
);
layerId = m01;
shapes = (
{
ref = ringcomb;
}
);
width = 500;
},
{
layerId = "481D16E4-1E98-4559-AE79-559AF135D401";
shapes = (
{
ref = ringcomb;
}
);
width = 500;
},
{
layerId = "05E54F0F-8425-4B5B-B0EB-B578BBC85A7B";
shapes = (
{
ref = ringcomb;
}
);
width = 500;
},
{
layerId = m004;
shapes = (
{
ref = ringcomb;
}
);
width = 500;
},
{
hints = (
{
horizontal = 1;
place = (565,40);
type = Stem;
},
{
horizontal = 1;
place = (675,40);
type = Stem;
},
{
place = (175,40);
type = Stem;
},
{
place = (285,40);
type = Stem;
}
);
layerId = m005;
shapes = (
{
ref = ringcomb;
}
);
width = 500;
},
{
layerId = m006;
shapes = (
{
ref = ringcomb;
}
);
width = 500;
},
{
associatedMasterId = "481D16E4-1E98-4559-AE79-559AF135D401";
hints = (
{
horizontal = 1;
place = (-21,-2);
type = Stem;
},
{
horizontal = 1;
place = (-26,-2);
type = Stem;
},
{
place = (-7,-2);
type = Stem;
},
{
place = (-11,-2);
type = Stem;
}
);
layerId = "3EF2FCCD-CB93-4CD0-83B9-CF96778F0091";
shapes = (
{
closed = 1;
nodes = (
(175,594,o),
(209,560,o),
(250,560,cs),
(291,560,o),
(325,594,o),
(325,635,cs),
(325,676,o),
(291,710,o),
(250,710,cs),
(209,710,o),
(175,676,o),
(175,635,cs)
);
},
{
closed = 1;
nodes = (
(205,659,o),
(226,680,o),
(250,680,cs),
(274,680,o),
(295,659,o),
(295,635,cs),
(295,611,o),
(274,590,o),
(250,590,cs),
(226,590,o),
(205,611,o),
(205,635,cs)
);
}
);
width = 500;
}
);
note = ring;
unicode = 730;
}
